<svg width="28" height="28" viewBox="0 0 28 28" fill="none" xmlns="http://www.w3.org/2000/svg">
<path d="M19.3884 0C19.4536 0 19.5187 0 19.5876 0C19.7474 1.97462 18.9937 3.45005 18.0777 4.51851C17.179 5.57959 15.9482 6.6087 13.9576 6.45255C13.8248 4.50621 14.5797 3.14021 15.4945 2.07421C16.3429 1.08075 17.8982 0.196724 19.3884 0Z" fill="black"/>
<path d="M25.4143 20.5528C25.4143 20.5724 25.4143 20.5897 25.4143 20.6081C24.8549 22.3024 24.0569 23.7545 23.0831 25.102C22.1942 26.3254 21.1048 27.9717 19.1597 27.9717C17.4789 27.9717 16.3625 26.891 14.64 26.8615C12.8178 26.832 11.8157 27.7652 10.1497 28C9.95915 28 9.76858 28 9.58169 28C8.35831 27.823 7.371 26.8541 6.65173 25.9811C4.53079 23.4016 2.89184 20.0696 2.58691 15.8056C2.58691 15.3875 2.58691 14.9707 2.58691 14.5527C2.71601 11.501 4.19882 9.01982 6.16975 7.81734C7.20993 7.17799 8.63987 6.63331 10.2321 6.87675C10.9145 6.98249 11.6116 7.2161 12.2227 7.44725C12.8018 7.6698 13.526 8.06447 14.2121 8.04357C14.6768 8.03005 15.1391 7.78783 15.6076 7.61693C16.9797 7.12143 18.3248 6.55339 20.0978 6.82019C22.2286 7.14233 23.7409 8.08907 24.6753 9.54974C22.8729 10.6969 21.4478 12.4256 21.6913 15.3777C21.9077 18.0593 23.4667 19.6282 25.4143 20.5528Z" fill="black"/>
</svg>
