<?xml version="1.0" encoding="utf-8"?>
<!-- Generator: Adobe Illustrator 21.1.0, SVG Export Plug-In . SVG Version: 6.00 Build 0)  -->
<svg version="1.1" id="Layer_1" xmlns="http://www.w3.org/2000/svg" xmlns:xlink="http://www.w3.org/1999/xlink" x="0px" y="0px"
	 viewBox="0 0 250 642" style="enable-background:new 0 0 250 642;" xml:space="preserve">
<style type="text/css">
	.st0{fill:#B1C3DE;}
	.st1{fill:#D0DDF1;}
	.st2{fill:none;stroke:#E4ECF8;stroke-miterlimit:10;}
	.st3{fill:none;stroke:#C1D1E9;stroke-miterlimit:10;}
</style>
<path class="st0" d="M173.7,206.3c-30.7,2-61.4,2-92.1,0L46.1,204l0,0.1c0,0,13.2,10.8,40.2,16.9c4.1,5.8,10.1,16.3,11.2,29.2
	c1.7,20,0,46.1,3.8,57.2c2.4,7,8.8,24.3,13.3,36.2V641h26V345.3c4.6-11.9,11.8-30.6,14.3-37.9c3.8-11,2.1-37.2,3.8-57.2
	c1.1-13.3,7.5-24,11.6-29.7c22.9-5.1,35-13.1,39.6-16.7L173.7,206.3z"/>
<g>
	<path class="st1" d="M80.1,206.2c30.7,2,61.4,2,92.1,0l50.8-3.3c5.4-0.3,10.2-3.6,12.4-8.6c7.7-16.8,22.5-57.9,9.6-101.1
		c-17-56.4-72.5-91-121-90.2C75.6,2.2,22.5,39.6,5.6,96c-13.1,43.7,0.8,83.4,7.7,99.1c1.9,4.3,6.1,7.3,10.8,7.6L80.1,206.2z"/>
	<path class="st2" d="M43.7,186.9l2.6,10.4l5.1,4.5l4.8,0.1l2.8-2.7l-2.2-12.1l-9.2-6.3L43.7,186.9z"/>
	<path class="st2" d="M59.9,185.7l2.3,12.8l5.8,4.2l6.2,0.1l3.8-5.4L76,186.3l-10.2-6.3L59.9,185.7z"/>
	<path class="st2" d="M78.8,186l2.3,12.8l5.1,4.9l5.8,0.1l5.9-5.1l-1.2-12.1l-9.2-7L78.8,186z"/>
	<path class="st2" d="M100.4,186.2L101,199l7.1,4.9l6.9,0.1l5.9-4.4l-0.2-13.8l-10.2-5.6L100.4,186.2z"/>
	<path class="st2" d="M123.4,185.9l0.2,13.4l6.8,4.9l6.5,0.1l6.2-3.7l-0.2-13.8l-9.9-6.3L123.4,185.9z"/>
	<path class="st2" d="M146.1,186.8l-0.5,13.1l6.2,4.5l7.2,0.1l5.2-4.1l0.9-14.8l-8.2-4.9L146.1,186.8z"/>
	<path class="st2" d="M167.4,186.1l-0.9,13.8l6.5,3.9l6.5,0.1l5.2-3.8l1.6-15.1l-7.1-5.6L167.4,186.1z"/>
	<path class="st2" d="M188.1,185.3l-1.5,14.1l4.1,3.2l6.2,0.1l5.6-5.1l1.9-14.4l-5.4-5.2L188.1,185.3z"/>
	<path class="st2" d="M206.3,183.8l-2.1,14.1l2.3,3.1l4.9,0l4.4-5l2.9-13.7l-3.4-4.2L206.3,183.8z"/>
	<path class="st2" d="M220.4,183.3l-3.3,13.7l1.4,3l6.2-2.4l5.9-15.5l-3-4.9L220.4,183.3z"/>
	<path class="st2" d="M232.8,181.4l4.4-4.1l0.4,4.5l-5,13.7l-3.5,2.7l-1.7-1.1v-2.4L232.8,181.4z"/>
	<path class="st2" d="M40.3,185.5l4,12.4l-2.1,3.1h-5.3l-3.9-2.9l-3-12.8l2.8-3.8L40.3,185.5z"/>
	<path class="st2" d="M27.3,183.9l-5.5-3.9l-0.8,4.8l4.3,12.4l2.2,2.3h2.7l0.6-2.2L27.3,183.9z"/>
	<path class="st2" d="M15,179.3l4.1,4.9l4,12.1l-1.3,2.7l-3.2-2.4l-5-14.2L15,179.3z"/>
	<path class="st2" d="M13.1,179.5l-2.9-15.9l-2.6-3.5l-1.1,4.1l3.5,14.8l2,2.1L13.1,179.5z"/>
	<path class="st2" d="M14.8,177.8l-2.9-14.2l1.4-5.5l5,6.6l1.9,13.1l-1.1,3.8L14.8,177.8z"/>
	<path class="st2" d="M21.9,177.2l-2.2-12.8l3.2-6.2l6,5.3l2.2,14.8l-2.4,4.1L21.9,177.2z"/>
	<path class="st2" d="M32.8,178l-2.2-14.2l5.5-5.8l7.7,6l1.9,13.5l-4.2,5.8L32.8,178z"/>
	<path class="st2" d="M47.1,177.2l-1.9-12.7l7.6-6.4l10.8,6l1.9,13.5l-7.2,6.4L47.1,177.2z"/>
	<path class="st2" d="M66.8,177.5L65,163.7l8.6-6.8l11.1,6.4l0.8,14.5l-8.6,6.4L66.8,177.5z"/>
	<path class="st2" d="M87.2,177.1l-0.5-13.8l10.7-7.1l11.1,7.4l0.1,13.8L98,184.1L87.2,177.1z"/>
	<path class="st2" d="M110.3,177.1l-0.1-13.8l11-7.7l11.1,6.7l-0.2,16.2l-10.3,5L110.3,177.1z"/>
	<path class="st2" d="M134.1,178.1l0.2-15.8l11.3-6.4l10.1,7l0.1,15.9l-10.3,5.7L134.1,178.1z"/>
	<path class="st2" d="M157.6,178.4l0.5-15.2l11.3-6.7l8.8,6.7L178,178l-10,5.7L157.6,178.4z"/>
	<path class="st2" d="M179.3,177.7l0.6-14.5l10.6-6l8.4,6.6l-0.9,12.7l-10.3,6.4L179.3,177.7z"/>
	<path class="st2" d="M199.7,177l0.9-12.7l9-7.1l5,5.9l-0.5,12.7l-8.2,6.8L199.7,177z"/>
	<path class="st2" d="M215.4,176.2l0.9-12.7l7.6-6.1l3.7,5.5l-0.6,13.1l-6.2,5.1L215.4,176.2z"/>
	<path class="st2" d="M228.3,176l0.9-13.1l5.5-5.1l3,5.5l-0.8,12.1l-5.5,4.8L228.3,176z"/>
	<path class="st2" d="M237.8,175.5l1.2-12.8l4.6-4.8l0.8,6.2l-3.2,12.1l-2.1,2.3L237.8,175.5z"/>
	<path class="st2" d="M7.7,139l-2.1,4.5l0.9,13.4l3.1,3.8l1.8-4.1l-0.5-13.8L7.7,139z"/>
	<path class="st2" d="M12.9,142.9l0.5,13.8l4.7,4.9l3.2-4.4L20.8,143l-4.4-4.5L12.9,142.9z"/>
	<path class="st2" d="M22.5,143l0.5,14.1l6.5,5.2l5.2-4.8l-0.2-15.5l-7.1-5.2L22.5,143z"/>
	<path class="st2" d="M36.1,142.1l0.2,14.8l7.9,5.3l6.9-6.1L51,141.3l-9.2-5.6L36.1,142.1z"/>
	<path class="st2" d="M52.4,141.3l0.2,14.8l10.6,5.6l8.7-5.8l0.1-15.2L61,134.5L52.4,141.3z"/>
	<path class="st2" d="M73.3,140.8l-0.1,14.5l12.6,6.3l10-6.7l-0.2-14.1l-11.9-7L73.3,140.8z"/>
	<path class="st2" d="M97,140.8l-0.1,13.8l12.3,7.1l11.4-7.8l-0.5-13.4l-11.6-7L97,140.8z"/>
	<path class="st2" d="M121.8,140l0.5,13.4l11.6,6.7l10.7-6.4l0.2-14.1l-11.3-6.3L121.8,140z"/>
	<path class="st2" d="M146.9,140l-0.2,13.8l10.6,7.7l11.4-6.7l0.2-14.8l-10.9-6.3L146.9,140z"/>
	<path class="st2" d="M170.6,139.9l-0.2,14.5l9.3,7.1l10-5.9l0.4-15.4l-9.2-7L170.6,139.9z"/>
	<path class="st2" d="M191.8,140.5l-0.1,15.2l8.7,6.1l8.9-6.2l0.9-14.5l-7.1-7.3L191.8,140.5z"/>
	<path class="st2" d="M211.8,141.1l-0.9,14.5l4.9,6.2l7.2-6.9l1.4-13.8l-4.6-6.5L211.8,141.1z"/>
	<path class="st2" d="M225.8,141.4l-1.4,13.6l4.5,6.1l5.8-6l0.9-14.1l-3.1-4.2L225.8,141.4z"/>
	<path class="st2" d="M236.8,141.4l-1,13.8l3.1,5.9l4.7-5.5l1.1-13.1l-3.3-5.5L236.8,141.4z"/>
	<path class="st2" d="M6.7,115.8l1.3,3.4l-0.2,15.5l-2.2,5.1l-1.3-4.1l-0.4-17.3L6.7,115.8z"/>
	<path class="st2" d="M9.4,117.9l-0.3,17.6l2.7,5.2l2.8-5.1l1-18.6l-3.4-3.5L9.4,117.9z"/>
	<path class="st2" d="M17,116.6l-0.3,17.9l4.7,4.9l4.9-4.8l0.3-18.9l-5.1-5.2C21.6,110.5,17.3,116.3,17,116.6z"/>
	<path class="st2" d="M28.4,115.8l-0.3,18.9l7.1,4.6l6.9-5.8l0.3-18.9l-7.5-5.3L28.4,115.8z"/>
	<path class="st2" d="M43.8,114.3l-0.3,18.9l8.9,5.6l9.7-7.4l0.3-18.9l-9.5-5.6L43.8,114.3z"/>
	<path class="st2" d="M63.8,112.5l-0.3,18.6l9.9,6.7l11.1-6.4l0.3-18.9l-10.5-6.7L63.8,112.5z"/>
	<path class="st2" d="M86.8,112.6l-0.3,18.9l9.9,5.3l12.1-5.6l0.3-18.9l-11.2-7.1L86.8,112.6z"/>
	<path class="st2" d="M111.6,111.9l-0.3,18.9l10.5,5.3l11.4-6l0.3-19.3l-11.6-7.1L111.6,111.9z"/>
	<path class="st2" d="M135.6,110.6l-0.3,19.6l11.3,5l10.4-4.3l0.3-20l-10.2-6.7L135.6,110.6z"/>
	<path class="st2" d="M159.7,110.6l-0.3,20.3l11.1,6.4l10.9-6l0.3-20.7l-10.2-5.6L159.7,110.6z"/>
	<path class="st2" d="M183.7,110.7l-0.3,20.3l8.3,7.4l10.5-6l0.3-20l-9.9-5.6L183.7,110.7z"/>
	<path class="st2" d="M204.4,112.4L204,132l7.3,6.7l8.1-5.4l0.3-19.6l-7.8-5.3L204.4,112.4z"/>
	<path class="st2" d="M221.5,114l-0.3,18.3l4.2,6.7l7.1-5.2l0.3-19.6l-5.4-4.2L221.5,114z"/>
	<path class="st2" d="M234.5,114.6l-0.3,19.3l2.5,5.9l5.3-4.4l0.3-18.9l-3.4-4.2L234.5,114.6z"/>
	<path class="st2" d="M243.3,117v18.3l1.4,5.5l3.8-4.8v-17.2l-2.1-5.5L243.3,117z"/>
	<path class="st2" d="M6.1,112l2.3,3.8l3.2-4.1l3-17.2l-2.4-2.4l-3.8,3.7L6.1,112z"/>
	<path class="st2" d="M16,114.2l-3-3.1l3.3-17.2l3.9-5.1l3,3.8l-2.3,16.5L16,114.2z"/>
	<path class="st2" d="M22.3,108.8l3-16.2l6.3-6.8l4.4,3.9l-2,17.5l-5.6,5.8L22.3,108.8z"/>
	<path class="st2" d="M35.7,106.9l2-16.8l9.4-6.7l7.5,7l-1.2,14.1l-10.1,7.4L35.7,106.9z"/>
	<path class="st2" d="M55,105.2l0.9-14.8l9.4-8.8l8.8,7.4l-0.2,14.1l-9.7,7.1L55,105.2z"/>
	<path class="st2" d="M75.6,103.4l0.2-14.8L87,79.9l10.5,8.4l-0.2,14.4l-11.1,7.1L75.6,103.4z"/>
	<path class="st2" d="M99.4,102.8l0.2-14.5l10.4-8.1l10.5,7.4l-0.2,14.1l-9.7,7.8L99.4,102.8z"/>
	<path class="st2" d="M122.4,101.4l0.2-14.1l10.8-7.7l11.5,6.7l-0.2,15.5l-9.7,6.4L122.4,101.4z"/>
	<path class="st2" d="M147.2,101.1l0.2-14.8l9.1-6.7L168,86l-0.3,16.9l-8.7,5.4L147.2,101.1z"/>
	<path class="st2" d="M170.1,102.2l0.3-16.5l9-5.7l9.9,6.4l1.4,17.6l-8.7,4.7L170.1,102.2z"/>
	<path class="st2" d="M192.5,103.9L191.4,86l8-4.3l10.2,6.7l1.1,16.9l-7.3,5L192.5,103.9z"/>
	<path class="st2" d="M212,104.9l-1.1-16.5l5.9-4.7l7.5,6.3l2.5,16.6l-5.6,4.8L212,104.9z"/>
	<path class="st2" d="M226.3,90l1.8,16.6l5.1,5.6l4.5-3l-2.5-15.5l-5.1-6.3L226.3,90z"/>
	<path class="st2" d="M236.9,93.6l2.2,15.5l3.7,5.2l2.5-4.4l-1.8-14.5l-4.4-5.6L236.9,93.6z"/>
	<path class="st2" d="M13,90.4l2,2.4l4.5-4.8l5.1-14l-2-2.4l-4.2,2.7L13,90.4z"/>
	<path class="st2" d="M21.2,87.4L25.6,74l4.9-5.8l2.7,4.5l-2.9,12L25,90.9L21.2,87.4z"/>
	<path class="st2" d="M31.6,84.8l3.3-12.3l9.4-7.8l5.1,4.9l-2.6,12l-9.4,6.7L31.6,84.8z"/>
	<path class="st2" d="M48.5,82l2.6-12.4l9.7-7.1l6.8,5.6l-2.3,11L55.6,88L48.5,82z"/>
	<path class="st2" d="M67.1,79.2l1.6-11l9-7.4l9.2,6.4l-0.5,10.3l-11.1,8.8L67.1,79.2z"/>
	<path class="st2" d="M89.1,77.1l0.2-10l10.8-8.4l9.2,6.7L109,77.8L99,85.5L89.1,77.1z"/>
	<path class="st2" d="M111.1,77.5l0.2-12.1l11.5-7.7l10.2,7.1l-0.2,12.7l-11.1,7.7L111.1,77.5z"/>
	<path class="st2" d="M134.4,77.5l0.6-12.7l9.4-6.7l9.6,5.3l0.4,14.5l-8.3,6.4L134.4,77.5z"/>
	<path class="st2" d="M156.5,77.5l-0.1-14.5l9.7-5l9.2,5.3l1.8,14.8l-8.3,6.1L156.5,77.5z"/>
	<path class="st2" d="M178.8,77.9l-1.5-14.2l6.9-5.1l10.9,7.1l3.2,14.5l-8.3,4.3L178.8,77.9z"/>
	<path class="st2" d="M196.5,66.1l3.2,13.8l10.2,7l6.3-4.7l-4.6-14.2l-9.2-6.7L196.5,66.1z"/>
	<path class="st2" d="M212.9,68.1l4.3,13.8l7.8,7l4.5-3.4l-5.6-15.2l-7.5-5.6L212.9,68.1z"/>
	<path class="st2" d="M225.3,70.3l5.6,15.6l4.7,5.9l2.8-3.7l-5.3-13.5l-5.7-6.3L225.3,70.3z"/>
	<path class="st2" d="M23.2,70.2l1.3,2.1l5.9-5.4l4.6-9.5l-2.3-3.2l-4.5,3.4L23.2,70.2z"/>
	<path class="st2" d="M32.9,67l4-10.3l8-8.1l3.7,4.2l-3.3,9.6l-10.8,8.4L32.9,67z"/>
	<path class="st2" d="M46.7,63L50,52.7l9.8-8.4l5.7,5.3l-4.6,11.6l-10.4,6.7L46.7,63z"/>
	<path class="st2" d="M62.2,61.2l4.6-12l8.4-7.1l7.1,5.6l-4,11.7l-10.1,7.1L62.2,61.2z"/>
	<path class="st2" d="M84.1,47.4l-4,12l7.8,6.3l11.8-9.1l1.9-11.7l-7.5-4.6L84.1,47.4z"/>
	<path class="st2" d="M102.7,45l-1.5,11.3l9.2,7.4l11.8-7.7l0.5-10.7l-9.5-6.7L102.7,45z"/>
	<path class="st2" d="M124,45.3l-0.5,10.3l10.2,7.4l9.7-6l0.2-11.4l-9.9-7.1L124,45.3z"/>
	<path class="st2" d="M144.9,45.6l0.2,11l9.6,5l9.7-5l-1.9-12.4l-8.9-5.3L144.9,45.6z"/>
	<path class="st2" d="M163.5,43.9l2.5,12.4l10.2,6l6.9-4.4l-2.6-11.1l-9.9-6.4L163.5,43.9z"/>
	<path class="st2" d="M181.7,46.9l2.6,10.4l11.2,7.1l6.3-4l-3-10.4l-10.5-7.1L181.7,46.9z"/>
	<path class="st2" d="M199.5,49.9l3.3,10.1l9.2,7l3.8-3.7l-3.9-11.4l-7.8-4.9L199.5,49.9z"/>
	<path class="st2" d="M212.8,52.2l4,10.7l7.5,6l2.4-2.4l-4.3-10.4l-5.8-5.6L212.8,52.2z"/>
	<path class="st3" d="M28.2,52.2c0,0,15.5-16.8,97.9-16.2c82.5,0.6,98.3,17.3,98.3,17.3"/>
	<path class="st2" d="M114.2,29.7l5.1,3.9l11.3,0.2l3.8-3.1l-0.2-8.6l-8.2-3.6l-10.4,3.7L114.2,29.7z"/>
	<path class="st2" d="M136.7,22.8l-0.1,8.3l6.5,3.5l5.8,0.1l6.3-3l-0.9-7.6l-8.9-4.6L136.7,22.8z"/>
	<path class="st2" d="M155.9,24.5l0.5,7.2l4.8,2.8l7.6,0.8l4.8-2.7l-0.2-5.9l-7.1-4.2L155.9,24.5z"/>
	<path class="st2" d="M175.3,27.9l-0.1,4.8l5.6,4.2l8.6,1.2l3.8-2l0.4-3.4l-8.5-5.3L175.3,27.9z"/>
	<path class="st2" d="M194.9,33l-0.3,3.5l3.1,3.4l8.9,2.1l-1.7-6l-4.1-3.2L194.9,33z"/>
	<path class="st2" d="M113,22.7l-1.1,6.5l-5.9,4.4l-10.3,0.2l-3.4-4.2l1.8-6.5l9.3-4.3L113,22.7z"/>
	<path class="st2" d="M92,23.1L90.5,30l-4.2,4.4l-9.3,0.6l-2.4-2.4l2.9-7.9l7.6-3.7L92,23.1z"/>
	<path class="st2" d="M75.5,25.2L73,33.5l-2.8,2l-7.2,1.6l-2.7-1.8l3.2-6.5l6.9-4.7L75.5,25.2z"/>
	<path class="st2" d="M61,29.1l-2.9,6.5l-5.5,4.1L46.4,41l0.7-3.1l4.8-6.3l6.7-3.2L61,29.1z"/>
	<path class="st2" d="M127.1,16.8l8,4.3l8.5-3l0.1-4.5l-8-3.9l-7.8,3.3L127.1,16.8z"/>
	<path class="st2" d="M145.1,13.7l-0.1,4.5l10,4.8l8.9-1.7l-1.4-5.9l-9-4.3L145.1,13.7z"/>
	<path class="st2" d="M164,15.4l1.7,5.5l8.9,4.8l6.5-1l-4.2-7.6l-7.3-3.3L164,15.4z"/>
	<path class="st2" d="M125.3,13.3l-0.4,3.4l-10.8,4.1l-7.2-3.8l1.2-4.5l7.7-2.6L125.3,13.3z"/>
	<path class="st2" d="M106.3,13l-0.8,3.8l-12,4.9L89,18.5l1.2-4.4l8.5-2.9L106.3,13z"/>
	<path class="st2" d="M88.3,14.7L86,19.1l-9.6,4l-3.6-1.8l3.3-5.5l5.8-2.4L88.3,14.7z"/>
	<path class="st2" d="M72.8,17.5l-2,4.5l-8.2,5.9l-3.8-1.4l10.7-7.6L72.8,17.5z"/>
	<path class="st2" d="M178,17.1l5.8,7.9l10.3,6.2h6.2L178,17.1z"/>
	<path class="st2" d="M101.6,10.1l5.1,1.5l7.7-2.2l0.1-2.8L108,5.4l-6.3,1.9L101.6,10.1z"/>
	<path class="st2" d="M116,6.3l-0.1,2.4l10.2,3.3l8.1-3.3l0-2.4L124.8,4L116,6.3z"/>
	<path class="st2" d="M136.1,6.3l-0.1,2.1l8,4l7.7-2.3l0.1-2.4l-7.5-2.2L136.1,6.3z"/>
	<path class="st2" d="M153,8l0,1.4l8.3,4.6l8.4-0.9l-3-1.2l-4.8-1.4L153,8z"/>
	<path class="st2" d="M99.4,8v1.4L89.1,13l-4-0.8l5.2-2.3L99.4,8z"/>
</g>
</svg>
