<?xml version="1.0" encoding="utf-8"?>
<!-- Generator: Adobe Illustrator 21.1.0, SVG Export Plug-In . SVG Version: 6.00 Build 0)  -->
<svg version="1.1" id="Layer_1" xmlns="http://www.w3.org/2000/svg" xmlns:xlink="http://www.w3.org/1999/xlink" x="0px" y="0px"
	 viewBox="0 0 250 642" style="enable-background:new 0 0 250 642;" xml:space="preserve">
<style type="text/css">
	.st0{fill:#D0DDF1;}
	.st1{fill:none;stroke:#E4ECF8;stroke-miterlimit:10;}
	.st2{fill:none;stroke:#C1D1E9;stroke-miterlimit:10;}
	.st3{fill:#A7B8CF;}
	.st4{fill:#B1C3DE;}
</style>
<g>
	<path class="st0" d="M80,203.2c30.7,2,61.4,2,92.1,0l50.8-3.3c5.4-0.3,10.2-3.6,12.4-8.6c7.7-16.8,22.5-57.9,9.6-101.1
		c-17-56.4-72.5-91-121-90.2C75.5-0.8,22.4,36.6,5.4,93c-13.1,43.7,0.8,83.4,7.7,99.1c1.9,4.3,6.1,7.3,10.8,7.6L80,203.2z"/>
	<path class="st1" d="M43.6,183.9l2.6,10.4l5.1,4.5l4.8,0.1l2.8-2.7l-2.2-12.1l-9.2-6.3L43.6,183.9z"/>
	<path class="st1" d="M59.7,182.7l2.3,12.8l5.8,4.2l6.2,0.1l3.8-5.4l-1.9-11.1l-10.2-6.3L59.7,182.7z"/>
	<path class="st1" d="M78.6,183l2.3,12.8l5.1,4.9l5.8,0.1l5.9-5.1l-1.2-12.1l-9.2-7L78.6,183z"/>
	<path class="st1" d="M100.3,183.2l0.5,12.7l7.1,4.9l6.9,0.1l5.9-4.4l-0.2-13.8l-10.2-5.6L100.3,183.2z"/>
	<path class="st1" d="M123.3,182.9l0.2,13.4l6.8,4.9l6.5,0.1l6.2-3.7l-0.2-13.8l-9.9-6.3L123.3,182.9z"/>
	<path class="st1" d="M146,183.8l-0.5,13.1l6.2,4.5l7.2,0.1l5.2-4.1l0.9-14.8l-8.2-4.9L146,183.8z"/>
	<path class="st1" d="M167.3,183.1l-0.9,13.8l6.5,3.9l6.5,0.1l5.2-3.8l1.6-15.1l-7.1-5.6L167.3,183.1z"/>
	<path class="st1" d="M187.9,182.3l-1.5,14.1l4.1,3.2l6.2,0.1l5.6-5.1l1.9-14.4l-5.4-5.2L187.9,182.3z"/>
	<path class="st1" d="M206.1,180.8l-2.1,14.1l2.3,3.1l4.9,0l4.4-5l2.9-13.7l-3.4-4.2L206.1,180.8z"/>
	<path class="st1" d="M220.2,180.3L217,194l1.4,3l6.2-2.4l5.9-15.5l-3-4.9L220.2,180.3z"/>
	<path class="st1" d="M232.6,178.4l4.4-4.1l0.4,4.5l-5,13.7l-3.5,2.7l-1.7-1.1v-2.4L232.6,178.4z"/>
	<path class="st1" d="M40.2,182.5l4,12.4L42,198h-5.3l-3.9-2.9l-3-12.8l2.8-3.8L40.2,182.5z"/>
	<path class="st1" d="M27.1,180.9l-5.5-3.9l-0.8,4.8l4.3,12.4l2.2,2.3h2.7l0.6-2.2L27.1,180.9z"/>
	<path class="st1" d="M14.8,176.3l4.1,4.9l4,12.1l-1.3,2.7l-3.2-2.4l-5-14.2L14.8,176.3z"/>
	<path class="st1" d="M12.9,176.5l-2.9-15.9l-2.6-3.5l-1.1,4.1l3.5,14.8l2,2.1L12.9,176.5z"/>
	<path class="st1" d="M14.6,174.8l-2.9-14.2l1.4-5.5l5,6.6l1.9,13.1l-1.1,3.8L14.6,174.8z"/>
	<path class="st1" d="M21.8,174.2l-2.2-12.8l3.2-6.2l6,5.3l2.2,14.8l-2.4,4.1L21.8,174.2z"/>
	<path class="st1" d="M32.6,175l-2.2-14.2l5.5-5.8l7.7,6l1.9,13.5l-4.2,5.8L32.6,175z"/>
	<path class="st1" d="M46.9,174.2l-1.9-12.7l7.6-6.4l10.8,6l1.9,13.5l-7.2,6.4L46.9,174.2z"/>
	<path class="st1" d="M66.6,174.5l-1.8-13.8l8.6-6.8l11.1,6.4l0.8,14.5l-8.6,6.4L66.6,174.5z"/>
	<path class="st1" d="M87.1,174.1l-0.5-13.8l10.7-7.1l11.1,7.4l0.1,13.8l-10.6,6.7L87.1,174.1z"/>
	<path class="st1" d="M110.2,174.1l-0.1-13.8l11-7.7l11.1,6.7l-0.2,16.2l-10.3,5L110.2,174.1z"/>
	<path class="st1" d="M133.9,175.1l0.2-15.8l11.3-6.4l10.1,7l0.1,15.9l-10.3,5.7L133.9,175.1z"/>
	<path class="st1" d="M157.4,175.4l0.5-15.2l11.3-6.7l8.8,6.7l-0.2,14.8l-10,5.7L157.4,175.4z"/>
	<path class="st1" d="M179.2,174.7l0.6-14.5l10.6-6l8.4,6.6l-0.9,12.7l-10.3,6.4L179.2,174.7z"/>
	<path class="st1" d="M199.6,174l0.9-12.7l9-7.1l5,5.9l-0.5,12.7l-8.2,6.8L199.6,174z"/>
	<path class="st1" d="M215.2,173.2l0.9-12.7l7.6-6.1l3.7,5.5l-0.6,13.1l-6.2,5.1L215.2,173.2z"/>
	<path class="st1" d="M228.1,173l0.9-13.1l5.5-5.1l3,5.5l-0.8,12.1l-5.5,4.8L228.1,173z"/>
	<path class="st1" d="M237.7,172.5l1.2-12.8l4.6-4.8l0.8,6.2l-3.2,12.1l-2.1,2.3L237.7,172.5z"/>
	<path class="st1" d="M7.6,136l-2.1,4.5l0.9,13.4l3.1,3.8l1.8-4.1l-0.5-13.8L7.6,136z"/>
	<path class="st1" d="M12.7,139.9l0.5,13.8l4.7,4.9l3.2-4.4L20.6,140l-4.4-4.5L12.7,139.9z"/>
	<path class="st1" d="M22.3,140l0.5,14.1l6.5,5.2l5.2-4.8l-0.2-15.5l-7.1-5.2L22.3,140z"/>
	<path class="st1" d="M36,139.1l0.2,14.8l7.9,5.3l6.9-6.1l-0.2-14.8l-9.2-5.6L36,139.1z"/>
	<path class="st1" d="M52.2,138.3l0.2,14.8l10.6,5.6l8.7-5.8l0.1-15.2l-10.9-6.3L52.2,138.3z"/>
	<path class="st1" d="M73.2,137.8L73,152.3l12.6,6.3l10-6.7l-0.2-14.1l-11.9-7L73.2,137.8z"/>
	<path class="st1" d="M96.9,137.8l-0.1,13.8l12.3,7.1l11.4-7.8l-0.5-13.4l-11.6-7L96.9,137.8z"/>
	<path class="st1" d="M121.7,137l0.5,13.4l11.6,6.7l10.7-6.4l0.2-14.1l-11.3-6.3L121.7,137z"/>
	<path class="st1" d="M146.7,137l-0.2,13.8l10.6,7.7l11.4-6.7l0.2-14.8l-10.9-6.3L146.7,137z"/>
	<path class="st1" d="M170.4,136.9l-0.2,14.5l9.3,7.1l10-5.9l0.4-15.4l-9.2-7L170.4,136.9z"/>
	<path class="st1" d="M191.6,137.5l-0.1,15.2l8.7,6.1l8.9-6.2l0.9-14.5l-7.1-7.3L191.6,137.5z"/>
	<path class="st1" d="M211.7,138.1l-0.9,14.5l4.9,6.2l7.2-6.9l1.4-13.8l-4.6-6.5L211.7,138.1z"/>
	<path class="st1" d="M225.6,138.4l-1.4,13.6l4.5,6.1l5.8-6l0.9-14.1l-3.1-4.2L225.6,138.4z"/>
	<path class="st1" d="M236.6,138.4l-1,13.8l3.1,5.9l4.7-5.5l1.1-13.1l-3.3-5.5L236.6,138.4z"/>
	<path class="st1" d="M6.6,112.8l1.3,3.4l-0.2,15.5l-2.2,5.1l-1.3-4.1l-0.4-17.3L6.6,112.8z"/>
	<path class="st1" d="M9.3,114.9L9,132.4l2.7,5.2l2.8-5.1l1-18.6l-3.4-3.5L9.3,114.9z"/>
	<path class="st1" d="M16.9,113.6l-0.3,17.9l4.7,4.9l4.9-4.8l0.3-18.9l-5.1-5.2C21.4,107.5,17.2,113.3,16.9,113.6z"/>
	<path class="st1" d="M28.2,112.8l-0.3,18.9l7.1,4.6l6.9-5.8l0.3-18.9l-7.5-5.3L28.2,112.8z"/>
	<path class="st1" d="M43.7,111.3l-0.3,18.9l8.9,5.6l9.7-7.4l0.3-18.9l-9.5-5.6L43.7,111.3z"/>
	<path class="st1" d="M63.7,109.5l-0.3,18.6l9.9,6.7l11.1-6.4l0.3-18.9l-10.5-6.7L63.7,109.5z"/>
	<path class="st1" d="M86.7,109.6l-0.3,18.9l9.9,5.3l12.1-5.6l0.3-18.9l-11.2-7.1L86.7,109.6z"/>
	<path class="st1" d="M111.4,108.9l-0.3,18.9l10.5,5.3l11.4-6l0.3-19.3l-11.6-7.1L111.4,108.9z"/>
	<path class="st1" d="M135.5,107.6l-0.3,19.6l11.3,5l10.4-4.3l0.3-20l-10.2-6.7L135.5,107.6z"/>
	<path class="st1" d="M159.5,107.6l-0.3,20.3l11.1,6.4l10.9-6l0.3-20.7l-10.2-5.6L159.5,107.6z"/>
	<path class="st1" d="M183.6,107.7l-0.3,20.3l8.3,7.4l10.5-6l0.3-20l-9.9-5.6L183.6,107.7z"/>
	<path class="st1" d="M204.2,109.4l-0.3,19.6l7.3,6.7l8.1-5.4l0.3-19.6l-7.8-5.3L204.2,109.4z"/>
	<path class="st1" d="M221.3,111l-0.3,18.3l4.2,6.7l7.1-5.2l0.3-19.6l-5.4-4.2L221.3,111z"/>
	<path class="st1" d="M234.4,111.6l-0.3,19.3l2.5,5.9l5.3-4.4l0.3-18.9l-3.4-4.2L234.4,111.6z"/>
	<path class="st1" d="M243.2,114v18.3l1.4,5.5l3.8-4.8v-17.2l-2.1-5.5L243.2,114z"/>
	<path class="st1" d="M5.9,109l2.3,3.8l3.2-4.1l3-17.2l-2.4-2.4l-3.8,3.7L5.9,109z"/>
	<path class="st1" d="M15.9,111.2l-3-3.1l3.3-17.2l3.9-5.1l3,3.8l-2.3,16.5L15.9,111.2z"/>
	<path class="st1" d="M22.2,105.8l3-16.2l6.3-6.8l4.4,3.9l-2,17.5l-5.6,5.8L22.2,105.8z"/>
	<path class="st1" d="M35.6,103.9l2-16.8l9.4-6.7l7.5,7l-1.2,14.1L43,108.9L35.6,103.9z"/>
	<path class="st1" d="M54.8,102.2l0.9-14.8l9.4-8.8L74,86l-0.2,14.1l-9.7,7.1L54.8,102.2z"/>
	<path class="st1" d="M75.5,100.4l0.2-14.8l11.1-8.8l10.5,8.4l-0.2,14.4L86,106.8L75.5,100.4z"/>
	<path class="st1" d="M99.2,99.8l0.2-14.5l10.4-8.1l10.5,7.4l-0.2,14.1l-9.7,7.8L99.2,99.8z"/>
	<path class="st1" d="M122.2,98.4l0.2-14.1l10.8-7.7l11.5,6.7l-0.2,15.5l-9.7,6.4L122.2,98.4z"/>
	<path class="st1" d="M147,98.1l0.2-14.8l9.1-6.7l11.6,6.4l-0.3,16.9l-8.7,5.4L147,98.1z"/>
	<path class="st1" d="M170,99.2l0.3-16.5l9-5.7l9.9,6.4l1.4,17.6l-8.7,4.7L170,99.2z"/>
	<path class="st1" d="M192.3,100.9L191.2,83l8-4.3l10.2,6.7l1.1,16.9l-7.3,5L192.3,100.9z"/>
	<path class="st1" d="M211.9,101.9l-1.1-16.5l5.9-4.7l7.5,6.3l2.5,16.6l-5.6,4.8L211.9,101.9z"/>
	<path class="st1" d="M226.2,87l1.8,16.6l5.1,5.6l4.5-3l-2.5-15.5l-5.1-6.3L226.2,87z"/>
	<path class="st1" d="M236.8,90.6l2.2,15.5l3.7,5.2l2.5-4.4l-1.8-14.5l-4.4-5.6L236.8,90.6z"/>
	<path class="st1" d="M12.8,87.4l2,2.4l4.5-4.8l5.1-14l-2-2.4l-4.2,2.7L12.8,87.4z"/>
	<path class="st1" d="M21.1,84.4L25.5,71l4.9-5.8l2.7,4.5l-2.9,12l-5.3,6.1L21.1,84.4z"/>
	<path class="st1" d="M31.5,81.8l3.3-12.3l9.4-7.8l5.1,4.9l-2.6,12l-9.4,6.7L31.5,81.8z"/>
	<path class="st1" d="M48.3,79l2.6-12.4l9.7-7.1l6.8,5.6l-2.3,11L55.4,85L48.3,79z"/>
	<path class="st1" d="M66.9,76.2l1.6-11l9-7.4l9.2,6.4l-0.5,10.3l-11.1,8.8L66.9,76.2z"/>
	<path class="st1" d="M88.9,74.1l0.2-10l10.8-8.4l9.2,6.7l-0.2,12.4l-10.1,7.7L88.9,74.1z"/>
	<path class="st1" d="M110.9,74.5l0.2-12.1l11.5-7.7l10.2,7.1l-0.2,12.7l-11.1,7.7L110.9,74.5z"/>
	<path class="st1" d="M134.3,74.5l0.6-12.7l9.4-6.7l9.6,5.3l0.4,14.5l-8.3,6.4L134.3,74.5z"/>
	<path class="st1" d="M156.3,74.5l-0.1-14.5l9.7-5l9.2,5.3l1.8,14.8l-8.3,6.1L156.3,74.5z"/>
	<path class="st1" d="M178.6,74.9l-1.5-14.2l6.9-5.1l10.9,7.1l3.2,14.5l-8.3,4.3L178.6,74.9z"/>
	<path class="st1" d="M196.3,63.1l3.2,13.8l10.2,7l6.3-4.7l-4.6-14.2l-9.2-6.7L196.3,63.1z"/>
	<path class="st1" d="M212.8,65.1l4.3,13.8l7.8,7l4.5-3.4l-5.6-15.2l-7.5-5.6L212.8,65.1z"/>
	<path class="st1" d="M225.1,67.3l5.6,15.6l4.7,5.9l2.8-3.7L233,71.6l-5.7-6.3L225.1,67.3z"/>
	<path class="st1" d="M23.1,67.2l1.3,2.1l5.9-5.4l4.6-9.5l-2.3-3.2l-4.5,3.4L23.1,67.2z"/>
	<path class="st1" d="M32.8,64l4-10.3l8-8.1l3.7,4.2l-3.3,9.6l-10.8,8.4L32.8,64z"/>
	<path class="st1" d="M46.6,60l3.3-10.3l9.8-8.4l5.7,5.3l-4.6,11.6l-10.4,6.7L46.6,60z"/>
	<path class="st1" d="M62.1,58.2l4.6-12l8.4-7.1l7.1,5.6l-4,11.7l-10.1,7.1L62.1,58.2z"/>
	<path class="st1" d="M83.9,44.4l-4,12l7.8,6.3l11.8-9.1l1.9-11.7L94,37.4L83.9,44.4z"/>
	<path class="st1" d="M102.5,42L101,53.3l9.2,7.4l11.8-7.7l0.5-10.7l-9.5-6.7L102.5,42z"/>
	<path class="st1" d="M123.8,42.3l-0.5,10.3l10.2,7.4l9.7-6l0.2-11.4l-9.9-7.1L123.8,42.3z"/>
	<path class="st1" d="M144.8,42.6l0.2,11l9.6,5l9.7-5l-1.9-12.4l-8.9-5.3L144.8,42.6z"/>
	<path class="st1" d="M163.4,40.9l2.5,12.4l10.2,6l6.9-4.4l-2.6-11.1l-9.9-6.4L163.4,40.9z"/>
	<path class="st1" d="M181.5,43.9l2.6,10.4l11.2,7.1l6.3-4l-3-10.4l-10.5-7.1L181.5,43.9z"/>
	<path class="st1" d="M199.3,46.9l3.3,10.1l9.2,7l3.8-3.7l-3.9-11.4l-7.8-4.9L199.3,46.9z"/>
	<path class="st1" d="M212.7,49.2l4,10.7l7.5,6l2.4-2.4l-4.3-10.4l-5.8-5.6L212.7,49.2z"/>
	<path class="st2" d="M28.1,49.2c0,0,15.5-16.8,97.9-16.2c82.5,0.6,98.3,17.3,98.3,17.3"/>
	<path class="st1" d="M114.1,26.7l5.1,3.9l11.3,0.2l3.8-3.1l-0.2-8.6l-8.2-3.6l-10.4,3.7L114.1,26.7z"/>
	<path class="st1" d="M136.6,19.8l-0.1,8.3l6.5,3.5l5.8,0.1l6.3-3l-0.9-7.6l-8.9-4.6L136.6,19.8z"/>
	<path class="st1" d="M155.8,21.5l0.5,7.2l4.8,2.8l7.6,0.8l4.8-2.7l-0.2-5.9l-7.1-4.2L155.8,21.5z"/>
	<path class="st1" d="M175.1,24.9l-0.1,4.8l5.6,4.2l8.6,1.2l3.8-2l0.4-3.4l-8.5-5.3L175.1,24.9z"/>
	<path class="st1" d="M194.7,30l-0.3,3.5l3.1,3.4l8.9,2.1l-1.7-6l-4.1-3.2L194.7,30z"/>
	<path class="st1" d="M112.9,19.7l-1.1,6.5l-5.9,4.4l-10.3,0.2l-3.4-4.2l1.8-6.5l9.3-4.3L112.9,19.7z"/>
	<path class="st1" d="M91.9,20.1L90.4,27l-4.2,4.4l-9.3,0.6l-2.4-2.4l2.9-7.9l7.6-3.7L91.9,20.1z"/>
	<path class="st1" d="M75.3,22.2l-2.5,8.2l-2.8,2l-7.2,1.6l-2.7-1.8l3.2-6.5l6.9-4.7L75.3,22.2z"/>
	<path class="st1" d="M60.8,26.1L58,32.6l-5.5,4.1L46.2,38l0.7-3.1l4.8-6.3l6.7-3.2L60.8,26.1z"/>
	<path class="st1" d="M126.9,13.8l8,4.3l8.5-3l0.1-4.5l-8-3.9l-7.8,3.3L126.9,13.8z"/>
	<path class="st1" d="M145,10.7l-0.1,4.5l10,4.8l8.9-1.7l-1.4-5.9l-9-4.3L145,10.7z"/>
	<path class="st1" d="M163.8,12.4l1.7,5.5l8.9,4.8l6.5-1l-4.2-7.6l-7.3-3.3L163.8,12.4z"/>
	<path class="st1" d="M125.2,10.3l-0.4,3.4L114,17.9l-7.2-3.8l1.2-4.5l7.7-2.6L125.2,10.3z"/>
	<path class="st1" d="M106.1,10l-0.8,3.8l-12,4.9l-4.6-3.1L90,11l8.5-2.9L106.1,10z"/>
	<path class="st1" d="M88.1,11.7l-2.3,4.4l-9.6,4l-3.6-1.8l3.3-5.5l5.8-2.4L88.1,11.7z"/>
	<path class="st1" d="M72.7,14.5l-2,4.5l-8.2,5.9l-3.8-1.4l10.7-7.6L72.7,14.5z"/>
	<path class="st1" d="M177.9,14.1l5.8,7.9l10.3,6.2h6.2L177.9,14.1z"/>
	<path class="st1" d="M101.4,7.1l5.1,1.5l7.7-2.2l0.1-2.8l-6.5-1.2l-6.3,1.9L101.4,7.1z"/>
	<path class="st1" d="M115.8,3.3l-0.1,2.4L125.9,9l8.1-3.3l0-2.4L124.6,1L115.8,3.3z"/>
	<path class="st1" d="M136,3.3l-0.1,2.1l8,4l7.7-2.3l0.1-2.4l-7.5-2.2L136,3.3z"/>
	<path class="st1" d="M152.8,5l0,1.4l8.3,4.6l8.4-0.9l-3-1.2l-4.8-1.4L152.8,5z"/>
	<path class="st1" d="M99.3,5v1.4L88.9,10l-4-0.8L90,6.9L99.3,5z"/>
</g>
<path class="st0" d="M38.2,235.4c1.6,1.1,10.9,5.9,27.1,8.9c11.8,2.2,17.5,0.7,19.7-0.3v-10.7l-2.4,0.4c-2.7,0.4-5.6,0.5-8.3,0.2
	l-2.3-0.2c-32.3-3.8-35.6-12-35.6-12c-0.9,0.7-0.9,3.4-0.9,3.4l0.6,8.9C36.7,234.4,37.4,234.9,38.2,235.4z"/>
<path class="st0" d="M76.2,258.2c-2.9,0-6.6-0.3-11.1-1.2c-18.8-3.5-27.3-9-27.3-9c-0.3-0.2-0.5-0.4-0.8-0.6l0.8,11.7
	c0.1,0.1,0.3,0.2,0.4,0.3c1.6,1.1,10.9,5.9,27.1,8.9c11.8,2.2,17.5,0.7,19.7-0.3v-11.3C83.4,257.5,80.7,258.2,76.2,258.2z"/>
<path class="st0" d="M85,279.2v-10.3c-1.5,0.6-4.3,1.4-8.7,1.4c-2.9,0-6.6-0.3-11.1-1.2c-18-3.4-26.6-8.5-27.3-9l0.7,10.6
	c2.3,1.4,11.5,5.8,26.7,8.7C77.1,281.7,82.8,280.2,85,279.2z"/>
<g>
	<path class="st3" d="M84.9,268.1c-2.2,1-7.9,2.5-19.7,0.3c-16.1-3-25.5-7.8-27.1-8.9c-0.1-0.1-0.3-0.2-0.4-0.3l0,0.9
		c0.8,0.5,9.4,5.6,27.3,9c4.6,0.9,8.2,1.2,11.1,1.2c4.5,0,7.2-0.8,8.7-1.4L84.9,268.1z"/>
</g>
<path class="st0" d="M76.2,281.3c-2.9,0-6.6-0.3-11.1-1.2c-15.5-2.9-24-7.1-26.6-8.5l2.1,31.6c0.2,2.8,1.9,5.2,4.5,6.3
	c6.7,2.9,19.7,8.3,26.6,10.4c9.4,2.9,13.3-1.9,13.3-1.9v-38.1C83.4,280.6,80.7,281.3,76.2,281.3z"/>
<g>
	<path class="st3" d="M85,279.2c-2.2,1-7.9,2.5-19.7,0.3c-15.2-2.9-24.4-7.3-26.7-8.7l0,0.8c2.5,1.4,11,5.6,26.6,8.5
		c4.6,0.9,8.2,1.2,11.1,1.2c4.5,0,7.2-0.7,8.7-1.4L85,279.2z"/>
</g>
<path class="st0" d="M76.2,246.2c-2.9,0-6.6-0.3-11.1-1.2c-18.8-3.5-27.3-9-27.3-9c-0.7-0.4-1.2-0.9-1.6-1.1l0.8,11.8
	c0.3,0.2,0.8,0.6,1.2,0.9c1.6,1.1,10.9,5.9,27.1,8.9c11.8,2.2,17.5,0.7,19.7-0.3v-11.3C83.4,245.5,80.7,246.2,76.2,246.2z"/>
<g>
	<path class="st3" d="M37,247.5c0.2,0.2,0.5,0.3,0.8,0.6c0.1,0.1,8.6,5.5,27.3,9c4.6,0.9,8.2,1.2,11.1,1.2c4.5,0,7.2-0.7,8.7-1.4
		l0-0.7c-2.2,1-7.9,2.5-19.7,0.3c-16.1-3-25.5-7.8-27.1-8.9c-0.5-0.3-0.9-0.7-1.2-0.9L37,247.5L37,247.5L37,247.5z"/>
</g>
<path class="st3" d="M65.2,244.3c-16.1-3-25.5-7.8-27.1-8.9c-0.7-0.5-1.5-1-2.1-1.5l0.1,0.9c0.4,0.3,0.9,0.6,1.6,1.1
	c0.1,0.1,8.6,5.5,27.3,9c4.6,0.9,8.2,1.2,11.1,1.2c4.5,0,7.2-0.7,8.7-1.4l0-0.8C82.7,245,77,246.5,65.2,244.3z"/>
<path class="st0" d="M213.5,234.8c-1.6,1.1-10.9,5.9-27.1,8.9c-11.8,2.2-17.5,0.7-19.7-0.3v-10.7l2.4,0.4c2.7,0.4,5.6,0.5,8.3,0.2
	l2.3-0.2c32.3-3.8,35.6-12,35.6-12c0.9,0.7,0.9,3.4,0.9,3.4l-0.6,8.9C215.1,233.7,214.3,234.2,213.5,234.8z"/>
<path class="st0" d="M175.4,257.6c2.9,0,6.6-0.3,11.1-1.2c18.8-3.5,27.3-9,27.3-9c0.3-0.2,0.6-0.4,0.8-0.6l-0.8,11.7
	c-0.1,0.1-0.3,0.2-0.4,0.3c-1.6,1.1-10.9,5.9-27.1,8.9c-11.8,2.2-17.5,0.7-19.7-0.3v-11.3C168.2,256.8,171,257.6,175.4,257.6z"/>
<path class="st0" d="M166.7,278.5v-10.3c1.5,0.6,4.3,1.4,8.7,1.4c2.9,0,6.6-0.3,11.1-1.2c18-3.4,26.6-8.5,27.3-9l-0.7,10.6
	c-2.3,1.4-11.5,5.8-26.7,8.7C174.6,281,168.9,279.5,166.7,278.5z"/>
<path class="st0" d="M175.4,280.6c2.9,0,6.6-0.3,11.1-1.2c15.5-2.9,24-7.1,26.6-8.5l-2.1,31.6c-0.2,2.8-1.9,5.2-4.5,6.3
	c-6.7,2.9-19.7,8.3-26.6,10.4c-9.4,2.9-13.3-1.9-13.3-1.9v-38.1C168.2,279.9,171,280.6,175.4,280.6z"/>
<path class="st4" d="M206.7,308.8c-6.7,2.9-19.7,8.3-26.6,10.4c-7.9,2.4-11.9-0.5-13-1.5l-0.2,0.7c-13.2,2.8-28.5,5.8-42.8,5.5
	c-19.8-0.4-36.8-5.2-39.2-5.8c-0.2,0.2-4,4.7-13.2,1.8c-6.8-2.1-19.9-7.5-26.6-10.4c-0.9-0.4-1.7-1-2.4-1.7l0.2,1.3l-0.1,0
	c0,0,0.1,0,0.2,0.1l1.6,12.3c0,0,13.2,10.8,40.2,16.9c4.1,5.8,10.1,16.3,11.2,29.2c1.7,20,0,46.1,3.8,57.2c2.4,7,8.8,24.3,13.3,36.2
	v181h26V462.7c4.6-11.9,11.8-30.6,14.3-37.9c3.8-11,2.1-37.2,3.8-57.2c1.1-13.3,7.5-24,11.6-29.7c30.4-6.8,41.8-18.6,41.8-18.6
	l0.1-14.6C209.9,306.6,208.5,308,206.7,308.8z"/>
<path class="st0" d="M175.4,245.5c2.9,0,6.6-0.3,11.1-1.2c18.8-3.5,27.3-9,27.3-9c0.7-0.4,1.2-0.9,1.6-1.1l-0.8,11.8
	c-0.3,0.2-0.8,0.6-1.2,0.9c-1.6,1.1-10.9,5.9-27.1,8.9c-11.8,2.2-17.5,0.7-19.7-0.3v-11.3C168.2,244.8,171,245.5,175.4,245.5z"/>
<g>
	<path class="st3" d="M166.8,267.4c2.2,1,7.9,2.5,19.7,0.3c16.1-3,25.5-7.8,27.1-8.9c0.1-0.1,0.3-0.2,0.4-0.3l0,0.9
		c-0.8,0.5-9.4,5.6-27.3,9c-4.6,0.9-8.2,1.2-11.1,1.2c-4.5,0-7.2-0.8-8.7-1.4L166.8,267.4z"/>
</g>
<g>
	<path class="st3" d="M166.7,278.5c2.2,1,7.9,2.5,19.7,0.3c15.2-2.9,24.4-7.3,26.7-8.7l0,0.8c-2.5,1.4-11,5.6-26.6,8.5
		c-4.6,0.9-8.2,1.2-11.1,1.2c-4.5,0-7.2-0.7-8.7-1.4L166.7,278.5z"/>
</g>
<g>
	<path class="st3" d="M214.7,246.8c-0.2,0.2-0.5,0.3-0.8,0.6c-0.1,0.1-8.6,5.5-27.3,9c-4.6,0.9-8.2,1.2-11.1,1.2
		c-4.5,0-7.2-0.7-8.7-1.4l0-0.7c2.2,1,7.9,2.5,19.7,0.3c16.1-3,25.5-7.8,27.1-8.9c0.5-0.3,0.9-0.7,1.2-0.9L214.7,246.8L214.7,246.8
		L214.7,246.8z"/>
</g>
<path class="st3" d="M186.5,243.6c16.1-3,25.5-7.8,27.1-8.9c0.7-0.5,1.5-1,2.1-1.5l-0.1,0.9c-0.4,0.3-0.9,0.6-1.6,1.1
	c-0.1,0.1-8.6,5.5-27.3,9c-4.6,0.9-8.2,1.2-11.1,1.2c-4.5,0-7.2-0.7-8.7-1.4l0-0.8C169,244.3,174.7,245.8,186.5,243.6z"/>
<g>
	<path class="st4" d="M176.1,211.6c0.2,0.1,0.3,0.2,0.4,0.4l0,0l0,0.1c0.1,0.2,0.1,0.3,0,0.5l-0.2,8.4c-4.4,1.6-8.8,2.8-13.2,3.9
		l3.6,4.8c0,0,0,0,0,0l0,3l2.4,0.4c2.7,0.4,5.6,0.5,8.3,0.2l2.3-0.2c32.3-3.8,35.6-12,35.6-12c0.1-0.2-0.5-2-2.7-3
		c-15.9-6.8-36.9-8.9-50.7-9.6C170.3,209.4,174.3,210.8,176.1,211.6z"/>
	<path class="st3" d="M104,202.5l0.3,12.1c0,0,21.6,5.9,46,0v-11.7L104,202.5z"/>
	<path class="st4" d="M176.1,211.6c-2.5-1.1-9-3.2-25.7-4.2v7.1c-24.4,5.9-46,0-46,0l-0.2-6.8c-10.9,0.7-22.5,2.1-28.3,4.5
		c-0.7,0.3-0.6,1.2,0.1,1.4c9.5,2.4,53.9,12.8,100.1-0.8C176.7,212.8,176.8,211.9,176.1,211.6z"/>
	<path class="st4" d="M84.6,229.7l7.6-8.4h68.4l6.2,8.4C166.7,229.7,84.9,229.7,84.6,229.7z"/>
	<g>
		<path class="st3" d="M176,212.9c-46.2,13.5-90.6,3.2-100.1,0.8c-0.6-0.1-0.7-0.2-0.7-0.2l0.2,8.2c0,0,4.8,1.8,12.9,3.8l3.8-4.2
			h68.4l3,4c4.3-1.2,8.6-2.6,12.8-4.4l0.2-8.4C176.4,212.7,176.2,212.9,176,212.9z"/>
	</g>
	<path class="st3" d="M84.6,229.7V318c0,0,18.1,5.4,39.5,5.9c14.3,0.3,29.8-2.7,42.9-5.5l-0.3-88.7
		C166.7,229.7,85.3,229.7,84.6,229.7z"/>
	<path class="st4" d="M75.8,212.4c-0.2,0.1-0.3,0.2-0.4,0.4l0,0l0,0.1c-0.1,0.2-0.1,0.3,0,0.5l0.2,8.4c4.4,1.6,8.8,2.8,13.2,3.9
		l-3.6,4.8c0,0,0,0,0,0l0,3l-2.4,0.4c-2.7,0.4-5.6,0.5-8.3,0.2l-2.3-0.2c-32.3-3.8-35.6-12-35.6-12c-0.1-0.2,0.5-2,2.7-3
		c15.9-6.8,36.9-8.9,50.7-9.6C81.5,210.2,77.6,211.6,75.8,212.4z"/>
</g>
</svg>
