<svg width="45" height="82" viewBox="0 0 45 82" fill="none" xmlns="http://www.w3.org/2000/svg">
<path d="M37.2555 47.4077L37.2263 47.6888L36.0738 48.5028L31.8031 49.4398H30.165H28.8779L28.9949 48.2686L32.7391 48.6199L35.3717 47.7415L37.2555 47.4077Z" fill="#6DA3F2"/>
<path d="M37.3958 45.4049L37.3549 45.8031L35.4886 46.9802L32.3295 47.5073L30.6329 47.5658L29.1118 47.5073V45.809L32.3295 46.336L35.0206 45.9847L37.3958 45.4049Z" fill="#6DA3F2"/>
<path d="M37.5539 43.1619L37.4837 43.8939L33.9092 45.7503L29.58 45.8088L28.8779 45.2232L29.0534 44.052L35.8983 43.5249L37.5539 43.1619Z" fill="#6DA3F2"/>
<path d="M37.7059 40.7317L37.6064 42.102C37.6064 42.102 32.0955 43.7593 32.037 43.7593C31.9785 43.7593 29.1118 43.5251 29.1118 43.5251V42.2953L33.675 41.8854L37.7059 40.7317Z" fill="#FFFB96"/>
<path d="M26.0698 36.9662C26.0698 36.9662 32.7801 36.7613 37.1678 38.6294C37.9459 38.9573 37.7411 39.7889 37.7119 40.2457L28.4684 42.1196L26.0698 36.9662Z" fill="#FFFB96"/>
<path d="M7.51318 47.5249L7.54244 47.806L8.69494 48.62L12.9656 49.557H14.6037H15.8908L15.7738 48.3858L12.0296 48.7371L9.39698 47.8587L7.51318 47.5249Z" fill="#6DA3F2"/>
<path d="M7.37256 45.522L7.41351 45.9202L9.27975 47.0973L12.4389 47.6243L14.1355 47.6829L15.6566 47.6243V45.926L12.4389 46.4531L9.74777 46.1017L7.37256 45.522Z" fill="#6DA3F2"/>
<path d="M7.21436 43.2792L7.28456 44.0112L10.8591 45.8676L15.1883 45.9261L15.8903 45.3405L15.7148 44.1693L8.86999 43.6423L7.21436 43.2792Z" fill="#6DA3F2"/>
<path d="M7.0625 40.849L7.16195 42.2193C7.16195 42.2193 12.6729 43.8766 12.7314 43.8766C12.7899 43.8766 15.6566 43.6424 15.6566 43.6424V42.4126L11.0933 42.0027L7.0625 40.849Z" fill="#FFFB96"/>
<path d="M22.5011 58.4467L14.7202 58.2827C14.7202 58.2827 17.0018 60.6837 17.2943 64.0803C17.5869 67.4769 17.2943 71.9275 17.9379 73.8015C18.5814 75.6755 20.9636 82.0001 20.9636 82.0001H21.9161H23.0861H23.9437C23.9437 82.0001 26.4208 75.6755 27.0643 73.8015C27.7078 71.9275 27.4153 67.4769 27.7078 64.0803C28.0004 60.6837 30.282 58.2827 30.282 58.2827L22.5011 58.4467Z" fill="#7BCEE0"/>
<path d="M8.22656 54.1247C8.22656 54.1247 14.4279 58.4582 22.6768 58.224C30.2295 58.0073 35.2373 55.3427 36.7759 53.949L8.22656 54.1247Z" fill="#7BCEE0"/>
<path d="M8.22656 53.949L8.51908 56.2329C8.51908 56.2329 13.328 60.1623 23.3203 59.8051C33.3126 59.4479 36.7759 55.8815 36.7759 55.8815V53.949C36.7759 53.949 30.9842 58.1654 22.7353 58.0483C12.9653 57.9136 8.22656 53.949 8.22656 53.949Z" fill="#7BCEE0"/>
<path d="M18.6987 37.0833C18.6987 37.0833 11.9884 36.8783 7.6007 38.7464C6.82261 39.0744 7.02737 39.906 7.05662 40.3627L16.3001 42.2367L18.6987 37.0833Z" fill="#FFFB96"/>
<path d="M14.2816 39.4549C14.2816 39.4549 22.9108 42.0023 30.9842 39.1328L31.0135 37.6102L14.2231 37.8738L14.2816 39.4549Z" fill="#4881D3"/>
<path d="M22.9403 36.7611C22.794 36.7553 17.5463 36.5035 14.3813 37.7918C14.2702 37.8387 14.2819 37.9968 14.3989 38.0261C16.0136 38.436 23.069 40.0816 30.9318 37.7801C31.0429 37.745 31.0546 37.5927 30.9435 37.5459C30.3702 37.2941 28.5566 36.7202 22.952 36.7611C22.9403 36.7611 22.9403 36.7611 22.9403 36.7611Z" fill="#6DA3F2"/>
<path d="M18.6694 36L18.7279 38.0497C18.7279 38.0497 22.4136 39.0452 26.5673 38.0497V36.0586L18.6694 36Z" fill="#4881D3"/>
<path d="M15.3638 40.6203L16.6508 39.1973H28.2929L29.3459 40.6203C29.3459 40.6203 15.4106 40.6203 15.3638 40.6203Z" fill="#7BCEE0"/>
<path d="M7.45436 41.6042C7.72932 41.7916 9.31475 42.5997 12.0644 43.1151C14.0769 43.4899 15.0422 43.2322 15.4166 43.0624V41.2352L15.0129 41.2997C14.5449 41.3758 14.0652 41.3875 13.5913 41.3348L13.1935 41.2938C7.69422 40.6496 7.13844 39.25 7.13844 39.25C6.99219 39.373 6.99219 39.8298 6.99219 39.8298L7.09164 41.3465C7.19695 41.4226 7.32565 41.5163 7.45436 41.6042Z" fill="#F4D553"/>
<path d="M13.9364 45.4809C13.4391 45.4809 12.819 45.4282 12.0409 45.2818C8.84664 44.6845 7.39577 43.7592 7.38407 43.7475C7.33727 43.7124 7.29046 43.6831 7.24951 43.6538L7.38407 45.6508C7.40747 45.6683 7.43087 45.68 7.45427 45.6976C7.72923 45.885 9.31466 46.6932 12.0643 47.2085C14.0768 47.5833 15.0421 47.3256 15.4165 47.1558V45.235C15.1649 45.358 14.6969 45.4809 13.9364 45.4809Z" fill="#4881D3"/>
<path d="M15.4226 49.0416V47.2964C15.1652 47.4018 14.6971 47.5307 13.9366 47.5307C13.4393 47.5307 12.8192 47.478 12.0411 47.3316C8.97556 46.7577 7.51299 45.8792 7.39014 45.8031L7.51299 47.6126C7.91081 47.8528 9.47284 48.6023 12.0645 49.0884C14.0829 49.4691 15.0482 49.2114 15.4226 49.0416Z" fill="#7BCEE0"/>
<path d="M13.9363 49.4046C13.439 49.4046 12.8189 49.3519 12.0408 49.2055C9.3965 48.7136 7.95148 47.9933 7.51855 47.7532L7.87542 53.1233C7.90467 53.5976 8.20304 54.0075 8.63596 54.1949C9.77091 54.681 11.994 55.6063 13.1582 55.9635C14.7612 56.4554 15.4164 55.6473 15.4164 55.6473V49.1704C15.1649 49.2816 14.6969 49.4046 13.9363 49.4046Z" fill="#4881D3"/>
<path d="M13.9367 43.4314C13.4394 43.4314 12.8193 43.3787 12.0412 43.2323C8.84691 42.635 7.39604 41.7097 7.38434 41.698C7.27318 41.6219 7.17373 41.5516 7.10938 41.5048L7.24393 43.5076C7.30243 43.5486 7.37264 43.6013 7.45454 43.6598C7.72951 43.8472 9.31493 44.6554 12.0646 45.1707C14.0771 45.5455 15.0424 45.2878 15.4168 45.118V43.1972C15.1652 43.3085 14.6972 43.4314 13.9367 43.4314Z" fill="#F4D553"/>
<path d="M15.3638 40.6202V55.6354C15.3638 55.6354 18.4527 56.5607 22.0916 56.6426C24.5195 56.7012 27.1579 56.18 29.4044 55.7057L29.3459 40.6144C29.3459 40.6202 15.4808 40.6202 15.3638 40.6202Z" fill="#6DA3F2"/>
<path d="M37.3143 41.4872C37.0393 41.6746 35.4539 42.4828 32.7043 42.9981C30.6918 43.3729 29.7265 43.1152 29.3521 42.9454V41.1183L29.7557 41.1827C30.2237 41.2588 30.7035 41.2705 31.1773 41.2178L31.5752 41.1769C37.0744 40.5327 37.6302 39.1331 37.6302 39.1331C37.7765 39.256 37.7765 39.7128 37.7765 39.7128L37.677 41.2296C37.5776 41.3057 37.443 41.3994 37.3143 41.4872Z" fill="#F4D553"/>
<path d="M30.8322 45.3641C31.3294 45.3641 31.9496 45.3114 32.7277 45.165C35.9219 44.5677 37.3728 43.6424 37.3845 43.6307C37.4313 43.5955 37.4781 43.5663 37.519 43.537L37.3845 45.5339C37.3611 45.5515 37.3377 45.5632 37.3143 45.5808C37.0393 45.7682 35.4539 46.5763 32.7043 47.0917C30.6918 47.4665 29.7265 47.2088 29.3521 47.039V45.1181C29.6036 45.2411 30.0716 45.3641 30.8322 45.3641Z" fill="#4881D3"/>
<path d="M29.3462 48.9245V47.1794C29.6036 47.2848 30.0716 47.4136 30.8322 47.4136C31.3294 47.4136 31.9496 47.3609 32.7277 47.2145C35.7932 46.6406 37.2558 45.7622 37.3786 45.686L37.2558 47.4956C36.858 47.7357 35.2959 48.4853 32.7043 48.9713C30.6859 49.352 29.7206 49.0943 29.3462 48.9245Z" fill="#7BCEE0"/>
<path d="M30.8322 49.2877C31.3294 49.2877 31.9496 49.235 32.7277 49.0886C35.372 48.5966 36.817 47.8763 37.2499 47.6362L36.8931 53.0063C36.8638 53.4807 36.5654 53.8906 36.1325 54.078C34.9976 54.564 32.7745 55.4893 31.6103 55.8465C30.0073 56.3385 29.3521 55.5303 29.3521 55.5303V49.0534C29.6036 49.1647 30.0716 49.2877 30.8322 49.2877Z" fill="#4881D3"/>
<path d="M30.8322 43.3142C31.3294 43.3142 31.9496 43.2615 32.7277 43.1151C35.9219 42.5178 37.3728 41.5925 37.3845 41.5808C37.4956 41.5047 37.5951 41.4344 37.6594 41.3876L37.5249 43.3904C37.4664 43.4314 37.3962 43.4841 37.3143 43.5426C37.0393 43.73 35.4539 44.5382 32.7043 45.0535C30.6918 45.4283 29.7265 45.1706 29.3521 45.0008V43.08C29.6036 43.1913 30.0716 43.3142 30.8322 43.3142Z" fill="#F4D553"/>
<path d="M14.3947 36.5322C19.9163 36.8974 25.4503 36.8974 30.9719 36.5384L40.1168 35.938C41.0876 35.8761 41.9471 35.2819 42.3552 34.3906C43.7402 31.364 46.4113 23.9863 44.0803 16.2186C41.0258 6.08037 31.0337 -0.139964 22.3092 0.00239219C13.5847 -0.139964 4.02552 6.57552 0.977204 16.7137C-1.38478 24.5743 1.11942 31.7106 2.36842 34.533C2.71468 35.3129 3.46285 35.839 4.31613 35.8947L14.3947 36.5322Z" fill="#D0DDF1"/>
<path d="M7.84717 33.055L8.31709 34.918L9.23221 35.735L10.0979 35.7473L10.5987 35.2584L10.1968 33.0859L8.53969 31.9532L7.84717 33.055Z" stroke="#E4ECF8" stroke-width="0.2" stroke-miterlimit="10"/>
<path d="M10.7524 32.8444L11.1605 35.1407L12.1993 35.8958L13.3123 35.9081L14.0048 34.9302L13.6585 32.9434L11.8221 31.8046L10.7524 32.8444Z" stroke="#E4ECF8" stroke-width="0.2" stroke-miterlimit="10"/>
<path d="M14.1538 32.8875L14.5619 35.1838L15.477 36.0627L16.5282 36.0751L17.5917 35.159L17.3691 32.9927L15.7182 31.7301L14.1538 32.8875Z" stroke="#E4ECF8" stroke-width="0.2" stroke-miterlimit="10"/>
<path d="M18.0483 32.9371L18.1473 35.2272L19.4334 36.1123L20.67 36.1308L21.7273 35.3386L21.6964 32.8628L19.86 31.8478L18.0483 32.9371Z" stroke="#E4ECF8" stroke-width="0.2" stroke-miterlimit="10"/>
<path d="M22.1924 32.869L22.2233 35.2828L23.4538 36.1617L24.6286 36.1803L25.7477 35.5118L25.7168 33.0361L23.936 31.8972L22.1924 32.869Z" stroke="#E4ECF8" stroke-width="0.2" stroke-miterlimit="10"/>
<path d="M26.2729 33.0426L26.1802 35.3945L27.287 36.2115L28.5854 36.2301L29.5191 35.4998L29.6799 32.8383L28.2021 31.9532L26.2729 33.0426Z" stroke="#E4ECF8" stroke-width="0.2" stroke-miterlimit="10"/>
<path d="M30.1058 32.9066L29.9512 35.3824L31.1198 36.0756L32.2946 36.0941L33.2283 35.4195L33.5127 32.7024L32.2266 31.6935L30.1058 32.9066Z" stroke="#E4ECF8" stroke-width="0.2" stroke-miterlimit="10"/>
<path d="M33.8222 32.7701L33.5439 35.3016L34.2736 35.871L35.3865 35.8834L36.3882 34.9674L36.7345 32.374L35.7575 31.4332L33.8222 32.7701Z" stroke="#E4ECF8" stroke-width="0.2" stroke-miterlimit="10"/>
<path d="M37.0997 32.4978L36.7163 35.0354L37.1244 35.5987L38.0148 35.5925L38.8062 34.6888L39.3318 32.2193L38.7259 31.4703L37.0997 32.4978Z" stroke="#E4ECF8" stroke-width="0.2" stroke-miterlimit="10"/>
<path d="M39.6406 32.4109L39.0532 34.8743L39.3129 35.4066L40.4259 34.9733L41.4956 32.1819L40.9515 31.3092L39.6406 32.4109Z" stroke="#E4ECF8" stroke-width="0.2" stroke-miterlimit="10"/>
<path d="M41.8671 32.0643L42.6524 31.3215L42.7327 32.1385L41.8362 34.6019L41.2117 35.0909L40.9087 34.899V34.4657L41.8671 32.0643Z" stroke="#E4ECF8" stroke-width="0.2" stroke-miterlimit="10"/>
<path d="M7.2285 32.801L7.94575 35.0353L7.56239 35.5924H6.60399L5.90529 35.0725L5.37354 32.7762L5.88056 32.1016L7.2285 32.801Z" stroke="#E4ECF8" stroke-width="0.2" stroke-miterlimit="10"/>
<path d="M4.88527 32.5224L3.90214 31.8292L3.76611 32.6957L4.5452 34.9301L4.93474 35.3448H5.42939L5.53451 34.9425L4.88527 32.5224Z" stroke="#E4ECF8" stroke-width="0.2" stroke-miterlimit="10"/>
<path d="M2.66562 31.6871L3.39524 32.566L4.11249 34.7385L3.88371 35.2213L3.30867 34.7942L2.41211 32.2442L2.66562 31.6871Z" stroke="#E4ECF8" stroke-width="0.2" stroke-miterlimit="10"/>
<path d="M2.32584 31.7175L1.81264 28.8641L1.33653 28.239L1.13867 28.9817L1.77554 31.6494L2.13417 32.0269L2.32584 31.7175Z" stroke="#E4ECF8" stroke-width="0.2" stroke-miterlimit="10"/>
<path d="M2.63381 31.4149L2.12061 28.871L2.3803 27.8807L3.27686 29.0691L3.61076 31.4273L3.41908 32.1081L2.63381 31.4149Z" stroke="#E4ECF8" stroke-width="0.2" stroke-miterlimit="10"/>
<path d="M3.9216 31.3092L3.52588 29.0129L4.09473 27.905L5.18298 28.852L5.57252 31.5196L5.13351 32.2562L3.9216 31.3092Z" stroke="#E4ECF8" stroke-width="0.2" stroke-miterlimit="10"/>
<path d="M5.87392 31.4582L5.48438 28.9144L6.47987 27.8807L7.87109 28.9515L8.20498 31.3716L7.45681 32.4114L5.87392 31.4582Z" stroke="#E4ECF8" stroke-width="0.2" stroke-miterlimit="10"/>
<path d="M8.44669 31.3091L8.11279 29.019L9.47928 27.8616L11.4208 28.9385L11.7547 31.3586L10.45 32.516L8.44669 31.3091Z" stroke="#E4ECF8" stroke-width="0.2" stroke-miterlimit="10"/>
<path d="M11.9962 31.3648L11.6685 28.8829L13.2143 27.6636L15.2176 28.8086L15.3598 31.4081L13.814 32.5656L11.9962 31.3648Z" stroke="#E4ECF8" stroke-width="0.2" stroke-miterlimit="10"/>
<path d="M15.6686 31.2908L15.582 28.8151L17.4988 27.54L19.496 28.8708L19.5207 31.3465L17.6101 32.5535L15.6686 31.2908Z" stroke="#E4ECF8" stroke-width="0.2" stroke-miterlimit="10"/>
<path d="M19.8299 31.2909L19.8052 28.809L21.7838 27.4164L23.781 28.6233L23.7439 31.5323L21.8951 32.4298L19.8299 31.2909Z" stroke="#E4ECF8" stroke-width="0.2" stroke-miterlimit="10"/>
<path d="M24.1089 31.4704L24.1522 28.6295L26.1864 27.4783L28.0043 28.7409L28.0228 31.5942L26.1741 32.6155L24.1089 31.4704Z" stroke="#E4ECF8" stroke-width="0.2" stroke-miterlimit="10"/>
<path d="M28.3325 31.5324L28.4314 28.8091L30.4657 27.6022L32.0424 28.8029L32.0053 31.4643L30.2122 32.4918L28.3325 31.5324Z" stroke="#E4ECF8" stroke-width="0.2" stroke-miterlimit="10"/>
<path d="M32.2456 31.4023L32.3445 28.8027L34.2551 27.7196L35.77 28.9142L35.6154 31.2042L33.7667 32.3555L32.2456 31.4023Z" stroke="#E4ECF8" stroke-width="0.2" stroke-miterlimit="10"/>
<path d="M35.918 31.2721L36.0725 28.982L37.6864 27.707L38.5891 28.7716L38.4902 31.0617L37.0062 32.2748L35.918 31.2721Z" stroke="#E4ECF8" stroke-width="0.2" stroke-miterlimit="10"/>
<path d="M38.7383 31.1238L38.8929 28.8399L40.2532 27.7444L40.9148 28.7409L40.8158 31.0928L39.7029 32.0027L38.7383 31.1238Z" stroke="#E4ECF8" stroke-width="0.2" stroke-miterlimit="10"/>
<path d="M41.063 31.0993L41.2176 28.7473L42.2131 27.8313L42.7448 28.8278L42.5964 30.9941L41.6009 31.8482L41.063 31.0993Z" stroke="#E4ECF8" stroke-width="0.2" stroke-miterlimit="10"/>
<path d="M42.7754 31.0127L42.9918 28.7102L43.8265 27.8561L43.9688 28.9702L43.3937 31.1365L43.0165 31.5573L42.7754 31.0127Z" stroke="#E4ECF8" stroke-width="0.2" stroke-miterlimit="10"/>
<path d="M1.36676 24.4514L0.983398 25.256L1.14416 27.6699L1.69447 28.3569L2.00981 27.6204L1.91706 25.1384L1.36676 24.4514Z" stroke="#E4ECF8" stroke-width="0.2" stroke-miterlimit="10"/>
<path d="M2.28857 25.1446L2.38132 27.6204L3.2346 28.4993L3.80346 27.7008L3.71071 25.157L2.91308 24.3462L2.28857 25.1446Z" stroke="#E4ECF8" stroke-width="0.2" stroke-miterlimit="10"/>
<path d="M4.01904 25.1634L4.11179 27.701L5.27423 28.6418L6.21408 27.7877L6.18316 25.0024L4.89706 24.0616L4.01904 25.1634Z" stroke="#E4ECF8" stroke-width="0.2" stroke-miterlimit="10"/>
<path d="M6.47998 25.0085L6.5109 27.6699L7.93303 28.6169L9.18204 27.5152L9.15112 24.8537L7.49403 23.8448L6.47998 25.0085Z" stroke="#E4ECF8" stroke-width="0.2" stroke-miterlimit="10"/>
<path d="M9.39941 24.8537L9.43651 27.5151L11.3409 28.5302L12.8991 27.4966L12.9238 24.7732L10.9576 23.6344L9.39941 24.8537Z" stroke="#E4ECF8" stroke-width="0.2" stroke-miterlimit="10"/>
<path d="M13.1707 24.7737L13.146 27.3732L15.4214 28.5121L17.2269 27.299L17.1898 24.7613L15.0442 23.4987L13.1707 24.7737Z" stroke="#E4ECF8" stroke-width="0.2" stroke-miterlimit="10"/>
<path d="M17.4368 24.761L17.4121 27.2367L19.6257 28.5056L21.6785 27.1006L21.5858 24.6867L19.4958 23.4241L17.4368 24.761Z" stroke="#E4ECF8" stroke-width="0.2" stroke-miterlimit="10"/>
<path d="M21.8945 24.6307L21.9873 27.0446L24.0772 28.2453L26.0064 27.0941L26.0373 24.5565L24.0092 23.4176L21.8945 24.6307Z" stroke="#E4ECF8" stroke-width="0.2" stroke-miterlimit="10"/>
<path d="M26.4084 24.6186L26.3774 27.0944L28.2819 28.4808L30.3347 27.2677L30.3656 24.6063L28.3993 23.4674L26.4084 24.6186Z" stroke="#E4ECF8" stroke-width="0.2" stroke-miterlimit="10"/>
<path d="M30.6754 24.6064L30.6445 27.206L32.3264 28.4748L34.1195 27.4226L34.1999 24.6498L32.5428 23.3933L30.6754 24.6064Z" stroke="#E4ECF8" stroke-width="0.2" stroke-miterlimit="10"/>
<path d="M34.4906 24.718L34.4658 27.4413L36.0364 28.5368L37.6316 27.4165L37.7862 24.817L36.5001 23.4987L34.4906 24.718Z" stroke="#E4ECF8" stroke-width="0.2" stroke-miterlimit="10"/>
<path d="M38.0945 24.8165L37.9399 27.416L38.818 28.5363L40.1164 27.2984L40.3638 24.8227L39.529 23.6591L38.0945 24.8165Z" stroke="#E4ECF8" stroke-width="0.2" stroke-miterlimit="10"/>
<path d="M40.6117 24.885L40.3521 27.3237L41.1682 28.413L42.207 27.3422L42.3616 24.8046L41.8113 24.0557L40.6117 24.885Z" stroke="#E4ECF8" stroke-width="0.2" stroke-miterlimit="10"/>
<path d="M42.5903 24.8848L42.4048 27.3606L42.9613 28.4128L43.8145 27.4224L44.0124 25.0705L43.4188 24.074L42.5903 24.8848Z" stroke="#E4ECF8" stroke-width="0.2" stroke-miterlimit="10"/>
<path d="M1.18053 20.2736L1.42167 20.8925L1.37839 23.6777L0.988847 24.5999L0.753886 23.8572L0.679688 20.7563L1.18053 20.2736Z" stroke="#E4ECF8" stroke-width="0.2" stroke-miterlimit="10"/>
<path d="M1.67007 20.6512L1.62061 23.8078L2.10289 24.7424L2.60992 23.8202L2.78923 20.4841L2.17709 19.8528L1.67007 20.6512Z" stroke="#E4ECF8" stroke-width="0.2" stroke-miterlimit="10"/>
<path d="M3.03579 20.4221L2.98633 23.6406L3.83961 24.5195L4.71762 23.6654L4.77327 20.2612L3.85816 19.3204C3.85816 19.3266 3.09144 20.3726 3.03579 20.4221Z" stroke="#E4ECF8" stroke-width="0.2" stroke-miterlimit="10"/>
<path d="M5.0773 20.2736L5.02783 23.6778L6.31394 24.501L7.56295 23.4673L7.6186 20.0632L6.27066 19.1162L5.0773 20.2736Z" stroke="#E4ECF8" stroke-width="0.2" stroke-miterlimit="10"/>
<path d="M7.86522 20.0077L7.80957 23.4118L9.40484 24.4269L11.1547 23.09L11.2103 19.6858L9.49758 18.6708L7.86522 20.0077Z" stroke="#E4ECF8" stroke-width="0.2" stroke-miterlimit="10"/>
<path d="M11.458 19.6919L11.4023 23.0342L13.1769 24.2411L15.1741 23.0961L15.2297 19.6919L13.3315 18.485L11.458 19.6919Z" stroke="#E4ECF8" stroke-width="0.2" stroke-miterlimit="10"/>
<path d="M15.6011 19.6982L15.5454 23.1023L17.3262 24.0555L19.5088 23.0404L19.5583 19.6363L17.5426 18.3674L15.6011 19.6982Z" stroke="#E4ECF8" stroke-width="0.2" stroke-miterlimit="10"/>
<path d="M20.0586 19.5806L20.0029 22.9848L21.9012 23.9441L23.9602 22.861L24.0158 19.3949L21.9321 18.1261L20.0586 19.5806Z" stroke="#E4ECF8" stroke-width="0.2" stroke-miterlimit="10"/>
<path d="M24.3867 19.3391L24.3311 22.8671L26.3591 23.7645L28.2265 22.9909L28.2821 19.401L26.4457 18.1941L24.3867 19.3391Z" stroke="#E4ECF8" stroke-width="0.2" stroke-miterlimit="10"/>
<path d="M28.7143 19.3451L28.6587 22.9969L30.6559 24.1419L32.6159 23.0588L32.6716 19.3451L30.8352 18.3301L28.7143 19.3451Z" stroke="#E4ECF8" stroke-width="0.2" stroke-miterlimit="10"/>
<path d="M33.0434 19.3514L32.9878 23.0032L34.4903 24.3277L36.3824 23.2446L36.4442 19.6547L34.6634 18.6396L33.0434 19.3514Z" stroke="#E4ECF8" stroke-width="0.2" stroke-miterlimit="10"/>
<path d="M36.7539 19.6612L36.6982 23.1891L38.0153 24.3899L39.4745 23.4181L39.5301 19.8902L38.1266 18.937L36.7539 19.6612Z" stroke="#E4ECF8" stroke-width="0.2" stroke-miterlimit="10"/>
<path d="M39.839 19.958L39.7896 23.2384L40.5501 24.4515L41.8238 23.5169L41.8795 19.989L40.9025 19.2339L39.839 19.958Z" stroke="#E4ECF8" stroke-width="0.2" stroke-miterlimit="10"/>
<path d="M42.1889 20.0569L42.1333 23.5229L42.5909 24.5751L43.5492 23.7891L43.6049 20.3911L42.9989 19.636L42.1889 20.0569Z" stroke="#E4ECF8" stroke-width="0.2" stroke-miterlimit="10"/>
<path d="M43.7651 20.4902V23.7705L44.0125 24.7608L44.6926 23.8943V20.7996L44.3216 19.8093L43.7651 20.4902Z" stroke="#E4ECF8" stroke-width="0.2" stroke-miterlimit="10"/>
<path d="M1.07031 19.5867L1.49077 20.2737L2.05962 19.5433L2.60375 16.4548L2.17711 16.0154L1.49077 16.6838L1.07031 19.5867Z" stroke="#E4ECF8" stroke-width="0.2" stroke-miterlimit="10"/>
<path d="M2.85711 19.9889L2.31299 19.4257L2.91276 16.3372L3.61146 15.4211L4.15558 16.1082L3.73512 19.0729L2.85711 19.9889Z" stroke="#E4ECF8" stroke-width="0.2" stroke-miterlimit="10"/>
<path d="M3.98828 19.0173L4.52622 16.1145L5.65775 14.8951L6.4492 15.5884L6.09057 18.7388L5.08889 19.7786L3.98828 19.0173Z" stroke="#E4ECF8" stroke-width="0.2" stroke-miterlimit="10"/>
<path d="M6.40625 18.6826L6.75869 15.656L8.44671 14.4429L9.78846 15.7055L9.56586 18.237L7.748 19.5739L6.40625 18.6826Z" stroke="#E4ECF8" stroke-width="0.2" stroke-miterlimit="10"/>
<path d="M9.86963 18.3673L10.0366 15.7059L11.7308 14.1276L13.3199 15.4521L13.2766 17.9897L11.5267 19.2586L9.86963 18.3673Z" stroke="#E4ECF8" stroke-width="0.2" stroke-miterlimit="10"/>
<path d="M13.5835 18.0518L13.6268 15.3965L15.6301 13.8182L17.5222 15.3346L17.4851 17.928L15.4817 19.1968L13.5835 18.0518Z" stroke="#E4ECF8" stroke-width="0.2" stroke-miterlimit="10"/>
<path d="M17.8574 17.9341L17.8945 15.3345L19.7742 13.88L21.6725 15.2107L21.6292 17.7484L19.8793 19.1472L17.8574 17.9341Z" stroke="#E4ECF8" stroke-width="0.2" stroke-miterlimit="10"/>
<path d="M22.001 17.6927L22.0443 15.1551L23.9858 13.7625L26.0633 14.9694L26.0201 17.7546L24.2702 18.9058L22.001 17.6927Z" stroke="#E4ECF8" stroke-width="0.2" stroke-miterlimit="10"/>
<path d="M26.458 17.6364L26.4951 14.9812L28.1275 13.7681L30.2112 14.9131L30.1617 17.9459L28.5974 18.9115L26.458 17.6364Z" stroke="#E4ECF8" stroke-width="0.2" stroke-miterlimit="10"/>
<path d="M30.5952 17.8289L30.6447 14.858L32.2709 13.8306L34.0454 14.9756L34.3051 18.1384L32.7408 18.9801L30.5952 17.8289Z" stroke="#E4ECF8" stroke-width="0.2" stroke-miterlimit="10"/>
<path d="M34.6134 18.1382L34.4155 14.9198L35.85 14.1399L37.6865 15.3406L37.8843 18.3796L36.5735 19.2833L34.6134 18.1382Z" stroke="#E4ECF8" stroke-width="0.2" stroke-miterlimit="10"/>
<path d="M38.1324 18.3179L37.9346 15.347L38.9981 14.499L40.3398 15.6317L40.785 18.6088L39.7833 19.4629L38.1324 18.3179Z" stroke="#E4ECF8" stroke-width="0.2" stroke-miterlimit="10"/>
<path d="M40.7104 15.6377L41.032 18.6148L41.9471 19.6175L42.7571 19.0728L42.3057 16.2814L41.3968 15.1549L40.7104 15.6377Z" stroke="#E4ECF8" stroke-width="0.2" stroke-miterlimit="10"/>
<path d="M42.6152 16.2879L43.0048 19.0793L43.6726 20.0201L44.1178 19.2217L43.79 16.616L42.9986 15.6133L42.6152 16.2879Z" stroke="#E4ECF8" stroke-width="0.2" stroke-miterlimit="10"/>
<path d="M2.30713 15.7062L2.67194 16.1457L3.48812 15.2915L4.39705 12.7725L4.03224 12.333L3.28407 12.8158L2.30713 15.7062Z" stroke="#E4ECF8" stroke-width="0.2" stroke-miterlimit="10"/>
<path d="M3.79688 15.1737L4.58214 12.7722L5.46015 11.7324L5.94244 12.5494L5.41687 14.7033L4.47084 15.805L3.79688 15.1737Z" stroke="#E4ECF8" stroke-width="0.2" stroke-miterlimit="10"/>
<path d="M5.66455 14.7093L6.25195 12.4935L7.94615 11.0947L8.86126 11.9736L8.39134 14.1337L6.70333 15.3468L5.66455 14.7093Z" stroke="#E4ECF8" stroke-width="0.2" stroke-miterlimit="10"/>
<path d="M8.69971 14.2016L9.16963 11.9796L10.9195 10.7046L12.1438 11.7197L11.7357 13.6941L9.97963 15.2724L8.69971 14.2016Z" stroke="#E4ECF8" stroke-width="0.2" stroke-miterlimit="10"/>
<path d="M12.0459 13.6947L12.3303 11.7203L13.9565 10.3834L15.6074 11.5285L15.5147 13.3791L13.5113 14.9574L12.0459 13.6947Z" stroke="#E4ECF8" stroke-width="0.2" stroke-miterlimit="10"/>
<path d="M16.0083 13.3289L16.0392 11.534L17.9807 10.0176L19.6317 11.2183L19.5946 13.4465L17.7829 14.8391L16.0083 13.3289Z" stroke="#E4ECF8" stroke-width="0.2" stroke-miterlimit="10"/>
<path d="M19.9663 13.3912L20.0034 11.2249L22.0686 9.83228L23.8988 11.1011L23.8617 13.3912L21.8646 14.7838L19.9663 13.3912Z" stroke="#E4ECF8" stroke-width="0.2" stroke-miterlimit="10"/>
<path d="M24.1694 13.3972L24.2684 11.1072L25.9564 9.89404L27.6753 10.8472L27.7557 13.4529L26.2532 14.6042L24.1694 13.3972Z" stroke="#E4ECF8" stroke-width="0.2" stroke-miterlimit="10"/>
<path d="M28.1331 13.3972L28.1084 10.7977L29.8582 9.89404L31.5092 10.8472L31.8369 13.5148L30.3344 14.6042L28.1331 13.3972Z" stroke="#E4ECF8" stroke-width="0.2" stroke-miterlimit="10"/>
<path d="M32.1467 13.4593L31.8809 10.9155L33.1299 10.0056L35.0899 11.2806L35.665 13.8864L34.1686 14.6662L32.1467 13.4593Z" stroke="#E4ECF8" stroke-width="0.2" stroke-miterlimit="10"/>
<path d="M35.3374 11.3421L35.9186 13.8302L37.7488 15.0929L38.8804 14.2449L38.0518 11.6949L36.4009 10.4941L35.3374 11.3421Z" stroke="#E4ECF8" stroke-width="0.2" stroke-miterlimit="10"/>
<path d="M38.2983 11.7016L39.0651 14.1897L40.4686 15.4462L41.2786 14.8396L40.2708 12.1039L38.929 11.0889L38.2983 11.7016Z" stroke="#E4ECF8" stroke-width="0.2" stroke-miterlimit="10"/>
<path d="M40.519 12.1038L41.5269 14.9076L42.374 15.9722L42.881 15.3037L41.9288 12.8713L40.8962 11.7386L40.519 12.1038Z" stroke="#E4ECF8" stroke-width="0.2" stroke-miterlimit="10"/>
<path d="M4.15576 12.0848L4.39691 12.4624L5.4666 11.4844L6.29515 9.76999L5.87469 9.20056L5.05851 9.80712L4.15576 12.0848Z" stroke="#E4ECF8" stroke-width="0.2" stroke-miterlimit="10"/>
<path d="M5.89941 11.4974L6.61048 9.64673L8.05117 8.18604L8.72514 8.94114L8.13773 10.6618L6.19621 12.1782L5.89941 11.4974Z" stroke="#E4ECF8" stroke-width="0.2" stroke-miterlimit="10"/>
<path d="M8.38477 10.7913L8.97217 8.94072L10.7282 7.42432L11.7608 8.37129L10.9261 10.4571L9.05255 11.6702L8.38477 10.7913Z" stroke="#E4ECF8" stroke-width="0.2" stroke-miterlimit="10"/>
<path d="M11.1733 10.4636L12.0081 8.30968L13.5168 7.03467L14.7967 8.04354L14.0856 10.1417L12.2678 11.4106L11.1733 10.4636Z" stroke="#E4ECF8" stroke-width="0.2" stroke-miterlimit="10"/>
<path d="M15.1061 7.98733L14.395 10.1412L15.7986 11.2801L17.9256 9.6399L18.2657 7.5417L16.9178 6.71851L15.1061 7.98733Z" stroke="#E4ECF8" stroke-width="0.2" stroke-miterlimit="10"/>
<path d="M18.4511 7.54823L18.1729 9.58454L19.8238 10.9091L21.9446 9.52265L22.0373 7.60394L20.3246 6.4032L18.4511 7.54823Z" stroke="#E4ECF8" stroke-width="0.2" stroke-miterlimit="10"/>
<path d="M22.2848 7.61009L22.1982 9.46072L24.0285 10.7914L25.7783 9.7083L25.8092 7.6658L24.0347 6.39697L22.2848 7.61009Z" stroke="#E4ECF8" stroke-width="0.2" stroke-miterlimit="10"/>
<path d="M26.0562 7.66551L26.0871 9.64612L27.806 10.5436L29.5497 9.63993L29.2158 7.40556L27.6205 6.45239L26.0562 7.66551Z" stroke="#E4ECF8" stroke-width="0.2" stroke-miterlimit="10"/>
<path d="M29.4019 7.35013L29.8594 9.5845L31.702 10.6676L32.951 9.88159L32.4873 7.89479L30.7127 6.74976L29.4019 7.35013Z" stroke="#E4ECF8" stroke-width="0.2" stroke-miterlimit="10"/>
<path d="M32.6724 7.89506L33.1361 9.75806L35.158 11.0331L36.2833 10.3089L35.7516 8.43972L33.8595 7.1709L32.6724 7.89506Z" stroke="#E4ECF8" stroke-width="0.2" stroke-miterlimit="10"/>
<path d="M35.8755 8.43948L36.4691 10.2468L38.12 11.5094L38.8063 10.841L38.1014 8.78608L36.6917 7.901L35.8755 8.43948Z" stroke="#E4ECF8" stroke-width="0.2" stroke-miterlimit="10"/>
<path d="M38.2808 8.85394L38.9918 10.785L40.3398 11.8558L40.7788 11.4287L40.0059 9.55953L38.9671 8.55066L38.2808 8.85394Z" stroke="#E4ECF8" stroke-width="0.2" stroke-miterlimit="10"/>
<path d="M5.05811 8.85424C5.05811 8.85424 7.84054 5.82763 22.6802 5.93904C37.5199 6.05045 40.3642 9.03992 40.3642 9.03992" stroke="#C1D1E9" stroke-width="0.2" stroke-miterlimit="10"/>
<path d="M20.5347 4.79427L21.456 5.48748L23.4964 5.52461L24.1828 4.97376L24.1457 3.42641L22.6741 2.78271L20.8067 3.43879L20.5347 4.79427Z" stroke="#E4ECF8" stroke-width="0.2" stroke-miterlimit="10"/>
<path d="M24.5784 3.55622L24.5537 5.04167L25.7162 5.67918L26.7673 5.69775L27.8926 5.15927L27.7257 3.79142L26.1304 2.96204L24.5784 3.55622Z" stroke="#E4ECF8" stroke-width="0.2" stroke-miterlimit="10"/>
<path d="M28.0347 3.8654L28.1336 5.16518L28.9931 5.67271L30.3534 5.81506L31.2252 5.33229L31.1819 4.28009L29.8958 3.5188L28.0347 3.8654Z" stroke="#E4ECF8" stroke-width="0.2" stroke-miterlimit="10"/>
<path d="M31.5221 4.47867L31.5098 5.34518L32.5114 6.10029L34.0572 6.31073L34.7436 5.95174L34.8116 5.3328L33.2843 4.37964L31.5221 4.47867Z" stroke="#E4ECF8" stroke-width="0.2" stroke-miterlimit="10"/>
<path d="M35.0467 5.38833L34.9849 6.01346L35.5413 6.62621L37.149 6.99757L36.846 5.92062L36.1102 5.3512L35.0467 5.38833Z" stroke="#E4ECF8" stroke-width="0.2" stroke-miterlimit="10"/>
<path d="M20.3118 3.54971L20.1078 4.72569L19.0442 5.51175L17.1831 5.54269L16.5771 4.79378L16.9049 3.62398L18.5867 2.84412L20.3118 3.54971Z" stroke="#E4ECF8" stroke-width="0.2" stroke-miterlimit="10"/>
<path d="M16.5338 3.61808L16.2679 4.84977L15.5136 5.64201L13.8441 5.74104L13.4175 5.3016L13.9369 3.88423L15.3034 3.22815L16.5338 3.61808Z" stroke="#E4ECF8" stroke-width="0.2" stroke-miterlimit="10"/>
<path d="M13.5598 4.00141L13.1084 5.48067L12.6076 5.84584L11.3029 6.13056L10.8145 5.8149L11.3895 4.65129L12.6385 3.80334L13.5598 4.00141Z" stroke="#E4ECF8" stroke-width="0.2" stroke-miterlimit="10"/>
<path d="M10.9511 4.70102L10.4379 5.87082L9.4424 6.60117L8.32324 6.83017L8.45309 6.27313L9.32492 5.14047L10.5245 4.57104L10.9511 4.70102Z" stroke="#E4ECF8" stroke-width="0.2" stroke-miterlimit="10"/>
<path d="M22.8467 2.48538L24.2874 3.25905L25.8146 2.72676L25.827 1.92214L24.3925 1.21655L22.9951 1.80455L22.8467 2.48538Z" stroke="#E4ECF8" stroke-width="0.2" stroke-miterlimit="10"/>
<path d="M26.0934 1.92856L26.0811 2.73318L27.8742 3.59351L29.4818 3.28404L29.2345 2.23184L27.6207 1.46436L26.0934 1.92856Z" stroke="#E4ECF8" stroke-width="0.2" stroke-miterlimit="10"/>
<path d="M29.4819 2.23165L29.7911 3.22195L31.3987 4.08847L32.5735 3.90278L31.8254 2.54112L30.5145 1.95312L29.4819 2.23165Z" stroke="#E4ECF8" stroke-width="0.2" stroke-miterlimit="10"/>
<path d="M22.5325 1.86017L22.4521 2.47911L20.5167 3.22184L19.2183 2.54101L19.4347 1.73638L20.8259 1.26599L22.5325 1.86017Z" stroke="#E4ECF8" stroke-width="0.2" stroke-miterlimit="10"/>
<path d="M19.1002 1.79211L18.958 2.47295L16.8063 3.34565L15.9839 2.78242L16.1941 1.98398L17.7214 1.45789L19.1002 1.79211Z" stroke="#E4ECF8" stroke-width="0.2" stroke-miterlimit="10"/>
<path d="M15.8602 2.10149L15.4521 2.89374L13.7208 3.60552L13.0654 3.28367L13.6528 2.29336L14.704 1.86011L15.8602 2.10149Z" stroke="#E4ECF8" stroke-width="0.2" stroke-miterlimit="10"/>
<path d="M13.0838 2.60291L12.7252 3.40753L11.2412 4.45972L10.561 4.21215L12.4778 2.85048L13.0838 2.60291Z" stroke="#E4ECF8" stroke-width="0.2" stroke-miterlimit="10"/>
<path d="M32.0171 2.54089L33.0682 3.96445L34.9232 5.07854H36.0362L32.0171 2.54089Z" stroke="#E4ECF8" stroke-width="0.2" stroke-miterlimit="10"/>
<path d="M18.2529 1.27828L19.1742 1.54442L20.5654 1.14211L20.5778 0.646963L19.403 0.436523L18.2653 0.78313L18.2529 1.27828Z" stroke="#E4ECF8" stroke-width="0.2" stroke-miterlimit="10"/>
<path d="M20.8444 0.590909L20.832 1.02417L22.6684 1.61216L24.1339 1.02417L24.14 0.590909L22.4335 0.188599L20.8444 0.590909Z" stroke="#E4ECF8" stroke-width="0.2" stroke-miterlimit="10"/>
<path d="M24.4728 0.597448L24.4604 0.968811L25.9011 1.68059L27.2924 1.27209L27.3047 0.838834L25.9568 0.436523L24.4728 0.597448Z" stroke="#E4ECF8" stroke-width="0.2" stroke-miterlimit="10"/>
<path d="M27.5033 0.907349L27.4971 1.15492L28.9996 1.99049L30.5145 1.82957L29.9765 1.61294L29.1109 1.36536L27.5033 0.907349Z" stroke="#E4ECF8" stroke-width="0.2" stroke-miterlimit="10"/>
<path d="M17.8639 0.900879V1.14845L16.0027 1.79215L15.2793 1.65598L16.2068 1.2413L17.8639 0.900879Z" stroke="#E4ECF8" stroke-width="0.2" stroke-miterlimit="10"/>
</svg>
