<svg width="29" height="29" viewBox="0 0 29 29" fill="none" xmlns="http://www.w3.org/2000/svg">
<path d="M29 14.5C29 21.7375 23.6973 27.7363 16.7656 28.8238V18.6914H20.1442L20.7871 14.5H16.7656V11.7801C16.7656 10.6331 17.3275 9.51562 19.1287 9.51562H20.957V5.94727C20.957 5.94727 19.2975 5.66406 17.711 5.66406C14.3992 5.66406 12.2344 7.67141 12.2344 11.3055V14.5H8.55273V18.6914H12.2344V28.8238C5.3027 27.7363 0 21.7375 0 14.5C0 6.49215 6.49215 0 14.5 0C22.5079 0 29 6.49215 29 14.5Z" fill="#1877F2"/>
<path d="M20.1442 18.6914L20.7871 14.5H16.7656V11.7801C16.7656 10.6334 17.3274 9.51562 19.1286 9.51562H20.957V5.94727C20.957 5.94727 19.2977 5.66406 17.7112 5.66406C14.3991 5.66406 12.2344 7.67141 12.2344 11.3055V14.5H8.55273V18.6914H12.2344V28.8238C12.9726 28.9396 13.7292 29 14.5 29C15.2708 29 16.0274 28.9396 16.7656 28.8238V18.6914H20.1442Z" fill="white"/>
</svg>
