<svg width="333" height="406" viewBox="0 0 333 406" fill="none" xmlns="http://www.w3.org/2000/svg">
<path d="M333 148.222C333 66.3778 258.437 0 166.5 0C74.563 0 0 66.3778 0 148.222C0 188.178 18.0978 224.911 47.0543 251.333C46.3304 252.622 45.6064 253.911 45.6064 255.2V306.111C45.6064 308.044 46.3303 309.978 47.7781 310.622C49.2259 311.911 51.3978 312.556 53.5695 311.911C53.5695 311.911 83.2499 309.333 106.415 327.378C125.237 342.2 133.924 366.689 133.924 399.556C133.924 403.422 136.82 406 141.163 406H191.113C195.456 406 198.352 403.422 198.352 399.556C198.352 366.044 207.763 342.2 225.861 327.378C248.302 309.333 277.983 311.911 278.707 311.911C280.878 311.911 283.05 311.267 284.498 310.622C285.946 309.333 286.669 307.4 286.669 306.111V255.2C286.669 253.911 285.946 252.622 285.222 251.333C314.902 224.911 333 188.178 333 148.222ZM166.5 12.8889C250.474 12.8889 318.522 73.4667 318.522 148.222C318.522 222.978 250.474 283.556 166.5 283.556C82.5261 283.556 14.4783 222.978 14.4783 148.222C14.4783 73.4667 82.5261 12.8889 166.5 12.8889ZM217.174 318.356C196.904 334.467 185.322 360.244 184.598 393.756H149.126C147.678 359.6 136.819 334.467 116.55 318.356C96.2803 302.244 73.1152 299.667 60.8087 299.667V262.289C89.7652 283.556 126.685 296.444 167.224 296.444C207.763 296.444 244.683 283.556 273.639 262.289V299.667C260.609 299.667 236.72 302.244 217.174 318.356Z" fill="black"/>
<path d="M63.7055 125.666C67.3251 128.244 71.6686 128.888 76.0121 128.888C82.5273 128.888 89.0425 126.311 93.386 120.511C99.9012 112.133 97.7294 99.8884 88.3185 94.0884C83.975 90.8662 78.1839 90.2217 72.3926 90.8662C66.6012 91.5106 61.5337 94.7328 58.638 98.5995C55.7424 102.466 54.2945 107.622 55.0185 112.777C55.7424 118.577 59.362 123.088 63.7055 125.666ZM70.2207 106.333C70.9446 105.044 73.1164 104.4 74.5642 103.755C75.2881 103.755 75.2882 103.755 76.0121 103.755C77.4599 103.755 78.9076 104.399 80.3554 105.044C83.2511 106.977 83.9751 110.844 81.8033 113.422C79.6316 116 75.2882 116.644 72.3926 114.711C70.9447 114.066 70.2206 112.133 69.4967 110.844C68.7728 109.555 69.4968 108.266 70.2207 106.333Z" fill="black"/>
<path d="M63.704 212.022C67.3235 214.6 71.6671 215.244 76.0106 215.244C82.5258 215.244 89.041 212.667 93.3844 206.867C99.8996 198.489 97.7278 186.244 88.3169 180.444C83.9735 177.222 78.1823 176.578 72.391 177.222C66.5997 177.867 61.5321 181.089 58.6365 184.955C55.0169 188.822 54.293 193.978 55.0169 199.133C55.7408 204.933 59.3605 208.8 63.704 212.022ZM70.2191 192.689C70.943 191.4 73.1148 190.755 74.5626 190.111C75.2866 190.111 75.2866 190.111 76.0106 190.111C77.4584 190.111 78.906 190.755 80.3539 191.4C83.2495 193.333 83.9735 197.2 81.8018 199.778C79.63 202.355 75.2867 203 72.391 201.067C70.9432 200.422 70.2191 198.489 69.4952 197.2C68.7713 195.911 69.4952 193.978 70.2191 192.689Z" fill="black"/>
<path d="M66.601 153.378C66.601 143.067 57.1902 134.044 44.8836 134.044C32.5771 134.044 23.1663 142.422 23.1663 153.378C23.1663 163.689 32.5771 172.711 44.8836 172.711C57.1902 172.711 66.601 163.689 66.601 153.378ZM45.6076 159.178C41.988 159.178 38.3685 156.6 38.3685 152.733C38.3685 149.511 41.2641 146.289 45.6076 146.289C49.9511 146.289 52.8467 148.867 52.8467 152.733C52.1228 156.6 49.2272 159.178 45.6076 159.178Z" fill="black"/>
<path d="M85.4219 153.378C85.4219 163.689 94.8327 172.711 107.139 172.711C119.446 172.711 128.857 164.333 128.857 153.378C128.857 143.067 119.446 134.044 107.139 134.044C94.8327 134.044 85.4219 143.067 85.4219 153.378ZM107.139 146.933C110.759 146.933 114.378 149.511 114.378 153.378C114.378 156.6 111.483 159.822 107.139 159.822C103.52 159.822 99.9001 157.244 99.9001 153.378C99.9001 150.156 103.52 146.933 107.139 146.933Z" fill="black"/>
</svg>
