<svg width="250" height="642" viewBox="0 0 250 642" fill="none" xmlns="http://www.w3.org/2000/svg">
<rect x="117" y="336" width="18" height="306" fill="#B1C3DE"/>
<g clip-path="url(#clip0)">
<path d="M212.717 149.084L212.546 150.737L205.778 155.524L180.699 161.034H171.079H163.521L164.208 154.147L186.195 156.213L201.655 151.047L212.717 149.084Z" fill="#8391A4"/>
<path d="M213.542 137.307L213.301 139.648L202.342 146.57L183.791 149.67L173.828 150.014L164.895 149.67V139.683L183.791 142.782L199.594 140.716L213.542 137.307Z" fill="#8391A4"/>
<path d="M214.546 122.007L214.057 128.422L193.066 139.339L167.644 139.683L163.521 136.239L164.552 129.352L204.747 126.252L214.546 122.007Z" fill="#8391A4"/>
<path d="M215.363 109.825L214.779 117.884C214.779 117.884 182.416 127.63 182.073 127.63C181.729 127.63 164.895 126.252 164.895 126.252V119.02L191.692 116.61L215.363 109.825Z" fill="#6D5F23"/>
<path d="M147.031 87.6821C147.031 87.6821 186.436 86.4768 212.202 97.4624C216.771 99.3909 215.569 104.281 215.397 106.967L161.116 117.987L147.031 87.6821Z" fill="#FFFB96"/>
<path d="M38.0575 149.773L38.2293 151.426L44.9972 156.213L70.0762 161.723H79.6955H87.2536L86.5665 154.835L64.5794 156.902L49.1198 151.736L38.0575 149.773Z" fill="#8391A4"/>
<path d="M37.233 137.995L37.4735 140.337L48.4327 147.259L66.9843 150.359L76.9472 150.703L85.8795 150.359V140.372L66.9843 143.471L51.1811 141.405L37.233 137.995Z" fill="#8391A4"/>
<path d="M36.3054 124.806L36.7177 129.11L57.7085 140.027L83.131 140.372L87.2536 136.928L86.223 130.04L46.0278 126.941L36.3054 124.806Z" fill="#8391A4"/>
<path d="M35.4122 110.514L35.9963 118.573C35.9963 118.573 68.3585 128.318 68.702 128.318C69.0456 128.318 85.8794 126.941 85.8794 126.941V119.709L59.0827 117.298L35.4122 110.514Z" fill="#6D5F23"/>
<path d="M126.074 213.999L80.3826 213.035C80.3826 213.035 93.7809 227.154 95.4987 247.128C97.2164 267.102 95.4987 293.274 99.2777 304.295C103.057 315.315 117.046 352.507 117.046 352.507H122.639H129.51H134.546C134.546 352.507 149.092 315.315 152.871 304.295C156.65 293.274 154.933 267.102 156.65 247.128C158.368 227.154 171.766 213.035 171.766 213.035L126.074 213.999Z" fill="#B1C3DE"/>
<path d="M42.2488 188.584C42.2488 188.584 78.6649 214.068 127.105 212.691C171.457 211.416 200.865 195.747 209.9 187.551L42.2488 188.584Z" fill="#B1C3DE"/>
<path d="M42.2488 187.551L43.9665 200.982C43.9665 200.982 72.2062 224.089 130.884 221.989C189.562 219.888 209.9 198.915 209.9 198.915V187.551C209.9 187.551 175.889 212.346 127.449 211.657C70.0762 210.865 42.2488 187.551 42.2488 187.551Z" fill="#B1C3DE"/>
<path d="M103.744 88.3708C103.744 88.3708 64.3389 87.1655 38.5728 98.1511C34.0036 100.08 35.206 104.97 35.3778 107.656L89.6584 118.676L103.744 88.3708Z" fill="#FFFB96"/>
<path d="M77.806 102.318C77.806 102.318 128.479 117.299 175.889 100.424L176.061 91.4703L77.4624 93.02L77.806 102.318Z" fill="#A7B8CF"/>
<path d="M128.651 86.4769C127.792 86.4425 96.9761 84.9616 78.3901 92.5379C77.7374 92.8134 77.8061 93.7432 78.4932 93.9154C87.9751 96.326 129.407 106.003 175.58 92.469C176.233 92.2624 176.301 91.367 175.649 91.0915C172.282 89.6107 161.632 86.2358 128.72 86.4769C128.651 86.4769 128.651 86.4769 128.651 86.4769Z" fill="#B1C3DE"/>
<path d="M103.572 82L103.916 94.0532C103.916 94.0532 125.559 99.9076 149.951 94.0532V82.3444L103.572 82Z" fill="#A7B8CF"/>
<path d="M84.1616 109.171L91.7197 100.803H160.086L166.27 109.171C166.27 109.171 84.4365 109.171 84.1616 109.171Z" fill="#B1C3DE"/>
<path d="M37.714 114.957C39.3287 116.059 48.6389 120.811 64.7856 123.842C76.6037 126.046 82.2723 124.53 84.471 123.532V112.787L82.1005 113.166C79.3521 113.614 76.535 113.682 73.7523 113.373L71.4161 113.132C39.1226 109.343 35.8589 101.113 35.8589 101.113C35 101.836 35 104.522 35 104.522L35.584 113.441C36.2024 113.889 36.9582 114.44 37.714 114.957Z" fill="#F4D553"/>
<path d="M75.7792 137.754C72.859 137.754 69.2174 137.444 64.6482 136.584C45.8905 133.071 37.3705 127.63 37.3018 127.561C37.0269 127.354 36.7521 127.182 36.5116 127.01L37.3018 138.753C37.4392 138.856 37.5766 138.925 37.714 139.029C39.3287 140.131 48.6388 144.883 64.7856 147.914C76.6037 150.118 82.2722 148.602 84.4709 147.604V136.308C82.9937 137.031 80.2453 137.754 75.7792 137.754Z" fill="#D0DDF1"/>
<path d="M84.5052 158.692V148.43C82.9936 149.05 80.2452 149.808 75.7791 149.808C72.8589 149.808 69.2173 149.498 64.6481 148.637C46.6462 145.262 38.0575 140.096 37.3361 139.648L38.0575 150.29C40.3936 151.702 49.5664 156.11 64.7856 158.968C76.638 161.206 82.3065 159.691 84.5052 158.692Z" fill="#D0DDF1"/>
<path d="M75.7792 160.828C72.859 160.828 69.2174 160.518 64.6482 159.657C49.1198 156.764 40.6342 152.528 38.0919 151.116L40.1876 182.695C40.3593 185.485 42.1114 187.896 44.6537 188.998C51.3185 191.856 64.3734 197.297 71.21 199.398C80.6232 202.29 84.4709 197.538 84.4709 197.538V159.45C82.9937 160.104 80.2453 160.828 75.7792 160.828Z" fill="#D0DDF1"/>
<path d="M75.7792 125.701C72.8591 125.701 69.2174 125.391 64.6483 124.53C45.8905 121.018 37.3705 115.577 37.3018 115.508C36.6491 115.06 36.065 114.647 35.6871 114.371L36.4773 126.149C36.8208 126.39 37.2331 126.7 37.7141 127.044C39.3287 128.146 48.6389 132.899 64.7857 135.929C76.6037 138.133 82.2723 136.618 84.471 135.619V124.324C82.9937 124.978 80.2453 125.701 75.7792 125.701Z" fill="#F4D553"/>
<path d="M84.1616 109.171V197.469C84.1616 197.469 102.301 202.91 123.67 203.392C137.927 203.737 153.421 200.672 166.613 197.882L166.27 109.137C166.27 109.171 84.8487 109.171 84.1616 109.171Z" fill="#A7B8CF"/>
<path d="M213.061 114.268C211.446 115.37 202.136 120.122 185.989 123.153C174.171 125.357 168.503 123.842 166.304 122.843V112.098L168.675 112.477C171.423 112.925 174.24 112.994 177.023 112.684L179.359 112.443C211.652 108.655 214.916 100.424 214.916 100.424C215.775 101.147 215.775 103.833 215.775 103.833L215.191 112.753C214.607 113.2 213.817 113.751 213.061 114.268Z" fill="#F4D553"/>
<path d="M174.996 137.066C177.916 137.066 181.558 136.756 186.127 135.895C204.885 132.382 213.405 126.941 213.473 126.872C213.748 126.666 214.023 126.493 214.263 126.321L213.473 138.064C213.336 138.168 213.198 138.237 213.061 138.34C211.446 139.442 202.136 144.194 185.989 147.225C174.171 149.429 168.503 147.914 166.304 146.915V135.619C167.781 136.343 170.53 137.066 174.996 137.066Z" fill="#D0DDF1"/>
<path d="M166.27 158.004V147.741C167.781 148.361 170.53 149.119 174.996 149.119C177.916 149.119 181.558 148.809 186.127 147.948C204.129 144.573 212.717 139.407 213.439 138.96L212.717 149.601C210.381 151.013 201.209 155.421 185.989 158.279C174.137 160.518 168.468 159.002 166.27 158.004Z" fill="#D0DDF1"/>
<path d="M174.996 160.139C177.916 160.139 181.558 159.829 186.127 158.968C201.655 156.075 210.141 151.839 212.683 150.427L210.587 182.007C210.416 184.796 208.664 187.207 206.121 188.309C199.456 191.167 186.402 196.608 179.565 198.709C170.152 201.602 166.304 196.849 166.304 196.849V158.761C167.781 159.416 170.53 160.139 174.996 160.139Z" fill="#D0DDF1"/>
<path d="M174.996 125.012C177.916 125.012 181.558 124.702 186.127 123.842C204.885 120.329 213.405 114.888 213.473 114.819C214.126 114.371 214.71 113.958 215.088 113.682L214.298 125.46C213.954 125.701 213.542 126.011 213.061 126.355C211.446 127.457 202.136 132.21 185.989 135.24C174.171 137.444 168.503 135.929 166.304 134.93V123.635C167.781 124.289 170.53 125.012 174.996 125.012Z" fill="#F4D553"/>
<path d="M79.9778 203.249C110.657 205.281 141.404 205.281 172.083 203.284L222.894 199.943C228.288 199.599 233.063 196.293 235.33 191.334C243.026 174.494 257.867 133.444 244.915 90.2252C227.944 33.8165 172.427 -0.79328 123.952 -0.0012163C75.4773 -0.79328 22.3648 36.5715 5.42791 92.9802C-7.69563 136.716 6.21807 176.422 13.1577 192.126C15.0816 196.465 19.2385 199.392 23.9795 199.702L79.9778 203.249Z" fill="#D0DDF1"/>
<path d="M43.5963 183.897L46.2072 194.262L51.2917 198.808L56.1014 198.877L58.8842 196.156L56.6511 184.069L47.444 177.767L43.5963 183.897Z" stroke="#E4ECF8" stroke-miterlimit="10"/>
<path d="M59.743 182.726L62.0104 195.502L67.782 199.703L73.9659 199.772L77.8136 194.331L75.8897 183.277L65.6864 176.94L59.743 182.726Z" stroke="#E4ECF8" stroke-miterlimit="10"/>
<path d="M78.6382 182.967L80.9056 195.743L85.9901 200.633L91.8304 200.702L97.7395 195.605L96.5027 183.552L87.3299 176.527L78.6382 182.967Z" stroke="#E4ECF8" stroke-miterlimit="10"/>
<path d="M100.282 183.242L100.831 195.984L107.977 200.909L114.848 201.012L120.723 196.604L120.551 182.829L110.348 177.181L100.282 183.242Z" stroke="#E4ECF8" stroke-miterlimit="10"/>
<path d="M123.299 182.863L123.471 196.294L130.308 201.184L136.835 201.287L143.053 197.568L142.882 183.793L132.987 177.457L123.299 182.863Z" stroke="#E4ECF8" stroke-miterlimit="10"/>
<path d="M145.974 183.828L145.458 196.914L151.608 201.46L158.822 201.563L164.01 197.499L164.903 182.691L156.692 177.767L145.974 183.828Z" stroke="#E4ECF8" stroke-miterlimit="10"/>
<path d="M167.274 183.07L166.415 196.845L172.908 200.702L179.435 200.805L184.623 197.052L186.203 181.934L179.057 176.32L167.274 183.07Z" stroke="#E4ECF8" stroke-miterlimit="10"/>
<path d="M187.921 182.312L186.375 196.397L190.429 199.566L196.613 199.635L202.178 194.538L204.102 180.108L198.674 174.874L187.921 182.312Z" stroke="#E4ECF8" stroke-miterlimit="10"/>
<path d="M206.129 180.797L203.999 194.917L206.266 198.05L211.213 198.016L215.611 192.988L218.531 179.248L215.164 175.081L206.129 180.797Z" stroke="#E4ECF8" stroke-miterlimit="10"/>
<path d="M220.249 180.315L216.985 194.021L218.428 196.983L224.612 194.572L230.555 179.041L227.532 174.185L220.249 180.315Z" stroke="#E4ECF8" stroke-miterlimit="10"/>
<path d="M232.617 178.387L236.98 174.254L237.426 178.8L232.445 192.506L228.975 195.227L227.292 194.159V191.748L232.617 178.387Z" stroke="#E4ECF8" stroke-miterlimit="10"/>
<path d="M40.1608 182.485L44.1459 194.917L42.0159 198.016H36.6909L32.8088 195.123L29.8543 182.347L32.6714 178.593L40.1608 182.485Z" stroke="#E4ECF8" stroke-miterlimit="10"/>
<path d="M27.1403 180.935L21.6779 177.078L20.9221 181.899L25.2508 194.331L27.4151 196.639H30.1635L30.7475 194.4L27.1403 180.935Z" stroke="#E4ECF8" stroke-miterlimit="10"/>
<path d="M14.8069 176.286L18.8608 181.176L22.8459 193.264L21.5748 195.95L18.3798 193.574L13.3984 179.385L14.8069 176.286Z" stroke="#E4ECF8" stroke-miterlimit="10"/>
<path d="M12.9174 176.458L10.066 160.582L7.42064 157.104L6.32129 161.237L9.85983 176.079L11.8524 178.18L12.9174 176.458Z" stroke="#E4ECF8" stroke-miterlimit="10"/>
<path d="M14.6351 174.771L11.7836 160.617L13.2265 155.107L18.208 161.719L20.0631 174.84L18.9981 178.628L14.6351 174.771Z" stroke="#E4ECF8" stroke-miterlimit="10"/>
<path d="M21.7809 174.185L19.5822 161.409L22.7429 155.245L28.7893 160.513L30.9537 175.356L28.5145 179.454L21.7809 174.185Z" stroke="#E4ECF8" stroke-miterlimit="10"/>
<path d="M32.6371 175.012L30.4728 160.858L36.0039 155.107L43.7337 161.065L45.5889 174.53L41.432 180.315L32.6371 175.012Z" stroke="#E4ECF8" stroke-miterlimit="10"/>
<path d="M46.9287 174.185L45.0735 161.443L52.666 155.004L63.4534 160.996L65.3086 174.461L58.0597 180.901L46.9287 174.185Z" stroke="#E4ECF8" stroke-miterlimit="10"/>
<path d="M66.6484 174.495L64.8276 160.686L73.4163 153.901L84.5473 160.272L85.3374 174.736L76.7487 181.176L66.6484 174.495Z" stroke="#E4ECF8" stroke-miterlimit="10"/>
<path d="M87.0551 174.082L86.5741 160.307L97.2241 153.213L108.321 160.617L108.458 174.392L97.8425 181.107L87.0551 174.082Z" stroke="#E4ECF8" stroke-miterlimit="10"/>
<path d="M110.176 174.082L110.038 160.272L121.032 152.524L132.129 159.239L131.922 175.425L121.65 180.418L110.176 174.082Z" stroke="#E4ECF8" stroke-miterlimit="10"/>
<path d="M133.949 175.081L134.19 159.274L145.493 152.868L155.593 159.894L155.696 175.769L145.424 181.452L133.949 175.081Z" stroke="#E4ECF8" stroke-miterlimit="10"/>
<path d="M157.414 175.425L157.963 160.272L169.266 153.557L178.027 160.238L177.821 175.046L167.858 180.763L157.414 175.425Z" stroke="#E4ECF8" stroke-miterlimit="10"/>
<path d="M179.16 174.702L179.71 160.238L190.326 154.211L198.743 160.858L197.884 173.6L187.612 180.005L179.16 174.702Z" stroke="#E4ECF8" stroke-miterlimit="10"/>
<path d="M199.567 173.979L200.426 161.237L209.393 154.143L214.408 160.066L213.859 172.808L205.614 179.558L199.567 173.979Z" stroke="#E4ECF8" stroke-miterlimit="10"/>
<path d="M215.233 173.152L216.092 160.445L223.65 154.349L227.326 159.894L226.776 172.98L220.592 178.042L215.233 173.152Z" stroke="#E4ECF8" stroke-miterlimit="10"/>
<path d="M228.15 173.014L229.009 159.928L234.54 154.831L237.495 160.376L236.67 172.429L231.139 177.181L228.15 173.014Z" stroke="#E4ECF8" stroke-miterlimit="10"/>
<path d="M237.667 172.532L238.869 159.721L243.507 154.969L244.297 161.168L241.102 173.221L239.006 175.563L237.667 172.532Z" stroke="#E4ECF8" stroke-miterlimit="10"/>
<path d="M7.5924 136.028L5.4624 140.505L6.35563 153.936L9.41321 157.759L11.1653 153.66L10.65 139.851L7.5924 136.028Z" stroke="#E4ECF8" stroke-miterlimit="10"/>
<path d="M12.7113 139.885L13.2266 153.66L17.9676 158.55L21.1282 154.108L20.6129 139.954L16.1811 135.443L12.7113 139.885Z" stroke="#E4ECF8" stroke-miterlimit="10"/>
<path d="M22.3306 139.989L22.8459 154.108L29.3047 159.343L34.5266 154.59L34.3548 139.093L27.209 133.859L22.3306 139.989Z" stroke="#E4ECF8" stroke-miterlimit="10"/>
<path d="M36.0038 139.128L36.1756 153.936L44.0772 159.205L51.0168 153.075L50.8451 138.267L41.638 132.654L36.0038 139.128Z" stroke="#E4ECF8" stroke-miterlimit="10"/>
<path d="M52.2194 138.267L52.4255 153.075L63.0068 158.723L71.6642 152.972L71.8016 137.819L60.8768 131.483L52.2194 138.267Z" stroke="#E4ECF8" stroke-miterlimit="10"/>
<path d="M73.1757 137.819L73.0383 152.283L85.6809 158.619L95.7125 151.87L95.5064 137.75L83.5853 130.725L73.1757 137.819Z" stroke="#E4ECF8" stroke-miterlimit="10"/>
<path d="M96.8806 137.75L96.7432 151.525L109.042 158.585L120.448 150.768L119.933 137.337L108.321 130.312L96.8806 137.75Z" stroke="#E4ECF8" stroke-miterlimit="10"/>
<path d="M121.65 137.027L122.166 150.458L133.778 157.139L144.496 150.733L144.668 136.614L133.4 130.277L121.65 137.027Z" stroke="#E4ECF8" stroke-miterlimit="10"/>
<path d="M146.73 136.958L146.558 150.733L157.139 158.447L168.545 151.698L168.717 136.889L157.792 130.553L146.73 136.958Z" stroke="#E4ECF8" stroke-miterlimit="10"/>
<path d="M170.434 136.889L170.262 151.353L179.607 158.413L189.57 152.558L190.016 137.13L180.809 130.14L170.434 136.889Z" stroke="#E4ECF8" stroke-miterlimit="10"/>
<path d="M191.631 137.509L191.494 152.662L200.22 158.757L209.083 152.524L209.942 138.06L202.796 130.725L191.631 137.509Z" stroke="#E4ECF8" stroke-miterlimit="10"/>
<path d="M211.66 138.06L210.801 152.524L215.68 158.757L222.894 151.87L224.268 138.095L219.63 131.62L211.66 138.06Z" stroke="#E4ECF8" stroke-miterlimit="10"/>
<path d="M225.642 138.439L224.199 152.008L228.734 158.069L234.506 152.111L235.365 137.991L232.307 133.824L225.642 138.439Z" stroke="#E4ECF8" stroke-miterlimit="10"/>
<path d="M236.636 138.439L235.605 152.214L238.697 158.068L243.438 152.558L244.537 139.472L241.239 133.928L236.636 138.439Z" stroke="#E4ECF8" stroke-miterlimit="10"/>
<path d="M6.56179 112.783L7.90163 116.227L7.66114 131.724L5.49679 136.855L4.19131 132.722L3.77905 115.469L6.56179 112.783Z" stroke="#E4ECF8" stroke-miterlimit="10"/>
<path d="M9.27588 114.884L9.00104 132.447L11.6807 137.647L14.4978 132.516L15.4941 113.954L12.093 110.441L9.27588 114.884Z" stroke="#E4ECF8" stroke-miterlimit="10"/>
<path d="M16.8682 113.61L16.5933 131.517L21.3343 136.407L26.2127 131.655L26.5219 112.714L21.4374 107.48C21.4374 107.514 17.1774 113.334 16.8682 113.61Z" stroke="#E4ECF8" stroke-miterlimit="10"/>
<path d="M28.2053 112.783L27.9304 131.724L35.0762 136.304L42.0159 130.553L42.3251 111.612L34.8357 106.343L28.2053 112.783Z" stroke="#E4ECF8" stroke-miterlimit="10"/>
<path d="M43.6993 111.302L43.3901 130.243L52.2536 135.891L61.976 128.452L62.2852 109.512L52.7689 103.864L43.6993 111.302Z" stroke="#E4ECF8" stroke-miterlimit="10"/>
<path d="M63.6594 109.546L63.3502 128.142L73.2101 134.857L84.3067 128.487L84.6159 109.546L74.0689 102.831L63.6594 109.546Z" stroke="#E4ECF8" stroke-miterlimit="10"/>
<path d="M86.6772 109.58L86.368 128.521L96.2622 133.824L108.389 128.177L108.664 109.236L97.4646 102.176L86.6772 109.58Z" stroke="#E4ECF8" stroke-miterlimit="10"/>
<path d="M111.447 108.926L111.138 127.867L121.685 133.204L133.125 127.178L133.434 107.893L121.857 100.833L111.447 108.926Z" stroke="#E4ECF8" stroke-miterlimit="10"/>
<path d="M135.495 107.583L135.186 127.212L146.455 132.206L156.83 127.901L157.139 107.927L146.936 101.212L135.495 107.583Z" stroke="#E4ECF8" stroke-miterlimit="10"/>
<path d="M159.544 107.617L159.235 127.936L170.331 134.307L181.222 128.28L181.531 107.617L171.328 101.97L159.544 107.617Z" stroke="#E4ECF8" stroke-miterlimit="10"/>
<path d="M183.592 107.652L183.283 127.97L191.631 135.34L202.144 129.313L202.487 109.339L192.593 103.692L183.592 107.652Z" stroke="#E4ECF8" stroke-miterlimit="10"/>
<path d="M204.205 109.374L203.896 129.003L211.213 135.684L219.321 130.277L219.63 110.648L211.832 105.344L204.205 109.374Z" stroke="#E4ECF8" stroke-miterlimit="10"/>
<path d="M221.348 111.027L221.073 129.279L225.299 136.028L232.376 130.828L232.685 111.199L227.257 106.998L221.348 111.027Z" stroke="#E4ECF8" stroke-miterlimit="10"/>
<path d="M234.403 111.578L234.094 130.863L236.636 136.717L241.961 132.344L242.27 113.437L238.903 109.236L234.403 111.578Z" stroke="#E4ECF8" stroke-miterlimit="10"/>
<path d="M243.163 113.988V132.24L244.538 137.75L248.317 132.929V115.71L246.255 110.2L243.163 113.988Z" stroke="#E4ECF8" stroke-miterlimit="10"/>
<path d="M5.94336 108.961L8.27949 112.783L11.4401 108.72L14.4634 91.5351L12.0929 89.0901L8.27949 92.8093L5.94336 108.961Z" stroke="#E4ECF8" stroke-miterlimit="10"/>
<path d="M15.8719 111.199L12.8487 108.065L16.1811 90.8808L20.0632 85.7841L23.0864 89.6066L20.7503 106.102L15.8719 111.199Z" stroke="#E4ECF8" stroke-miterlimit="10"/>
<path d="M22.1589 105.792L25.1477 89.641L31.4347 82.8568L35.8321 86.7138L33.8395 104.243L28.274 110.028L22.1589 105.792Z" stroke="#E4ECF8" stroke-miterlimit="10"/>
<path d="M35.5916 103.933L37.5498 87.0925L46.9287 80.3428L54.3837 87.368L53.1469 101.453L43.0466 108.892L35.5916 103.933Z" stroke="#E4ECF8" stroke-miterlimit="10"/>
<path d="M54.8303 102.176L55.7579 87.3681L65.1711 78.5865L74.0003 85.9562L73.7598 100.076L64.0374 107.135L54.8303 102.176Z" stroke="#E4ECF8" stroke-miterlimit="10"/>
<path d="M75.4776 100.42L75.7181 85.6463L86.8491 76.8647L97.3616 85.3019L97.1555 99.7313L86.0245 106.791L75.4776 100.42Z" stroke="#E4ECF8" stroke-miterlimit="10"/>
<path d="M99.2166 99.7657L99.4227 85.3019L109.867 77.2091L120.414 84.6132L120.173 98.7326L110.451 106.515L99.2166 99.7657Z" stroke="#E4ECF8" stroke-miterlimit="10"/>
<path d="M122.234 98.4225L122.475 84.3031L133.262 76.5547L144.805 83.27L144.565 98.7669L134.843 105.172L122.234 98.4225Z" stroke="#E4ECF8" stroke-miterlimit="10"/>
<path d="M147.004 98.1126L147.21 83.3389L156.28 76.5891L167.858 82.9601L167.583 99.8345L158.891 105.207L147.004 98.1126Z" stroke="#E4ECF8" stroke-miterlimit="10"/>
<path d="M169.988 99.1801L170.262 82.6501L179.298 76.9335L189.158 83.3044L190.6 100.902L181.909 105.586L169.988 99.1801Z" stroke="#E4ECF8" stroke-miterlimit="10"/>
<path d="M192.318 100.902L191.219 82.9945L199.189 78.6554L209.393 85.3363L210.492 102.245L203.209 107.273L192.318 100.902Z" stroke="#E4ECF8" stroke-miterlimit="10"/>
<path d="M211.866 101.901L210.767 85.3708L216.676 80.6528L224.131 86.9549L226.604 103.519L221.039 108.272L211.866 101.901Z" stroke="#E4ECF8" stroke-miterlimit="10"/>
<path d="M226.192 86.9892L227.979 103.554L233.063 109.133L237.564 106.102L235.056 90.5707L230.006 84.3031L226.192 86.9892Z" stroke="#E4ECF8" stroke-miterlimit="10"/>
<path d="M236.773 90.6053L238.938 106.137L242.648 111.371L245.122 106.929L243.301 92.4304L238.903 86.8516L236.773 90.6053Z" stroke="#E4ECF8" stroke-miterlimit="10"/>
<path d="M12.8143 87.3682L14.8413 89.8133L19.3761 85.0609L24.4263 71.0448L22.3993 68.5997L18.2424 71.2859L12.8143 87.3682Z" stroke="#E4ECF8" stroke-miterlimit="10"/>
<path d="M21.0939 84.4064L25.4569 71.0447L30.3353 65.2592L33.015 69.8049L30.0948 81.7892L24.8385 87.9191L21.0939 84.4064Z" stroke="#E4ECF8" stroke-miterlimit="10"/>
<path d="M31.469 81.8237L34.7327 69.495L44.1459 61.7122L49.2304 66.6023L46.6195 78.621L37.2406 85.3707L31.469 81.8237Z" stroke="#E4ECF8" stroke-miterlimit="10"/>
<path d="M48.3373 78.9997L50.9483 66.6366L60.6707 59.5425L67.4729 65.1902L65.2055 76.1758L55.4487 84.9574L48.3373 78.9997Z" stroke="#E4ECF8" stroke-miterlimit="10"/>
<path d="M66.9231 76.1759L68.5034 65.1903L77.5387 57.7518L86.7115 64.1228L86.1962 74.4196L75.0652 83.2012L66.9231 76.1759Z" stroke="#E4ECF8" stroke-miterlimit="10"/>
<path d="M88.9446 74.1441L89.1164 64.1572L99.9038 55.72L109.077 62.4009L108.87 74.7984L98.8044 82.5468L88.9446 74.1441Z" stroke="#E4ECF8" stroke-miterlimit="10"/>
<path d="M110.932 74.4884L111.138 62.4352L122.612 54.6868L132.781 61.7465L132.575 74.4884L121.479 82.2368L110.932 74.4884Z" stroke="#E4ECF8" stroke-miterlimit="10"/>
<path d="M134.293 74.5228L134.843 61.7809L144.221 55.0311L153.772 60.3345L154.219 74.8327L145.871 81.2381L134.293 74.5228Z" stroke="#E4ECF8" stroke-miterlimit="10"/>
<path d="M156.314 74.5228L156.177 60.059L165.899 55.0311L175.072 60.3345L176.893 75.1771L168.545 81.2381L156.314 74.5228Z" stroke="#E4ECF8" stroke-miterlimit="10"/>
<path d="M178.611 74.8673L177.133 60.7134L184.073 55.6511L194.964 62.7453L198.159 77.2435L189.845 81.5826L178.611 74.8673Z" stroke="#E4ECF8" stroke-miterlimit="10"/>
<path d="M196.338 63.0896L199.567 76.9335L209.736 83.9588L216.023 79.2409L211.42 65.0526L202.247 58.3717L196.338 63.0896Z" stroke="#E4ECF8" stroke-miterlimit="10"/>
<path d="M212.794 65.087L217.054 78.9309L224.852 85.9218L229.353 82.5469L223.753 67.3255L216.298 61.6777L212.794 65.087Z" stroke="#E4ECF8" stroke-miterlimit="10"/>
<path d="M225.127 67.3255L230.727 82.9257L235.434 88.849L238.251 85.1297L232.96 71.5958L227.223 65.2937L225.127 67.3255Z" stroke="#E4ECF8" stroke-miterlimit="10"/>
<path d="M23.0865 67.2222L24.4263 69.3229L30.3697 63.8818L34.9733 54.3426L32.6371 51.1743L28.1023 54.5492L23.0865 67.2222Z" stroke="#E4ECF8" stroke-miterlimit="10"/>
<path d="M32.7745 63.9506L36.7253 53.6538L44.73 45.5265L48.4746 49.7279L45.2109 59.3015L34.4235 67.7387L32.7745 63.9506Z" stroke="#E4ECF8" stroke-miterlimit="10"/>
<path d="M46.5851 60.0247L49.8489 49.7278L59.6056 41.2906L65.3429 46.5596L60.705 58.1651L50.2955 64.9148L46.5851 60.0247Z" stroke="#E4ECF8" stroke-miterlimit="10"/>
<path d="M62.0792 58.1995L66.7171 46.2152L75.0996 39.1211L82.2111 44.7344L78.2603 56.4087L68.16 63.4684L62.0792 58.1995Z" stroke="#E4ECF8" stroke-miterlimit="10"/>
<path d="M83.9288 44.4244L79.978 56.4087L87.7765 62.7452L99.5945 53.6193L101.484 41.9449L93.9947 37.3647L83.9288 44.4244Z" stroke="#E4ECF8" stroke-miterlimit="10"/>
<path d="M102.515 41.9793L100.969 53.3093L110.141 60.6789L121.925 52.9649L122.44 42.2893L112.924 35.6084L102.515 41.9793Z" stroke="#E4ECF8" stroke-miterlimit="10"/>
<path d="M123.815 42.3237L123.334 52.6206L133.503 60.0247L143.225 53.9981L143.397 42.6337L133.537 35.574L123.815 42.3237Z" stroke="#E4ECF8" stroke-miterlimit="10"/>
<path d="M144.771 42.6338L144.943 53.6538L154.494 58.6473L164.182 53.6194L162.326 41.1874L153.463 35.884L144.771 42.6338Z" stroke="#E4ECF8" stroke-miterlimit="10"/>
<path d="M163.357 40.8774L165.899 53.3094L176.137 59.336L183.077 54.9624L180.5 43.9079L170.64 37.537L163.357 40.8774Z" stroke="#E4ECF8" stroke-miterlimit="10"/>
<path d="M181.531 43.9079L184.107 54.2736L195.341 61.3677L201.594 57.3385L198.64 46.9384L188.127 39.8787L181.531 43.9079Z" stroke="#E4ECF8" stroke-miterlimit="10"/>
<path d="M199.327 46.9385L202.625 56.9942L211.797 64.0195L215.611 60.3002L211.694 48.867L203.862 43.9424L199.327 46.9385Z" stroke="#E4ECF8" stroke-miterlimit="10"/>
<path d="M212.691 49.2458L216.641 59.9903L224.131 65.948L226.57 63.5718L222.276 53.1717L216.504 47.5583L212.691 49.2458Z" stroke="#E4ECF8" stroke-miterlimit="10"/>
<path d="M28.1022 49.2457C28.1022 49.2457 43.5619 32.4057 126.013 33.0256C208.465 33.6455 224.268 50.2788 224.268 50.2788" stroke="#C1D1E9" stroke-miterlimit="10"/>
<path d="M114.092 26.6546L119.211 30.5116L130.548 30.7182L134.362 27.6533L134.156 19.0439L125.979 15.4624L115.604 19.1128L114.092 26.6546Z" stroke="#E4ECF8" stroke-miterlimit="10"/>
<path d="M136.56 19.7672L136.423 28.0322L142.882 31.5793L148.722 31.6826L154.975 28.6865L154.047 21.0758L145.183 16.4612L136.56 19.7672Z" stroke="#E4ECF8" stroke-miterlimit="10"/>
<path d="M155.765 21.4891L156.314 28.7209L161.09 31.5448L168.648 32.3369L173.492 29.6507L173.251 23.7964L166.106 19.5605L155.765 21.4891Z" stroke="#E4ECF8" stroke-miterlimit="10"/>
<path d="M175.141 24.8984L175.072 29.7197L180.638 33.9211L189.226 35.0919L193.04 33.0946L193.418 29.6508L184.932 24.3474L175.141 24.8984Z" stroke="#E4ECF8" stroke-miterlimit="10"/>
<path d="M194.723 29.9607L194.38 33.4388L197.471 36.8482L206.404 38.9144L204.72 32.9223L200.632 29.754L194.723 29.9607Z" stroke="#E4ECF8" stroke-miterlimit="10"/>
<path d="M112.856 19.7326L111.722 26.2758L105.813 30.6494L95.4721 30.8215L92.1053 26.6546L93.9261 20.1459L103.271 15.8068L112.856 19.7326Z" stroke="#E4ECF8" stroke-miterlimit="10"/>
<path d="M91.8648 20.1116L90.3875 26.9647L86.1963 31.3727L76.9205 31.9237L74.55 29.4786L77.4358 21.5924L85.0282 17.942L91.8648 20.1116Z" stroke="#E4ECF8" stroke-miterlimit="10"/>
<path d="M75.3401 22.2467L72.8322 30.4772L70.0494 32.509L62.8006 34.0932L60.0865 32.3369L63.2815 25.8626L70.2212 21.1447L75.3401 22.2467Z" stroke="#E4ECF8" stroke-miterlimit="10"/>
<path d="M60.8424 26.1381L57.9909 32.6468L52.4598 36.7104L46.2416 37.9846L46.963 34.8852L51.8071 28.5832L58.4719 25.4149L60.8424 26.1381Z" stroke="#E4ECF8" stroke-miterlimit="10"/>
<path d="M126.941 13.8095L134.946 18.1142L143.431 15.1525L143.5 10.6756L135.53 6.74976L127.766 10.0213L126.941 13.8095Z" stroke="#E4ECF8" stroke-miterlimit="10"/>
<path d="M144.977 10.7101L144.909 15.187L154.871 19.9738L163.804 18.252L162.429 12.3976L153.463 8.12732L144.977 10.7101Z" stroke="#E4ECF8" stroke-miterlimit="10"/>
<path d="M163.804 12.3975L165.521 17.9075L174.454 22.7287L180.981 21.6956L176.824 14.1193L169.541 10.8478L163.804 12.3975Z" stroke="#E4ECF8" stroke-miterlimit="10"/>
<path d="M125.189 10.3313L124.742 13.775L113.989 17.9075L106.775 14.1194L107.977 9.64252L115.707 7.02527L125.189 10.3313Z" stroke="#E4ECF8" stroke-miterlimit="10"/>
<path d="M106.122 9.9524L105.332 13.7405L93.3764 18.5962L88.8072 15.4624L89.9753 11.02L98.4609 8.09277L106.122 9.9524Z" stroke="#E4ECF8" stroke-miterlimit="10"/>
<path d="M88.1201 11.6744L85.8527 16.0824L76.2333 20.0427L72.5917 18.2519L75.8554 12.7419L81.6957 10.3313L88.1201 11.6744Z" stroke="#E4ECF8" stroke-miterlimit="10"/>
<path d="M72.6947 14.4637L70.7022 18.9406L62.457 24.795L58.678 23.4175L69.328 15.8412L72.6947 14.4637Z" stroke="#E4ECF8" stroke-miterlimit="10"/>
<path d="M177.889 14.1194L183.729 22.04L194.036 28.2388H200.22L177.889 14.1194Z" stroke="#E4ECF8" stroke-miterlimit="10"/>
<path d="M101.415 7.09415L106.534 8.57497L114.264 6.33653L114.333 3.58152L107.805 2.41064L101.484 4.33915L101.415 7.09415Z" stroke="#E4ECF8" stroke-miterlimit="10"/>
<path d="M115.81 3.27152L115.741 5.68215L125.945 8.95372L134.087 5.68215L134.121 3.27152L124.639 1.03308L115.81 3.27152Z" stroke="#E4ECF8" stroke-miterlimit="10"/>
<path d="M135.976 3.30602L135.908 5.37228L143.912 9.3326L151.642 7.05972L151.711 4.64909L144.222 2.41064L135.976 3.30602Z" stroke="#E4ECF8" stroke-miterlimit="10"/>
<path d="M152.81 5.02795L152.776 6.40546L161.124 11.0545L169.541 10.1592L166.552 8.95384L161.743 7.57634L152.81 5.02795Z" stroke="#E4ECF8" stroke-miterlimit="10"/>
<path d="M99.2511 4.99341V6.37091L88.9103 9.95242L84.8907 9.19479L90.044 6.88747L99.2511 4.99341Z" stroke="#E4ECF8" stroke-miterlimit="10"/>
</g>
<defs>
<clipPath id="clip0">
<rect width="250" height="473" fill="white"/>
</clipPath>
</defs>
</svg>
