<svg width="250" height="642" viewBox="0 0 250 642" fill="none" xmlns="http://www.w3.org/2000/svg">
<rect x="113" y="450" width="26" height="192" fill="#B1C3DE"/>
<g clip-path="url(#clip0)">
<path d="M213.172 269.577L213 271.23L206.232 276.017L181.153 281.527H171.534H163.975L164.663 274.64L186.65 276.706L202.109 271.54L213.172 269.577Z" fill="#8391A4"/>
<path d="M213.996 257.8L213.756 260.141L202.796 267.063L184.245 270.163L174.282 270.507L165.35 270.163V260.176L184.245 263.275L200.048 261.209L213.996 257.8Z" fill="#8391A4"/>
<path d="M215 242.5L214.511 248.915L193.521 259.831L168.098 260.176L163.975 256.732L165.006 249.845L205.201 246.745L215 242.5Z" fill="#8391A4"/>
<path d="M215.817 230.318L215.233 238.377C215.233 238.377 182.871 248.123 182.527 248.123C182.183 248.123 165.35 246.745 165.35 246.745V239.513L192.146 237.103L215.817 230.318Z" fill="#6D5F23"/>
<path d="M147.485 208.175C147.485 208.175 186.89 206.97 212.656 217.955C217.225 219.884 216.023 224.774 215.851 227.46L161.571 238.48L147.485 208.175Z" fill="#FFFB96"/>
<path d="M38.5117 270.266L38.6835 271.919L45.4514 276.706L70.5304 282.216H80.1498H87.7078L87.0207 275.328L65.0336 277.394L49.574 272.229L38.5117 270.266Z" fill="#8391A4"/>
<path d="M37.6873 258.488L37.9277 260.83L48.8869 267.752L67.4385 270.851L77.4014 271.196L86.3337 270.851V260.865L67.4385 263.964L51.6353 261.898L37.6873 258.488Z" fill="#8391A4"/>
<path d="M36.7596 245.299L37.1719 249.603L58.1627 260.52L83.5853 260.864L87.7078 257.421L86.6772 250.533L46.4821 247.434L36.7596 245.299Z" fill="#8391A4"/>
<path d="M35.8665 231.007L36.4505 239.065C36.4505 239.065 68.8127 248.811 69.1563 248.811C69.4998 248.811 86.3337 247.434 86.3337 247.434V240.202L59.5369 237.791L35.8665 231.007Z" fill="#6D5F23"/>
<path d="M126.529 334.492L80.8368 333.528C80.8368 333.528 94.2352 347.647 95.9529 367.621C97.6706 387.595 95.9529 413.767 99.7319 424.787C103.511 435.807 117.5 473 117.5 473H123.093H129.964H135C135 473 149.546 435.807 153.325 424.787C157.104 413.767 155.387 387.595 157.104 367.621C158.822 347.647 172.221 333.528 172.221 333.528L126.529 334.492Z" fill="#B1C3DE"/>
<path d="M42.703 309.077C42.703 309.077 79.1191 334.561 127.559 333.183C171.911 331.909 201.319 316.24 210.355 308.044L42.703 309.077Z" fill="#B1C3DE"/>
<path d="M42.703 308.044L44.4207 321.475C44.4207 321.475 72.6604 344.582 131.338 342.481C190.016 340.381 210.355 319.408 210.355 319.408V308.044C210.355 308.044 176.343 332.839 127.903 332.15C70.5304 331.358 42.703 308.044 42.703 308.044Z" fill="#B1C3DE"/>
<path d="M104.198 208.864C104.198 208.864 64.7931 207.658 39.027 218.644C34.4578 220.573 35.6603 225.463 35.832 228.149L90.1126 239.169L104.198 208.864Z" fill="#FFFB96"/>
<path d="M78.2602 222.811C78.2602 222.811 128.934 237.791 176.343 220.917L176.515 211.963L77.9166 213.513L78.2602 222.811Z" fill="#A7B8CF"/>
<path d="M129.105 206.97C128.247 206.935 97.4303 205.455 78.8443 213.031C78.1916 213.306 78.2603 214.236 78.9474 214.408C88.4293 216.819 129.861 226.496 176.034 212.962C176.687 212.755 176.756 211.86 176.103 211.584C172.736 210.104 162.086 206.729 129.174 206.97C129.105 206.97 129.105 206.97 129.105 206.97Z" fill="#B1C3DE"/>
<path d="M104.026 202.493L104.37 214.546C104.37 214.546 126.013 220.4 150.405 214.546V202.837L104.026 202.493Z" fill="#A7B8CF"/>
<path d="M79.9778 203.249C110.657 205.281 141.404 205.281 172.083 203.284L222.894 199.943C228.288 199.599 233.063 196.293 235.33 191.334C243.026 174.494 257.867 133.444 244.915 90.2252C227.944 33.8165 172.427 -0.79328 123.952 -0.0012163C75.4773 -0.79328 22.3648 36.5715 5.42791 92.9802C-7.69563 136.716 6.21807 176.422 13.1577 192.126C15.0816 196.465 19.2385 199.392 23.9795 199.702L79.9778 203.249Z" fill="#D0DDF1"/>
<path d="M43.5962 183.897L46.2072 194.262L51.2917 198.808L56.1014 198.877L58.8841 196.156L56.651 184.069L47.4439 177.767L43.5962 183.897Z" stroke="#E4ECF8" stroke-miterlimit="10"/>
<path d="M59.743 182.726L62.0105 195.502L67.7821 199.703L73.9659 199.772L77.8137 194.331L75.8898 183.277L65.6864 176.94L59.743 182.726Z" stroke="#E4ECF8" stroke-miterlimit="10"/>
<path d="M78.6382 182.967L80.9056 195.743L85.9901 200.633L91.8304 200.702L97.7395 195.605L96.5027 183.552L87.3299 176.527L78.6382 182.967Z" stroke="#E4ECF8" stroke-miterlimit="10"/>
<path d="M100.282 183.242L100.831 195.984L107.977 200.909L114.848 201.012L120.723 196.604L120.551 182.829L110.348 177.181L100.282 183.242Z" stroke="#E4ECF8" stroke-miterlimit="10"/>
<path d="M123.299 182.863L123.471 196.294L130.308 201.184L136.835 201.287L143.053 197.568L142.882 183.793L132.987 177.457L123.299 182.863Z" stroke="#E4ECF8" stroke-miterlimit="10"/>
<path d="M145.974 183.828L145.458 196.914L151.608 201.46L158.822 201.563L164.01 197.499L164.903 182.691L156.692 177.767L145.974 183.828Z" stroke="#E4ECF8" stroke-miterlimit="10"/>
<path d="M167.274 183.07L166.415 196.845L172.908 200.702L179.435 200.805L184.623 197.052L186.203 181.934L179.057 176.32L167.274 183.07Z" stroke="#E4ECF8" stroke-miterlimit="10"/>
<path d="M187.921 182.312L186.375 196.397L190.429 199.566L196.613 199.635L202.178 194.538L204.102 180.108L198.674 174.874L187.921 182.312Z" stroke="#E4ECF8" stroke-miterlimit="10"/>
<path d="M206.129 180.797L203.999 194.917L206.266 198.05L211.213 198.016L215.611 192.988L218.531 179.248L215.164 175.081L206.129 180.797Z" stroke="#E4ECF8" stroke-miterlimit="10"/>
<path d="M220.249 180.315L216.985 194.021L218.428 196.983L224.612 194.572L230.555 179.041L227.532 174.185L220.249 180.315Z" stroke="#E4ECF8" stroke-miterlimit="10"/>
<path d="M232.617 178.387L236.98 174.254L237.426 178.8L232.445 192.506L228.975 195.227L227.292 194.159V191.748L232.617 178.387Z" stroke="#E4ECF8" stroke-miterlimit="10"/>
<path d="M40.1608 182.485L44.146 194.917L42.016 198.016H36.691L32.8089 195.123L29.8544 182.347L32.6715 178.593L40.1608 182.485Z" stroke="#E4ECF8" stroke-miterlimit="10"/>
<path d="M27.1403 180.935L21.6779 177.078L20.9221 181.899L25.2508 194.331L27.4152 196.639H30.1636L30.7476 194.4L27.1403 180.935Z" stroke="#E4ECF8" stroke-miterlimit="10"/>
<path d="M14.807 176.286L18.8609 181.176L22.846 193.264L21.5749 195.95L18.3799 193.574L13.3984 179.385L14.807 176.286Z" stroke="#E4ECF8" stroke-miterlimit="10"/>
<path d="M12.9174 176.458L10.066 160.582L7.42064 157.104L6.32129 161.237L9.85983 176.079L11.8524 178.18L12.9174 176.458Z" stroke="#E4ECF8" stroke-miterlimit="10"/>
<path d="M14.6351 174.771L11.7837 160.617L13.2266 155.107L18.208 161.719L20.0632 174.84L18.9982 178.628L14.6351 174.771Z" stroke="#E4ECF8" stroke-miterlimit="10"/>
<path d="M21.781 174.185L19.5823 161.409L22.7429 155.245L28.7894 160.513L30.9537 175.356L28.5145 179.454L21.781 174.185Z" stroke="#E4ECF8" stroke-miterlimit="10"/>
<path d="M32.6371 175.012L30.4728 160.858L36.0039 155.107L43.7337 161.065L45.5889 174.53L41.432 180.315L32.6371 175.012Z" stroke="#E4ECF8" stroke-miterlimit="10"/>
<path d="M46.9288 174.185L45.0736 161.443L52.666 155.004L63.4534 160.996L65.3086 174.461L58.0597 180.901L46.9288 174.185Z" stroke="#E4ECF8" stroke-miterlimit="10"/>
<path d="M66.6483 174.495L64.8275 160.686L73.4162 153.901L84.5472 160.272L85.3374 174.736L76.7486 181.176L66.6483 174.495Z" stroke="#E4ECF8" stroke-miterlimit="10"/>
<path d="M87.0551 174.082L86.5741 160.307L97.2241 153.213L108.321 160.617L108.458 174.392L97.8425 181.107L87.0551 174.082Z" stroke="#E4ECF8" stroke-miterlimit="10"/>
<path d="M110.176 174.082L110.038 160.272L121.032 152.524L132.129 159.239L131.922 175.425L121.65 180.418L110.176 174.082Z" stroke="#E4ECF8" stroke-miterlimit="10"/>
<path d="M133.949 175.081L134.19 159.274L145.493 152.868L155.593 159.894L155.696 175.769L145.424 181.452L133.949 175.081Z" stroke="#E4ECF8" stroke-miterlimit="10"/>
<path d="M157.414 175.425L157.963 160.272L169.266 153.557L178.027 160.238L177.821 175.046L167.858 180.763L157.414 175.425Z" stroke="#E4ECF8" stroke-miterlimit="10"/>
<path d="M179.16 174.702L179.71 160.238L190.326 154.211L198.743 160.858L197.884 173.6L187.612 180.005L179.16 174.702Z" stroke="#E4ECF8" stroke-miterlimit="10"/>
<path d="M199.567 173.979L200.426 161.237L209.393 154.143L214.408 160.066L213.859 172.808L205.614 179.558L199.567 173.979Z" stroke="#E4ECF8" stroke-miterlimit="10"/>
<path d="M215.233 173.152L216.092 160.445L223.65 154.349L227.326 159.894L226.776 172.98L220.592 178.042L215.233 173.152Z" stroke="#E4ECF8" stroke-miterlimit="10"/>
<path d="M228.15 173.014L229.009 159.928L234.54 154.831L237.495 160.376L236.67 172.429L231.139 177.181L228.15 173.014Z" stroke="#E4ECF8" stroke-miterlimit="10"/>
<path d="M237.667 172.532L238.869 159.721L243.507 154.969L244.297 161.168L241.102 173.221L239.006 175.563L237.667 172.532Z" stroke="#E4ECF8" stroke-miterlimit="10"/>
<path d="M7.5924 136.028L5.4624 140.505L6.35563 153.936L9.41321 157.759L11.1653 153.66L10.65 139.851L7.5924 136.028Z" stroke="#E4ECF8" stroke-miterlimit="10"/>
<path d="M12.7113 139.885L13.2266 153.66L17.9676 158.55L21.1282 154.108L20.6129 139.954L16.1811 135.443L12.7113 139.885Z" stroke="#E4ECF8" stroke-miterlimit="10"/>
<path d="M22.3306 139.989L22.8459 154.108L29.3046 159.343L34.5265 154.59L34.3548 139.093L27.209 133.859L22.3306 139.989Z" stroke="#E4ECF8" stroke-miterlimit="10"/>
<path d="M36.0038 139.128L36.1756 153.936L44.0772 159.205L51.0168 153.075L50.8451 138.267L41.638 132.654L36.0038 139.128Z" stroke="#E4ECF8" stroke-miterlimit="10"/>
<path d="M52.2194 138.267L52.4255 153.075L63.0068 158.723L71.6642 152.972L71.8016 137.819L60.8768 131.483L52.2194 138.267Z" stroke="#E4ECF8" stroke-miterlimit="10"/>
<path d="M73.1757 137.819L73.0383 152.283L85.6809 158.619L95.7125 151.87L95.5064 137.75L83.5853 130.725L73.1757 137.819Z" stroke="#E4ECF8" stroke-miterlimit="10"/>
<path d="M96.8806 137.75L96.7432 151.525L109.042 158.585L120.448 150.768L119.933 137.337L108.321 130.312L96.8806 137.75Z" stroke="#E4ECF8" stroke-miterlimit="10"/>
<path d="M121.65 137.027L122.166 150.458L133.778 157.139L144.496 150.733L144.668 136.614L133.4 130.277L121.65 137.027Z" stroke="#E4ECF8" stroke-miterlimit="10"/>
<path d="M146.73 136.958L146.558 150.733L157.139 158.447L168.545 151.698L168.717 136.889L157.792 130.553L146.73 136.958Z" stroke="#E4ECF8" stroke-miterlimit="10"/>
<path d="M170.434 136.889L170.262 151.353L179.607 158.413L189.57 152.558L190.016 137.13L180.809 130.14L170.434 136.889Z" stroke="#E4ECF8" stroke-miterlimit="10"/>
<path d="M191.631 137.509L191.494 152.662L200.22 158.757L209.083 152.524L209.942 138.06L202.796 130.725L191.631 137.509Z" stroke="#E4ECF8" stroke-miterlimit="10"/>
<path d="M211.66 138.06L210.801 152.524L215.68 158.757L222.894 151.87L224.268 138.095L219.63 131.62L211.66 138.06Z" stroke="#E4ECF8" stroke-miterlimit="10"/>
<path d="M225.642 138.439L224.199 152.008L228.734 158.069L234.506 152.111L235.365 137.991L232.307 133.824L225.642 138.439Z" stroke="#E4ECF8" stroke-miterlimit="10"/>
<path d="M236.636 138.439L235.605 152.214L238.697 158.068L243.438 152.558L244.537 139.472L241.239 133.928L236.636 138.439Z" stroke="#E4ECF8" stroke-miterlimit="10"/>
<path d="M6.56179 112.783L7.90163 116.227L7.66114 131.724L5.49679 136.855L4.19131 132.722L3.77905 115.469L6.56179 112.783Z" stroke="#E4ECF8" stroke-miterlimit="10"/>
<path d="M9.27581 114.884L9.00098 132.447L11.6807 137.647L14.4977 132.516L15.494 113.954L12.0929 110.441L9.27581 114.884Z" stroke="#E4ECF8" stroke-miterlimit="10"/>
<path d="M16.8681 113.61L16.5933 131.517L21.3342 136.407L26.2126 131.655L26.5218 112.714L21.4373 107.48C21.4373 107.514 17.1773 113.334 16.8681 113.61Z" stroke="#E4ECF8" stroke-miterlimit="10"/>
<path d="M28.2053 112.783L27.9304 131.724L35.0762 136.304L42.0159 130.553L42.3251 111.612L34.8357 106.343L28.2053 112.783Z" stroke="#E4ECF8" stroke-miterlimit="10"/>
<path d="M43.6993 111.302L43.3901 130.243L52.2537 135.891L61.9761 128.452L62.2853 109.512L52.769 103.864L43.6993 111.302Z" stroke="#E4ECF8" stroke-miterlimit="10"/>
<path d="M63.6594 109.546L63.3502 128.142L73.2101 134.857L84.3067 128.487L84.6159 109.546L74.0689 102.831L63.6594 109.546Z" stroke="#E4ECF8" stroke-miterlimit="10"/>
<path d="M86.6771 109.58L86.3679 128.521L96.2621 133.824L108.389 128.177L108.664 109.236L97.4645 102.176L86.6771 109.58Z" stroke="#E4ECF8" stroke-miterlimit="10"/>
<path d="M111.447 108.926L111.138 127.867L121.685 133.204L133.125 127.178L133.434 107.893L121.857 100.833L111.447 108.926Z" stroke="#E4ECF8" stroke-miterlimit="10"/>
<path d="M135.495 107.583L135.186 127.212L146.455 132.206L156.83 127.901L157.139 107.927L146.936 101.212L135.495 107.583Z" stroke="#E4ECF8" stroke-miterlimit="10"/>
<path d="M159.544 107.617L159.235 127.936L170.331 134.307L181.222 128.28L181.531 107.617L171.328 101.97L159.544 107.617Z" stroke="#E4ECF8" stroke-miterlimit="10"/>
<path d="M183.592 107.652L183.283 127.97L191.631 135.34L202.144 129.313L202.487 109.339L192.593 103.692L183.592 107.652Z" stroke="#E4ECF8" stroke-miterlimit="10"/>
<path d="M204.205 109.374L203.896 129.003L211.213 135.684L219.321 130.277L219.63 110.648L211.832 105.344L204.205 109.374Z" stroke="#E4ECF8" stroke-miterlimit="10"/>
<path d="M221.348 111.027L221.073 129.279L225.299 136.028L232.376 130.828L232.685 111.199L227.257 106.998L221.348 111.027Z" stroke="#E4ECF8" stroke-miterlimit="10"/>
<path d="M234.403 111.578L234.094 130.863L236.636 136.717L241.961 132.344L242.27 113.437L238.903 109.236L234.403 111.578Z" stroke="#E4ECF8" stroke-miterlimit="10"/>
<path d="M243.163 113.988V132.24L244.538 137.75L248.317 132.929V115.71L246.255 110.2L243.163 113.988Z" stroke="#E4ECF8" stroke-miterlimit="10"/>
<path d="M5.94336 108.961L8.27949 112.783L11.4401 108.72L14.4634 91.5351L12.0929 89.0901L8.27949 92.8093L5.94336 108.961Z" stroke="#E4ECF8" stroke-miterlimit="10"/>
<path d="M15.8719 111.199L12.8486 108.065L16.181 90.8808L20.0631 85.7841L23.0864 89.6066L20.7502 106.102L15.8719 111.199Z" stroke="#E4ECF8" stroke-miterlimit="10"/>
<path d="M22.1588 105.792L25.1477 89.641L31.4346 82.8568L35.832 86.7138L33.8394 104.243L28.274 110.028L22.1588 105.792Z" stroke="#E4ECF8" stroke-miterlimit="10"/>
<path d="M35.5916 103.933L37.5498 87.0925L46.9287 80.3428L54.3837 87.368L53.1469 101.453L43.0466 108.892L35.5916 103.933Z" stroke="#E4ECF8" stroke-miterlimit="10"/>
<path d="M54.8303 102.176L55.7579 87.3681L65.1711 78.5865L74.0003 85.9562L73.7598 100.076L64.0374 107.135L54.8303 102.176Z" stroke="#E4ECF8" stroke-miterlimit="10"/>
<path d="M75.4775 100.42L75.718 85.6463L86.849 76.8647L97.3616 85.3019L97.1554 99.7313L86.0245 106.791L75.4775 100.42Z" stroke="#E4ECF8" stroke-miterlimit="10"/>
<path d="M99.2167 99.7657L99.4228 85.3019L109.867 77.2091L120.414 84.6132L120.173 98.7326L110.451 106.515L99.2167 99.7657Z" stroke="#E4ECF8" stroke-miterlimit="10"/>
<path d="M122.234 98.4225L122.475 84.3031L133.262 76.5547L144.805 83.27L144.565 98.7669L134.843 105.172L122.234 98.4225Z" stroke="#E4ECF8" stroke-miterlimit="10"/>
<path d="M147.004 98.1126L147.21 83.3389L156.28 76.5891L167.858 82.9601L167.583 99.8345L158.891 105.207L147.004 98.1126Z" stroke="#E4ECF8" stroke-miterlimit="10"/>
<path d="M169.988 99.1801L170.262 82.6501L179.298 76.9335L189.158 83.3044L190.6 100.902L181.909 105.586L169.988 99.1801Z" stroke="#E4ECF8" stroke-miterlimit="10"/>
<path d="M192.318 100.902L191.219 82.9945L199.189 78.6554L209.393 85.3363L210.492 102.245L203.209 107.273L192.318 100.902Z" stroke="#E4ECF8" stroke-miterlimit="10"/>
<path d="M211.866 101.901L210.767 85.3708L216.676 80.6528L224.131 86.9549L226.604 103.519L221.039 108.272L211.866 101.901Z" stroke="#E4ECF8" stroke-miterlimit="10"/>
<path d="M226.192 86.9892L227.979 103.554L233.063 109.133L237.564 106.102L235.056 90.5707L230.006 84.3031L226.192 86.9892Z" stroke="#E4ECF8" stroke-miterlimit="10"/>
<path d="M236.773 90.6053L238.938 106.137L242.648 111.371L245.122 106.929L243.301 92.4304L238.903 86.8516L236.773 90.6053Z" stroke="#E4ECF8" stroke-miterlimit="10"/>
<path d="M12.8143 87.3682L14.8413 89.8133L19.3761 85.0609L24.4263 71.0448L22.3993 68.5997L18.2424 71.2859L12.8143 87.3682Z" stroke="#E4ECF8" stroke-miterlimit="10"/>
<path d="M21.0939 84.4064L25.4569 71.0447L30.3353 65.2592L33.015 69.8049L30.0948 81.7892L24.8385 87.9191L21.0939 84.4064Z" stroke="#E4ECF8" stroke-miterlimit="10"/>
<path d="M31.469 81.8237L34.7327 69.495L44.1459 61.7122L49.2304 66.6023L46.6195 78.621L37.2406 85.3707L31.469 81.8237Z" stroke="#E4ECF8" stroke-miterlimit="10"/>
<path d="M48.3373 78.9997L50.9483 66.6366L60.6707 59.5425L67.4729 65.1902L65.2055 76.1758L55.4487 84.9574L48.3373 78.9997Z" stroke="#E4ECF8" stroke-miterlimit="10"/>
<path d="M66.9231 76.1759L68.5034 65.1903L77.5387 57.7518L86.7115 64.1228L86.1962 74.4196L75.0652 83.2012L66.9231 76.1759Z" stroke="#E4ECF8" stroke-miterlimit="10"/>
<path d="M88.9446 74.1441L89.1164 64.1572L99.9038 55.72L109.077 62.4009L108.87 74.7984L98.8044 82.5468L88.9446 74.1441Z" stroke="#E4ECF8" stroke-miterlimit="10"/>
<path d="M110.932 74.4884L111.138 62.4352L122.612 54.6868L132.781 61.7465L132.575 74.4884L121.479 82.2368L110.932 74.4884Z" stroke="#E4ECF8" stroke-miterlimit="10"/>
<path d="M134.293 74.5228L134.843 61.7809L144.222 55.0311L153.772 60.3345L154.219 74.8327L145.871 81.2381L134.293 74.5228Z" stroke="#E4ECF8" stroke-miterlimit="10"/>
<path d="M156.314 74.5228L156.177 60.059L165.899 55.0311L175.072 60.3345L176.893 75.1771L168.545 81.2381L156.314 74.5228Z" stroke="#E4ECF8" stroke-miterlimit="10"/>
<path d="M178.611 74.8673L177.133 60.7134L184.073 55.6511L194.964 62.7453L198.159 77.2435L189.845 81.5826L178.611 74.8673Z" stroke="#E4ECF8" stroke-miterlimit="10"/>
<path d="M196.338 63.0896L199.567 76.9335L209.736 83.9588L216.023 79.2409L211.42 65.0526L202.247 58.3717L196.338 63.0896Z" stroke="#E4ECF8" stroke-miterlimit="10"/>
<path d="M212.794 65.087L217.054 78.9309L224.852 85.9218L229.353 82.5469L223.753 67.3255L216.298 61.6777L212.794 65.087Z" stroke="#E4ECF8" stroke-miterlimit="10"/>
<path d="M225.127 67.3255L230.727 82.9257L235.434 88.849L238.251 85.1297L232.96 71.5958L227.223 65.2937L225.127 67.3255Z" stroke="#E4ECF8" stroke-miterlimit="10"/>
<path d="M23.0865 67.2222L24.4264 69.3229L30.3698 63.8818L34.9733 54.3426L32.6372 51.1743L28.1024 54.5492L23.0865 67.2222Z" stroke="#E4ECF8" stroke-miterlimit="10"/>
<path d="M32.7744 63.9506L36.7252 53.6538L44.7299 45.5265L48.4746 49.7279L45.2109 59.3015L34.4234 67.7387L32.7744 63.9506Z" stroke="#E4ECF8" stroke-miterlimit="10"/>
<path d="M46.5852 60.0247L49.8489 49.7278L59.6057 41.2906L65.3429 46.5596L60.705 58.1651L50.2955 64.9148L46.5852 60.0247Z" stroke="#E4ECF8" stroke-miterlimit="10"/>
<path d="M62.0792 58.1995L66.7171 46.2152L75.0997 39.1211L82.2112 44.7344L78.2604 56.4087L68.16 63.4684L62.0792 58.1995Z" stroke="#E4ECF8" stroke-miterlimit="10"/>
<path d="M83.9288 44.4244L79.978 56.4087L87.7766 62.7452L99.5946 53.6193L101.484 41.9449L93.9948 37.3647L83.9288 44.4244Z" stroke="#E4ECF8" stroke-miterlimit="10"/>
<path d="M102.515 41.9793L100.969 53.3093L110.141 60.6789L121.925 52.9649L122.44 42.2893L112.924 35.6084L102.515 41.9793Z" stroke="#E4ECF8" stroke-miterlimit="10"/>
<path d="M123.815 42.3237L123.334 52.6206L133.503 60.0247L143.225 53.9981L143.397 42.6337L133.537 35.574L123.815 42.3237Z" stroke="#E4ECF8" stroke-miterlimit="10"/>
<path d="M144.771 42.6338L144.943 53.6538L154.494 58.6473L164.182 53.6194L162.326 41.1874L153.463 35.884L144.771 42.6338Z" stroke="#E4ECF8" stroke-miterlimit="10"/>
<path d="M163.357 40.8774L165.899 53.3094L176.137 59.336L183.077 54.9624L180.5 43.9079L170.64 37.537L163.357 40.8774Z" stroke="#E4ECF8" stroke-miterlimit="10"/>
<path d="M181.531 43.9079L184.107 54.2736L195.341 61.3677L201.594 57.3385L198.64 46.9384L188.127 39.8787L181.531 43.9079Z" stroke="#E4ECF8" stroke-miterlimit="10"/>
<path d="M199.327 46.9385L202.625 56.9942L211.797 64.0195L215.611 60.3002L211.694 48.867L203.862 43.9424L199.327 46.9385Z" stroke="#E4ECF8" stroke-miterlimit="10"/>
<path d="M212.691 49.2458L216.641 59.9903L224.131 65.948L226.57 63.5718L222.276 53.1717L216.504 47.5583L212.691 49.2458Z" stroke="#E4ECF8" stroke-miterlimit="10"/>
<path d="M28.1022 49.2457C28.1022 49.2457 43.5618 32.4057 126.013 33.0256C208.465 33.6455 224.268 50.2788 224.268 50.2788" stroke="#C1D1E9" stroke-miterlimit="10"/>
<path d="M114.092 26.6546L119.211 30.5116L130.548 30.7182L134.362 27.6533L134.156 19.0439L125.979 15.4624L115.604 19.1128L114.092 26.6546Z" stroke="#E4ECF8" stroke-miterlimit="10"/>
<path d="M136.56 19.7672L136.423 28.0322L142.882 31.5793L148.722 31.6826L154.975 28.6865L154.047 21.0758L145.183 16.4612L136.56 19.7672Z" stroke="#E4ECF8" stroke-miterlimit="10"/>
<path d="M155.765 21.4891L156.314 28.7209L161.09 31.5448L168.648 32.3369L173.492 29.6507L173.251 23.7964L166.105 19.5605L155.765 21.4891Z" stroke="#E4ECF8" stroke-miterlimit="10"/>
<path d="M175.141 24.8984L175.072 29.7197L180.638 33.9211L189.226 35.0919L193.04 33.0946L193.418 29.6508L184.932 24.3474L175.141 24.8984Z" stroke="#E4ECF8" stroke-miterlimit="10"/>
<path d="M194.723 29.9607L194.38 33.4388L197.471 36.8482L206.404 38.9144L204.72 32.9223L200.632 29.754L194.723 29.9607Z" stroke="#E4ECF8" stroke-miterlimit="10"/>
<path d="M112.856 19.7326L111.722 26.2758L105.813 30.6494L95.472 30.8215L92.1052 26.6546L93.926 20.1459L103.271 15.8068L112.856 19.7326Z" stroke="#E4ECF8" stroke-miterlimit="10"/>
<path d="M91.8647 20.1116L90.3875 26.9647L86.1962 31.3727L76.9204 31.9237L74.5499 29.4786L77.4357 21.5924L85.0281 17.942L91.8647 20.1116Z" stroke="#E4ECF8" stroke-miterlimit="10"/>
<path d="M75.3401 22.2467L72.8322 30.4772L70.0494 32.509L62.8006 34.0932L60.0865 32.3369L63.2815 25.8626L70.2212 21.1447L75.3401 22.2467Z" stroke="#E4ECF8" stroke-miterlimit="10"/>
<path d="M60.8424 26.1381L57.9909 32.6468L52.4598 36.7104L46.2416 37.9846L46.963 34.8852L51.8071 28.5832L58.4719 25.4149L60.8424 26.1381Z" stroke="#E4ECF8" stroke-miterlimit="10"/>
<path d="M126.941 13.8095L134.946 18.1142L143.431 15.1525L143.5 10.6756L135.53 6.74976L127.766 10.0213L126.941 13.8095Z" stroke="#E4ECF8" stroke-miterlimit="10"/>
<path d="M144.977 10.7101L144.908 15.187L154.871 19.9738L163.804 18.252L162.429 12.3976L153.463 8.12732L144.977 10.7101Z" stroke="#E4ECF8" stroke-miterlimit="10"/>
<path d="M163.804 12.3975L165.521 17.9075L174.454 22.7287L180.981 21.6956L176.824 14.1193L169.541 10.8478L163.804 12.3975Z" stroke="#E4ECF8" stroke-miterlimit="10"/>
<path d="M125.189 10.3313L124.742 13.775L113.989 17.9075L106.775 14.1194L107.977 9.64252L115.707 7.02527L125.189 10.3313Z" stroke="#E4ECF8" stroke-miterlimit="10"/>
<path d="M106.122 9.9524L105.332 13.7405L93.3764 18.5962L88.8073 15.4624L89.9753 11.02L98.461 8.09277L106.122 9.9524Z" stroke="#E4ECF8" stroke-miterlimit="10"/>
<path d="M88.1201 11.6744L85.8527 16.0824L76.2333 20.0427L72.5917 18.2519L75.8554 12.7419L81.6957 10.3313L88.1201 11.6744Z" stroke="#E4ECF8" stroke-miterlimit="10"/>
<path d="M72.6947 14.4637L70.7022 18.9406L62.457 24.795L58.678 23.4175L69.328 15.8412L72.6947 14.4637Z" stroke="#E4ECF8" stroke-miterlimit="10"/>
<path d="M177.889 14.1194L183.729 22.04L194.036 28.2388H200.22L177.889 14.1194Z" stroke="#E4ECF8" stroke-miterlimit="10"/>
<path d="M101.415 7.09415L106.534 8.57497L114.264 6.33653L114.333 3.58152L107.805 2.41064L101.484 4.33915L101.415 7.09415Z" stroke="#E4ECF8" stroke-miterlimit="10"/>
<path d="M115.81 3.27152L115.741 5.68215L125.945 8.95372L134.087 5.68215L134.121 3.27152L124.639 1.03308L115.81 3.27152Z" stroke="#E4ECF8" stroke-miterlimit="10"/>
<path d="M135.976 3.30602L135.908 5.37228L143.912 9.3326L151.642 7.05972L151.711 4.64909L144.222 2.41064L135.976 3.30602Z" stroke="#E4ECF8" stroke-miterlimit="10"/>
<path d="M152.81 5.02795L152.776 6.40546L161.124 11.0545L169.541 10.1592L166.552 8.95384L161.742 7.57634L152.81 5.02795Z" stroke="#E4ECF8" stroke-miterlimit="10"/>
<path d="M99.2511 4.99341V6.37091L88.9103 9.95242L84.8907 9.19479L90.044 6.88747L99.2511 4.99341Z" stroke="#E4ECF8" stroke-miterlimit="10"/>
<path d="M84.6158 229.664L92.1739 221.296H160.54L166.724 229.664C166.724 229.664 84.8907 229.664 84.6158 229.664Z" fill="#B1C3DE"/>
<path d="M38.1683 235.45C39.7829 236.552 49.0931 241.304 65.2399 244.335C77.0579 246.539 82.7265 245.023 84.9252 244.025V233.28L82.5547 233.659C79.8063 234.107 76.9892 234.175 74.2065 233.865L71.8703 233.624C39.5768 229.836 36.3131 221.606 36.3131 221.606C35.4542 222.329 35.4542 225.015 35.4542 225.015L36.0383 233.934C36.6566 234.382 37.4124 234.933 38.1683 235.45Z" fill="#F4D553"/>
<path d="M76.2334 258.247C73.3132 258.247 69.6716 257.937 65.1024 257.076C46.3447 253.564 37.8247 248.123 37.756 248.054C37.4811 247.847 37.2063 247.675 36.9658 247.503L37.756 259.246C37.8934 259.349 38.0308 259.418 38.1682 259.522C39.7829 260.624 49.0931 265.376 65.2398 268.406C77.0579 270.61 82.7264 269.095 84.9251 268.096V256.801C83.4479 257.524 80.6995 258.247 76.2334 258.247Z" fill="#D0DDF1"/>
<path d="M84.9594 279.185V268.923C83.4478 269.543 80.6994 270.3 76.2333 270.3C73.3132 270.3 69.6716 269.991 65.1024 269.13C47.1004 265.755 38.5117 260.589 37.7903 260.141L38.5117 270.783C40.8479 272.195 50.0206 276.603 65.2398 279.461C77.0922 281.699 82.7607 280.184 84.9594 279.185Z" fill="#D0DDF1"/>
<path d="M76.2334 281.321C73.3132 281.321 69.6716 281.011 65.1024 280.15C49.574 277.257 41.0884 273.021 38.5461 271.609L40.6418 303.188C40.8136 305.978 42.5657 308.388 45.1079 309.49C51.7728 312.349 64.8276 317.79 71.6642 319.891C81.0774 322.783 84.9252 318.031 84.9252 318.031V279.943C83.4479 280.597 80.6995 281.321 76.2334 281.321Z" fill="#D0DDF1"/>
<path d="M76.2334 246.194C73.3133 246.194 69.6717 245.884 65.1025 245.023C46.3447 241.511 37.8247 236.07 37.756 236.001C37.1033 235.553 36.5193 235.14 36.1414 234.864L36.9315 246.642C37.2751 246.883 37.6873 247.193 38.1683 247.537C39.783 248.639 49.0931 253.392 65.2399 256.422C77.058 258.626 82.7265 257.111 84.9252 256.112V244.817C83.448 245.471 80.6996 246.194 76.2334 246.194Z" fill="#F4D553"/>
<path d="M84.6158 229.664V317.962C84.6158 317.962 102.755 323.403 124.124 323.885C138.381 324.23 153.875 321.165 167.067 318.375L166.724 229.63C166.724 229.664 85.3029 229.664 84.6158 229.664Z" fill="#A7B8CF"/>
<path d="M213.515 234.761C211.901 235.863 202.59 240.615 186.444 243.646C174.626 245.85 168.957 244.335 166.758 243.336V232.591L169.129 232.97C171.877 233.418 174.694 233.487 177.477 233.177L179.813 232.936C212.107 229.148 215.37 220.917 215.37 220.917C216.229 221.64 216.229 224.326 216.229 224.326L215.645 233.246C215.061 233.693 214.271 234.244 213.515 234.761Z" fill="#F4D553"/>
<path d="M175.45 257.559C178.37 257.559 182.012 257.249 186.581 256.388C205.339 252.875 213.859 247.434 213.927 247.365C214.202 247.158 214.477 246.986 214.718 246.814L213.927 258.557C213.79 258.661 213.653 258.729 213.515 258.833C211.9 259.935 202.59 264.687 186.444 267.718C174.626 269.922 168.957 268.406 166.758 267.408V256.112C168.236 256.835 170.984 257.559 175.45 257.559Z" fill="#D0DDF1"/>
<path d="M166.724 278.497V268.234C168.235 268.854 170.984 269.612 175.45 269.612C178.37 269.612 182.012 269.302 186.581 268.441C204.583 265.066 213.172 259.9 213.893 259.453L213.172 270.094C210.835 271.506 201.663 275.914 186.444 278.772C174.591 281.011 168.923 279.495 166.724 278.497Z" fill="#D0DDF1"/>
<path d="M175.45 280.632C178.37 280.632 182.012 280.322 186.581 279.461C202.109 276.568 210.595 272.332 213.137 270.92L211.042 302.5C210.87 305.289 209.118 307.7 206.575 308.802C199.911 311.66 186.856 317.101 180.019 319.202C170.606 322.095 166.758 317.342 166.758 317.342V279.254C168.236 279.909 170.984 280.632 175.45 280.632Z" fill="#D0DDF1"/>
<path d="M175.45 245.505C178.37 245.505 182.012 245.195 186.581 244.334C205.339 240.822 213.859 235.381 213.927 235.312C214.58 234.864 215.164 234.451 215.542 234.175L214.752 245.953C214.408 246.194 213.996 246.504 213.515 246.848C211.901 247.95 202.59 252.703 186.444 255.733C174.626 257.937 168.957 256.422 166.758 255.423V244.128C168.236 244.782 170.984 245.505 175.45 245.505Z" fill="#F4D553"/>
</g>
<defs>
<clipPath id="clip0">
<rect width="250" height="473" fill="white"/>
</clipPath>
</defs>
</svg>
