<svg width="286" height="218" viewBox="0 0 286 218" fill="none" xmlns="http://www.w3.org/2000/svg">
<path d="M206.666 30.7449C206.648 30.5834 206.648 30.4204 206.666 30.2589C202.954 30.8754 199.232 31.4559 195.533 32.1625C192.437 32.7625 189.342 33.3625 186.249 33.9625L182.388 34.7095C171.951 36.7496 161.515 38.7866 151.081 40.8207C150.455 40.9015 149.82 40.7666 149.281 40.4382C147.053 39.066 144.506 38.2982 141.891 38.2106C137.022 37.9946 133.94 39.9297 131.834 44.2993C131.481 44.9334 130.898 45.4072 130.205 45.6223C124.105 47.1794 117.993 48.6794 111.867 50.1225C111.562 50.1941 111.245 50.2043 110.936 50.1525C110.627 50.1008 110.332 49.9881 110.067 49.8209C107.961 48.0209 105.881 49.9064 103.807 49.7579C103.667 49.7579 103.397 50.0324 103.357 50.2079C103.087 51.783 101.692 51.306 100.841 51.4095C99.8288 51.531 98.7488 51.0585 97.6913 50.892C95.6392 50.568 93.5602 50.1224 91.7871 51.7695C91.6566 51.891 91.3641 51.864 91.1436 51.8595C89.8836 51.837 89.294 52.674 89.186 53.7135C89.1015 55.1491 89.0894 56.5879 89.15 58.0247C88.8935 58.1507 88.3805 58.2542 88.1375 58.5647C88.0005 58.7372 87.9049 58.939 87.8581 59.1543C87.8112 59.3696 87.8145 59.5928 87.8675 59.8067C88.0745 60.1982 88.853 60.7292 89.015 60.6257C90.6261 59.5952 91.8771 60.6797 92.8221 61.5258C95.6032 63.9558 98.4203 66.4264 100.765 69.2525C102.605 71.4755 103.672 74.3196 105.265 76.7767C107.151 79.6927 109.437 82.3748 111.165 85.3809C113.361 89.197 112.515 90.214 118.558 88.981C118.853 88.9441 119.152 88.9765 119.432 89.0757C119.711 89.175 119.964 89.3382 120.169 89.5525C121.006 90.7855 121.969 90.826 123.153 90.2635C124.733 89.5165 126.33 88.8055 127.622 88.216C129.242 93.2741 135.722 122.777 141.617 125.657C141.774 125.738 146.311 123.573 146.477 123.65C148.178 124.469 149.929 125.238 151.625 126.08C155.287 124.982 158.839 123.543 162.232 121.782C162.147 121.427 162.057 121.076 161.967 120.72C161.737 119.852 161.516 118.988 161.345 118.115C160.622 114.982 160.486 111.743 160.945 108.561C161.57 104.686 162.156 100.789 162.399 96.8607C162.993 87.3655 161.85 78.2167 156.76 69.86C155.288 67.4389 154.145 64.7343 154.564 61.6878C154.622 61.2737 154.393 60.5357 154.091 60.4052C152.809 59.8382 153.025 58.9517 153.326 57.9437C154.955 52.413 154.501 47.1434 151.234 42.0312C151.778 41.8827 152.134 41.7567 152.516 41.6847C162.717 39.7497 172.926 37.8116 183.144 35.8706L186.983 35.146C191.483 34.3 195.969 33.46 200.443 32.626C202.567 32.23 204.862 32.0005 206.873 31.762C206.747 31.4371 206.677 31.0932 206.666 30.7449ZM109.509 57.0301C110.242 56.0041 110.647 54.7531 111.237 53.619C111.489 53.1375 111.763 52.431 112.173 52.305C118.185 50.4555 124.224 48.6824 130.259 46.9049C130.466 46.8757 130.677 46.8757 130.884 46.9049C131.375 51.684 128.634 55.4551 126.951 59.8292L131.163 59.4107C131.613 60.9542 132.063 62.3673 132.405 63.8073C132.711 65.1573 132.675 66.4084 131.352 67.3534C130.557 67.8657 129.891 68.5559 129.408 69.3695C128.396 71.3765 127.113 71.093 125.358 70.4585C123.603 69.824 121.677 69.86 119.895 69.41C118.824 69.14 117.645 68.726 116.871 67.9924C114.351 65.4841 111.24 63.6502 107.826 62.6598C106.165 62.1828 105.832 60.3737 107.155 59.1452C107.929 58.4252 108.901 57.8672 109.486 57.0301H109.509ZM137.409 72.4116L137.319 72.8211L129.354 71.4125L132.054 67.8574C133.031 68.3929 133.877 68.825 134.691 69.3155C134.952 69.473 135.335 69.8195 135.294 70.0085C134.916 71.6825 136.095 72.083 137.396 72.4116H137.409ZM101.705 56.0581C102.155 53.808 104.783 51.882 107.659 51.9405C105.823 54.3391 103.676 56.4991 104.284 59.7932C102.398 59.1092 101.39 57.5881 101.692 56.0581H101.705ZM114.864 75.1701C112.933 74.7201 110.899 74.2116 108.861 73.7391C106.611 73.2171 104.689 72.1415 103.541 70.1075C101.363 66.2599 98.0963 63.4698 94.6402 60.8597C94.3792 60.6617 94.1272 60.4502 93.8752 60.2387C93.8437 60.2117 93.8752 60.1307 93.8752 60.2117C95.4862 60.0632 97.0928 59.8877 98.7038 59.7842C99.1133 59.7572 99.7118 59.8157 99.9143 60.0767C101.372 61.9578 103.582 62.2143 105.62 62.8398C108.64 63.7668 111.583 64.7748 113.982 67.0159C115.422 68.3659 117.1 69.4595 118.554 70.58L114.864 75.1701ZM119.427 78.2932C118.158 77.6542 117.798 76.8757 118.275 75.6786C118.675 74.539 119.21 73.4513 119.868 72.4386C120.835 71.0885 122.068 70.679 123.895 71.1605C128.634 72.4341 133.445 73.4376 138.246 74.4636C141.689 75.2016 144.961 76.3131 147.868 78.3337C148.39 78.6982 148.876 79.1077 149.668 79.7108C148.655 79.6478 148.061 79.5847 147.463 79.5712C145.924 79.5352 144.889 80.0798 144.362 81.6998C143.462 84.5079 143.349 84.4809 140.339 84.6114C139.088 84.6699 137.846 84.7824 136.289 84.8859L139.799 88.0585C139.691 88.198 139.592 88.342 139.488 88.486C139.182 88.3908 138.882 88.2781 138.588 88.1485C132.203 84.8589 125.84 81.5198 119.418 78.2932H119.427ZM134.93 103.971C134.74 103.904 134.568 103.796 134.425 103.654C134.283 103.513 134.174 103.341 134.106 103.152C133.615 99.8658 132.469 96.7119 130.736 93.8771C130.34 93.2201 130.241 92.3831 130.007 91.6271L130.592 91.2356C132.486 93.4181 134.394 95.5917 136.266 97.7877C137.891 99.6868 139.479 101.613 141.081 103.53L141.576 103.188L139.205 98.8408C144.745 101.091 148.826 105.033 149.794 108.611C144.97 107.125 139.938 105.568 134.921 103.971H134.93ZM145.658 47.7599C145.523 49.9739 145.816 52.2105 145.937 54.6676L139.839 54.0421L139.781 54.3706L146.864 56.2696C145.37 57.9752 144.115 59.6672 142.575 61.0397C141.986 61.5708 140.69 61.6158 139.817 61.4223C138.814 61.1437 137.889 60.6353 137.117 59.9372C134.912 58.0832 132.536 57.3496 129.755 58.3982C129.433 58.4675 129.107 58.5097 128.778 58.5242C129.026 57.7807 129.327 57.0558 129.678 56.3551C130.993 54.185 131.776 51.7349 131.964 49.2044C132.666 40.0917 138.831 38.0261 146.405 40.5282C147.503 40.8927 148.448 41.7072 149.906 42.5802C146.882 43.4533 145.793 45.4018 145.649 47.7599H145.658Z" fill="black"/>
<path d="M133.854 4.94117C99.7478 4.94117 72 32.6889 72 66.7953C72 100.902 99.7478 128.654 133.854 128.654C143.73 128.665 153.463 126.299 162.232 121.755C162.146 121.4 162.056 121.049 161.966 120.693C161.737 119.825 161.516 118.961 161.345 118.088C152.897 122.638 143.45 125.013 133.854 125C101.764 125 75.6541 98.8992 75.6541 66.7953C75.6493 55.1206 79.1571 43.7144 85.7215 34.0599C92.2858 24.4053 101.603 16.9491 112.462 12.6607C123.32 8.37231 135.218 7.45009 146.608 10.014C157.998 12.5778 168.353 18.5091 176.326 27.0368L180.525 26.2402C174.728 19.5514 167.56 14.1877 159.507 10.5127C151.454 6.83778 142.706 4.93763 133.854 4.94117Z" fill="black"/>
<path d="M190.871 31.1588L188.994 31.5188L186.168 28.1483C179.07 19.682 171.97 11.2188 164.869 2.75858C164.089 1.88897 163.369 0.96732 162.714 0L190.871 31.1588Z" fill="black"/>
<path d="M199.016 29.5747L197.215 29.9167L195.361 27.6666L178.765 7.55558C178.713 7.49486 178.667 7.43016 178.625 7.36208L178.679 7.33508C185.454 14.7333 192.232 22.1465 199.016 29.5747Z" fill="black"/>
<path d="M205.892 26.3168L204.092 26.6633L195.416 16.1735C191.996 12.0424 188.573 7.91578 185.147 3.79367L185.214 3.71716L205.892 26.3168Z" fill="black"/>
<path d="M212.723 31.8249C212.46 32.4354 212.022 32.9545 211.465 33.3168C210.907 33.6791 210.255 33.8684 209.59 33.861C208.926 33.8536 208.278 33.6497 207.729 33.2751C207.179 32.9004 206.753 32.3717 206.504 31.7555C206.254 31.1392 206.192 30.463 206.326 29.8118C206.46 29.1605 206.784 28.5635 207.256 28.0957C207.729 27.6279 208.329 27.3102 208.981 27.1826C209.634 27.0551 210.309 27.1233 210.923 27.3788C211.335 27.5498 211.71 27.801 212.024 28.118C212.338 28.4349 212.586 28.8112 212.754 29.225C212.921 29.6387 213.005 30.0817 213 30.528C212.994 30.9744 212.9 31.4152 212.723 31.8249ZM210.869 27.5588C210.686 27.4852 210.498 27.425 210.307 27.3788C209.651 27.2415 208.968 27.3107 208.354 27.5768C208.323 27.5884 208.296 27.6072 208.274 27.6314C208.252 27.6557 208.236 27.6847 208.228 27.7163C208.208 27.7882 208.161 27.8497 208.097 27.8873L207.841 28.0178C207.792 28.0417 207.749 28.0765 207.715 28.1193C207.682 28.1622 207.658 28.2121 207.647 28.2653C207.641 28.3037 207.627 28.3405 207.607 28.3733C207.573 28.4232 207.537 28.4712 207.498 28.5173C207.476 28.539 207.46 28.5664 207.452 28.5965C207.444 28.6267 207.445 28.6584 207.454 28.6883C207.463 28.7235 207.476 28.758 207.49 28.7918C207.505 28.8431 207.505 28.898 207.49 28.9493C207.464 29.0879 207.385 29.2108 207.269 29.2913C207.245 29.3078 207.224 29.3295 207.209 29.3549C207.194 29.3802 207.185 29.4086 207.183 29.4379C207.18 29.4672 207.184 29.4967 207.194 29.5243C207.205 29.5519 207.221 29.5768 207.242 29.5973C207.26 29.6154 207.273 29.6369 207.283 29.6603C207.32 29.7531 207.331 29.8543 207.314 29.9529C207.307 30.0497 207.266 30.1409 207.197 30.2094C207.171 30.2367 207.153 30.2697 207.143 30.3057C207.132 30.3418 207.131 30.3797 207.138 30.4164C207.141 30.4389 207.149 30.4604 207.161 30.4792C207.174 30.4981 207.191 30.5135 207.211 30.5244C207.231 30.5355 207.25 30.5508 207.265 30.5694C207.339 30.6489 207.382 30.7529 207.386 30.8619C207.393 30.9048 207.391 30.9488 207.379 30.9908C207.367 31.0327 207.347 31.0717 207.319 31.1049C207.301 31.1277 207.289 31.1538 207.282 31.1815C207.275 31.2092 207.274 31.238 207.279 31.2662C207.284 31.2944 207.294 31.3213 207.309 31.3454C207.324 31.3695 207.344 31.3902 207.368 31.4064C207.455 31.4644 207.517 31.5527 207.543 31.6541C207.569 31.7555 207.556 31.8628 207.508 31.9554C207.492 31.9819 207.486 32.0131 207.491 32.0436C207.495 32.0741 207.511 32.1018 207.535 32.1219L207.598 32.1714C207.696 32.2317 207.77 32.3238 207.809 32.4324C207.82 32.4533 207.835 32.4717 207.854 32.4864C207.901 32.5261 207.959 32.5498 208.021 32.5539C208.115 32.5569 208.207 32.5865 208.286 32.6394C208.332 32.6652 208.372 32.7006 208.403 32.7434C208.434 32.7861 208.456 32.8351 208.466 32.8869C208.469 32.9057 208.475 32.9237 208.485 32.9398C208.495 32.9559 208.508 32.9697 208.524 32.9803C208.54 32.9909 208.558 32.9981 208.576 33.0014C208.595 33.0047 208.614 33.004 208.633 32.9994C208.773 32.9689 208.92 32.9897 209.047 33.0579C209.082 33.0734 209.114 33.0969 209.139 33.1266C209.164 33.1562 209.181 33.1913 209.191 33.2289C209.192 33.2453 209.198 33.261 209.208 33.2744C209.217 33.2878 209.23 33.2984 209.245 33.3053C209.26 33.3121 209.277 33.3149 209.293 33.3133C209.31 33.3118 209.326 33.306 209.339 33.2964C209.359 33.2833 209.38 33.2727 209.402 33.2649C209.485 33.2469 209.571 33.2469 209.654 33.2649C209.709 33.2695 209.762 33.2886 209.807 33.3202C209.852 33.3518 209.888 33.3949 209.911 33.4449C209.914 33.4544 209.92 33.4628 209.927 33.4696C209.935 33.4764 209.943 33.4813 209.953 33.484C209.963 33.4866 209.973 33.4869 209.983 33.4848C209.993 33.4827 210.002 33.4783 210.01 33.472C210.125 33.3996 210.26 33.3635 210.397 33.3684C210.455 33.3661 210.512 33.3836 210.559 33.4179C210.601 33.4542 210.652 33.479 210.707 33.4899C210.714 33.4932 210.722 33.4949 210.73 33.4949C210.737 33.4949 210.745 33.4932 210.752 33.4899C211.178 33.3302 211.564 33.0802 211.884 32.7571C212.204 32.4339 212.451 32.0453 212.606 31.6179C212.672 31.4495 212.721 31.2745 212.75 31.0959C212.851 30.5551 212.811 29.9974 212.633 29.4769C212.455 28.9564 212.145 28.4909 211.733 28.1258C211.477 27.8923 211.185 27.7009 210.869 27.5588Z" fill="black"/>
<path d="M208.092 31.7708C208.164 31.8014 208.227 31.8504 208.275 31.9127C208.322 31.9751 208.352 32.0487 208.362 32.1263C208.366 32.1539 208.364 32.1819 208.357 32.2087C208.35 32.2356 208.337 32.2607 208.32 32.2825C208.303 32.3043 208.281 32.3225 208.257 32.3359C208.232 32.3492 208.206 32.3576 208.178 32.3603C208.146 32.3603 208.133 32.3603 208.128 32.3243C208.118 32.2293 208.077 32.1401 208.012 32.0697C207.948 31.9993 207.862 31.9513 207.768 31.9328C207.732 31.9328 207.723 31.9058 207.737 31.8743C207.753 31.8341 207.781 31.7996 207.817 31.7756C207.853 31.7515 207.896 31.7388 207.939 31.7393C207.992 31.7385 208.044 31.7492 208.092 31.7708Z" fill="black"/>
<path d="M208.727 32.3739C208.66 32.3465 208.588 32.3342 208.516 32.3379C208.475 32.3379 208.462 32.3154 208.48 32.2794C208.495 32.2457 208.518 32.216 208.547 32.1926C208.576 32.1692 208.61 32.1527 208.646 32.1444C208.743 32.1221 208.845 32.1325 208.935 32.174C209.025 32.2156 209.1 32.2858 209.146 32.3739C209.159 32.4013 209.168 32.4312 209.17 32.4618C209.171 32.4924 209.167 32.523 209.157 32.5519C209.147 32.5809 209.131 32.6075 209.111 32.6303C209.09 32.653 209.066 32.6714 209.038 32.6844C208.997 32.6844 208.984 32.6844 208.975 32.6529C208.958 32.5903 208.927 32.5324 208.884 32.484C208.841 32.4355 208.787 32.3978 208.727 32.3739Z" fill="black"/>
<path d="M207.926 30.8259C208.018 30.871 208.091 30.9459 208.134 31.0384C208.178 31.1308 208.188 31.2351 208.165 31.3344C208.153 31.3793 208.13 31.4207 208.099 31.4552C208.067 31.4896 208.028 31.5161 207.985 31.5324C207.977 31.5357 207.968 31.5374 207.96 31.5374C207.951 31.5374 207.943 31.5357 207.935 31.5324C207.935 31.5324 207.935 31.5054 207.935 31.4874C207.962 31.3958 207.959 31.298 207.927 31.2082C207.894 31.1185 207.834 31.0413 207.755 30.9879L207.683 30.9519C207.672 30.9484 207.663 30.9419 207.655 30.9331C207.648 30.9243 207.644 30.9137 207.643 30.9024C207.643 30.8754 207.643 30.8619 207.679 30.8484C207.715 30.8257 207.757 30.8119 207.8 30.808C207.843 30.8041 207.886 30.8102 207.926 30.8259Z" fill="black"/>
<path d="M208.988 31.7618C208.966 31.8076 208.934 31.8477 208.894 31.8788H208.858C208.858 31.8788 208.858 31.8563 208.858 31.8428C208.866 31.7816 208.861 31.7193 208.844 31.6599C208.827 31.6005 208.798 31.5452 208.759 31.4975C208.72 31.4498 208.671 31.4107 208.616 31.3826C208.561 31.3545 208.501 31.3381 208.439 31.3343C208.439 31.3343 208.399 31.3343 208.399 31.3118C208.399 31.2893 208.399 31.2803 208.399 31.2713C208.458 31.2254 208.529 31.1983 208.604 31.1935C208.678 31.1887 208.753 31.2064 208.817 31.2443C208.876 31.2763 208.927 31.3221 208.964 31.3777C209.002 31.4333 209.025 31.4971 209.033 31.5638C209.038 31.6328 209.022 31.7017 208.988 31.7618Z" fill="black"/>
<path d="M209.686 32.6708C209.724 32.6859 209.759 32.7084 209.788 32.737C209.817 32.7656 209.841 32.7997 209.857 32.8373C209.873 32.8852 209.872 32.9368 209.855 32.9842C209.838 33.0315 209.805 33.0717 209.762 33.0983C209.759 33.1021 209.756 33.1051 209.751 33.1072C209.747 33.1093 209.742 33.1104 209.738 33.1104C209.733 33.1104 209.728 33.1093 209.724 33.1072C209.72 33.1051 209.716 33.1021 209.713 33.0983C209.681 33.0211 209.625 32.9568 209.552 32.9159C209.479 32.8751 209.395 32.86 209.312 32.8733H209.204C209.198 32.8787 209.189 32.8813 209.181 32.8804C209.172 32.8796 209.165 32.8754 209.159 32.8688C209.154 32.8623 209.151 32.8538 209.152 32.8454C209.153 32.837 209.157 32.8292 209.164 32.8238C209.177 32.7863 209.199 32.7524 209.228 32.7251C209.257 32.6977 209.292 32.6776 209.33 32.6663C209.387 32.6429 209.447 32.6312 209.509 32.632C209.57 32.6328 209.63 32.646 209.686 32.6708Z" fill="black"/>
<path d="M208.016 30.3849C207.996 30.4341 207.966 30.4786 207.929 30.5158C207.891 30.553 207.845 30.5819 207.796 30.6009C207.79 30.6044 207.783 30.6063 207.776 30.6063C207.768 30.6063 207.761 30.6044 207.755 30.6009C207.733 30.6009 207.728 30.5694 207.755 30.5424C207.794 30.4812 207.819 30.412 207.827 30.3399C207.836 30.2777 207.829 30.2144 207.809 30.1551C207.789 30.0957 207.755 30.0419 207.71 29.9979C207.7 29.9851 207.688 29.9744 207.674 29.9664C207.669 29.9583 207.666 29.9489 207.666 29.9394C207.666 29.9298 207.669 29.9204 207.674 29.9124C207.676 29.9022 207.681 29.8929 207.688 29.8856C207.695 29.8784 207.705 29.8736 207.715 29.8719C207.761 29.8583 207.81 29.8583 207.856 29.8719C207.903 29.8854 207.944 29.912 207.976 29.9483C208.019 29.9955 208.05 30.0525 208.067 30.1145C208.083 30.1764 208.084 30.2414 208.07 30.3039C208.054 30.332 208.036 30.3591 208.016 30.3849Z" fill="black"/>
<path d="M209.645 31.6763C209.714 31.7028 209.774 31.7507 209.814 31.813C209.854 31.8752 209.874 31.9487 209.87 32.0228C209.868 32.0965 209.839 32.1669 209.789 32.2208C209.784 32.224 209.777 32.2257 209.771 32.2257C209.765 32.2257 209.759 32.224 209.753 32.2208C209.747 32.2179 209.742 32.2134 209.738 32.2079C209.734 32.2024 209.731 32.196 209.731 32.1893C209.729 32.13 209.715 32.0717 209.688 32.0185C209.662 31.9653 209.624 31.9184 209.578 31.8812C209.532 31.8439 209.478 31.8172 209.421 31.8028C209.363 31.7884 209.303 31.7867 209.245 31.7978C209.245 31.7978 209.245 31.7978 209.218 31.7978C209.203 31.803 209.187 31.803 209.173 31.7978C209.173 31.7978 209.173 31.7663 209.173 31.7528C209.215 31.709 209.268 31.6765 209.326 31.6583C209.43 31.6222 209.545 31.6287 209.645 31.6763Z" fill="black"/>
<path d="M208.916 30.7088C208.886 30.7722 208.841 30.8277 208.785 30.8708C208.785 30.8708 208.749 30.8708 208.727 30.8708C208.704 30.8708 208.727 30.8348 208.727 30.8123C208.767 30.7192 208.775 30.6152 208.749 30.5172C208.723 30.4192 208.664 30.3329 208.583 30.2723C208.551 30.2505 208.516 30.2338 208.479 30.2228C208.479 30.2228 208.439 30.2228 208.439 30.1823C208.439 30.1418 208.461 30.1463 208.484 30.1373C208.555 30.1217 208.63 30.127 208.699 30.1525C208.767 30.1781 208.827 30.2227 208.871 30.2813C208.916 30.342 208.944 30.4137 208.952 30.4889C208.96 30.5641 208.947 30.64 208.916 30.7088Z" fill="black"/>
<path d="M210.554 32.7068C210.588 32.7166 210.618 32.7356 210.641 32.7616C210.664 32.7877 210.679 32.8197 210.685 32.8541C210.69 32.8884 210.686 32.9237 210.673 32.9558C210.659 32.9878 210.637 33.0154 210.608 33.0354C210.608 33.0354 210.572 33.0579 210.559 33.0354C210.527 32.9919 210.483 32.958 210.433 32.9374C210.383 32.9168 210.329 32.9102 210.275 32.9183C210.203 32.9192 210.133 32.9361 210.068 32.9678C210.068 32.9678 210.037 32.9678 210.023 32.9678C210.02 32.96 210.018 32.9516 210.018 32.9431C210.018 32.9346 210.02 32.9262 210.023 32.9183C210.038 32.8625 210.073 32.8143 210.122 32.7833C210.176 32.739 210.239 32.7078 210.307 32.6922C210.375 32.6766 210.446 32.677 210.514 32.6933L210.554 32.7068Z" fill="black"/>
<path d="M208.201 29.3184C208.161 29.4259 208.083 29.5144 207.98 29.5659C207.947 29.581 207.913 29.5917 207.877 29.5974C207.874 29.6004 207.87 29.6027 207.866 29.6044C207.863 29.606 207.858 29.6068 207.854 29.6068C207.85 29.6068 207.846 29.606 207.842 29.6044C207.838 29.6027 207.835 29.6004 207.832 29.5974C207.827 29.5827 207.827 29.567 207.832 29.5524C207.859 29.5164 207.89 29.4849 207.913 29.4489C207.944 29.406 207.967 29.3573 207.979 29.3055C207.992 29.2536 207.994 29.1999 207.985 29.1474C207.979 29.0977 207.958 29.0508 207.926 29.0124C207.921 29.0064 207.918 28.9991 207.916 28.9913C207.915 28.9834 207.916 28.9754 207.92 28.9682C207.923 28.961 207.928 28.955 207.935 28.9508C207.942 28.9467 207.95 28.9446 207.958 28.9448C207.987 28.9404 208.017 28.942 208.046 28.9494C208.074 28.9568 208.101 28.9699 208.125 28.988C208.148 29.0061 208.168 29.0287 208.183 29.0545C208.197 29.0804 208.206 29.1089 208.21 29.1384C208.221 29.1982 208.218 29.2599 208.201 29.3184Z" fill="black"/>
<path d="M210.676 32.3333L210.645 32.3873C210.637 32.39 210.629 32.39 210.622 32.3873C210.62 32.3798 210.62 32.3722 210.622 32.3648C210.622 32.3648 210.622 32.3333 210.622 32.3198C210.6 32.2482 210.554 32.1865 210.491 32.1447C210.429 32.103 210.355 32.0838 210.28 32.0903C210.217 32.0891 210.155 32.1046 210.1 32.1353C210.093 32.1416 210.084 32.1451 210.075 32.1451C210.066 32.1451 210.057 32.1416 210.051 32.1353C210.051 32.1353 210.051 32.1038 210.051 32.0903C210.11 32.0174 210.19 31.9648 210.28 31.9398C210.371 31.9148 210.466 31.9186 210.555 31.9508C210.588 31.9674 210.618 31.9906 210.642 32.019C210.667 32.0475 210.685 32.0805 210.696 32.1162C210.708 32.1519 210.712 32.1895 210.708 32.2268C210.705 32.2641 210.694 32.3003 210.676 32.3333Z" fill="black"/>
<path d="M209.627 30.5603C209.712 30.6029 209.779 30.6743 209.816 30.7617C209.853 30.849 209.858 30.9467 209.83 31.0373C209.813 31.0931 209.785 31.1451 209.749 31.1903C209.749 31.1903 209.722 31.2218 209.699 31.1903C209.677 31.1588 209.699 31.1588 209.699 31.1408C209.721 31.0611 209.72 30.9769 209.697 30.8975C209.674 30.8181 209.63 30.7466 209.569 30.6908C209.502 30.6295 209.416 30.593 209.326 30.5873C209.294 30.5873 209.276 30.5603 209.29 30.5378C209.295 30.5258 209.305 30.5162 209.317 30.5108C209.423 30.4894 209.533 30.507 209.627 30.5603Z" fill="black"/>
<path d="M208.876 29.6018C208.831 29.7059 208.749 29.7895 208.646 29.8358C208.646 29.8358 208.606 29.8358 208.588 29.8358C208.57 29.8358 208.588 29.7998 208.588 29.7818C208.646 29.7244 208.686 29.6508 208.702 29.5706C208.718 29.4904 208.709 29.4072 208.678 29.3318C208.658 29.2712 208.618 29.219 208.565 29.1833C208.565 29.1833 208.534 29.1563 208.565 29.1338C208.597 29.1113 208.597 29.1113 208.615 29.1338C208.662 29.1384 208.707 29.1529 208.748 29.1765C208.789 29.2 208.825 29.232 208.852 29.2703C208.88 29.3086 208.899 29.3524 208.909 29.3987C208.918 29.445 208.918 29.4927 208.907 29.5388L208.876 29.6018Z" fill="black"/>
<path d="M208.169 28.4183C208.135 28.4903 208.085 28.5531 208.023 28.6017C207.96 28.6502 207.887 28.683 207.809 28.6973C207.788 28.702 207.766 28.702 207.746 28.6973C207.738 28.6955 207.73 28.6917 207.724 28.6862C207.717 28.6807 207.713 28.6737 207.71 28.6658C207.71 28.6658 207.71 28.6343 207.71 28.6253C207.803 28.5741 207.878 28.4956 207.926 28.4003C207.954 28.3465 207.965 28.2852 207.957 28.2248C207.957 28.1708 207.98 28.1438 208.029 28.1483C208.053 28.1495 208.076 28.156 208.096 28.1672C208.117 28.1783 208.135 28.194 208.148 28.213C208.162 28.2319 208.172 28.2538 208.176 28.2768C208.18 28.2999 208.179 28.3236 208.173 28.3463C208.187 28.3688 208.173 28.3913 208.169 28.4183Z" fill="black"/>
<path d="M211.225 33.1163L211.18 33.1883C211.177 33.192 211.173 33.1951 211.169 33.1971C211.165 33.1992 211.16 33.2003 211.155 33.2003C211.15 33.2003 211.146 33.1992 211.141 33.1971C211.137 33.1951 211.133 33.192 211.13 33.1883C211.106 33.1712 211.078 33.1596 211.048 33.1542C211.019 33.1487 210.988 33.1496 210.959 33.1568C210.873 33.168 210.791 33.2004 210.721 33.2513C210.721 33.2513 210.689 33.2738 210.671 33.2513C210.667 33.2366 210.667 33.2209 210.671 33.2063C210.678 33.1562 210.702 33.1101 210.739 33.0758C210.827 32.9776 210.949 32.9165 211.081 32.9048H211.153C211.171 32.9072 211.189 32.914 211.204 32.9245C211.219 32.935 211.231 32.9489 211.24 32.9651C211.249 32.9814 211.254 32.9994 211.254 33.0179C211.255 33.0363 211.251 33.0546 211.243 33.0713C211.243 33.0713 211.243 33.0713 211.243 33.0938L211.225 33.1163Z" fill="black"/>
<path d="M210.766 32.4188C210.8 32.3498 210.852 32.2908 210.916 32.2474C210.979 32.2041 211.053 32.1779 211.13 32.1713C211.178 32.163 211.227 32.1709 211.27 32.1938C211.313 32.2185 211.346 32.2584 211.361 32.3057C211.377 32.3531 211.375 32.4046 211.355 32.4503V32.4953C211.355 32.4953 211.324 32.4953 211.315 32.4953C211.305 32.4677 211.29 32.4425 211.27 32.4215C211.249 32.4005 211.225 32.3842 211.198 32.3738C211.13 32.347 211.054 32.347 210.986 32.3738C210.932 32.3981 210.88 32.4252 210.829 32.4548C210.829 32.4548 210.797 32.4863 210.784 32.4548C210.77 32.4233 210.784 32.4233 210.784 32.4098L210.766 32.4188Z" fill="black"/>
<path d="M208.871 28.6343C208.837 28.7062 208.785 28.7679 208.719 28.8129C208.653 28.858 208.577 28.8849 208.498 28.8908C208.498 28.8908 208.462 28.8908 208.457 28.8908C208.452 28.8844 208.449 28.8764 208.449 28.8683C208.449 28.8601 208.452 28.8521 208.457 28.8458C208.547 28.8029 208.619 28.7317 208.664 28.6433C208.689 28.6003 208.703 28.5514 208.703 28.5015C208.703 28.4516 208.689 28.4027 208.664 28.3597C208.664 28.3597 208.664 28.3237 208.664 28.3192C208.671 28.316 208.679 28.3143 208.687 28.3143C208.694 28.3143 208.702 28.316 208.709 28.3192C208.74 28.3265 208.769 28.34 208.794 28.3589C208.82 28.3777 208.841 28.4015 208.857 28.4289C208.873 28.4562 208.884 28.4865 208.887 28.518C208.891 28.5494 208.889 28.5813 208.88 28.6118C208.877 28.6194 208.874 28.6269 208.871 28.6343Z" fill="black"/>
<path d="M210.455 30.9158C210.544 30.9476 210.618 31.0111 210.663 31.0942C210.708 31.1773 210.72 31.274 210.698 31.3658V31.4108C210.698 31.4333 210.698 31.4513 210.658 31.4468C210.617 31.4423 210.631 31.4198 210.631 31.4018C210.631 31.3409 210.617 31.2808 210.59 31.2263C210.557 31.1545 210.502 31.0948 210.434 31.0553C210.365 31.0158 210.286 30.9985 210.208 31.0058H210.176C210.176 31.0058 210.131 31.0058 210.118 31.0058C210.104 31.0058 210.118 30.9653 210.154 30.9563C210.245 30.9036 210.353 30.8891 210.455 30.9158Z" fill="black"/>
<path d="M209.744 30.0023C209.721 30.0573 209.684 30.1054 209.636 30.1418C209.629 30.1453 209.622 30.1472 209.614 30.1472C209.606 30.1472 209.598 30.1453 209.591 30.1418C209.591 30.1418 209.591 30.1148 209.591 30.1013C209.615 30.0491 209.635 29.9949 209.65 29.9393C209.665 29.8485 209.65 29.7552 209.607 29.6738C209.564 29.5925 209.495 29.5276 209.411 29.4893C209.411 29.4893 209.38 29.4893 209.384 29.4533C209.389 29.4173 209.407 29.4533 209.425 29.4533C209.486 29.4602 209.545 29.4814 209.597 29.5152C209.648 29.5489 209.691 29.5942 209.722 29.6476C209.753 29.7009 209.772 29.7607 209.775 29.8223C209.779 29.8839 209.768 29.9455 209.744 30.0023Z" fill="black"/>
<path d="M208.916 27.8783C208.871 27.9593 208.799 28.0227 208.714 28.0583C208.626 28.1023 208.526 28.1165 208.43 28.0988C208.399 28.0988 208.385 28.0763 208.394 28.0538C208.402 28.0429 208.413 28.035 208.426 28.0313C208.518 28.0073 208.603 27.9609 208.673 27.8963C208.702 27.8745 208.725 27.8457 208.74 27.8127C208.755 27.7797 208.761 27.7434 208.759 27.7072C208.759 27.6757 208.759 27.6577 208.804 27.6667C208.827 27.6701 208.849 27.6788 208.868 27.6922C208.887 27.7057 208.903 27.7234 208.913 27.744C208.924 27.7646 208.93 27.7875 208.931 27.8108C208.931 27.8341 208.926 27.8572 208.916 27.8783Z" fill="black"/>
<path d="M211.202 31.4468C211.261 31.474 211.309 31.5203 211.339 31.5783C211.368 31.6363 211.377 31.7026 211.364 31.7663C211.367 31.7782 211.367 31.7905 211.364 31.8023C211.364 31.8023 211.364 31.8248 211.337 31.8248C211.31 31.8248 211.337 31.8248 211.31 31.8023C211.308 31.7844 211.308 31.7663 211.31 31.7483C211.298 31.7122 211.28 31.6788 211.255 31.6499C211.23 31.6211 211.2 31.5974 211.166 31.5803C211.132 31.5631 211.095 31.5528 211.057 31.55C211.02 31.5472 210.982 31.5519 210.946 31.5638L210.86 31.5998C210.86 31.5998 210.829 31.5998 210.82 31.5998C210.815 31.5867 210.815 31.5725 210.82 31.5593C210.866 31.5067 210.927 31.4686 210.995 31.4494C211.063 31.4303 211.135 31.431 211.202 31.4513V31.4468Z" fill="black"/>
<path d="M211.432 32.6168C211.491 32.4877 211.6 32.3875 211.733 32.3378C211.766 32.3246 211.803 32.3246 211.837 32.3378C211.851 32.3437 211.864 32.3529 211.874 32.3646C211.884 32.3763 211.891 32.3903 211.895 32.4053C211.906 32.4451 211.906 32.4871 211.895 32.5268C211.893 32.5327 211.889 32.5379 211.885 32.5423C211.88 32.5467 211.875 32.55 211.869 32.5521C211.863 32.5542 211.856 32.5551 211.85 32.5546C211.844 32.5541 211.838 32.5523 211.832 32.5493C211.809 32.5371 211.784 32.5307 211.758 32.5307C211.732 32.5307 211.706 32.5371 211.684 32.5493C211.605 32.5775 211.535 32.6256 211.481 32.6888H211.45C211.448 32.6769 211.448 32.6648 211.45 32.6528C211.443 32.6411 211.437 32.6291 211.432 32.6168Z" fill="black"/>
<path d="M209.695 28.9493C209.652 29.0383 209.579 29.1087 209.488 29.1473C209.488 29.1473 209.447 29.1473 209.434 29.1473C209.42 29.1473 209.434 29.1113 209.434 29.0978C209.481 29.0612 209.519 29.0131 209.542 28.9579C209.566 28.9028 209.575 28.8425 209.569 28.7828C209.562 28.7053 209.527 28.633 209.47 28.5803C209.467 28.5684 209.467 28.5562 209.47 28.5443C209.483 28.542 209.497 28.542 209.51 28.5443C209.585 28.5683 209.648 28.6196 209.686 28.6881C209.725 28.7566 209.736 28.837 209.717 28.9133C209.717 28.9133 209.699 28.9358 209.695 28.9493Z" fill="black"/>
<path d="M209.641 28.1167C209.612 28.1752 209.564 28.2226 209.506 28.2517C209.424 28.2928 209.332 28.3099 209.24 28.3012C209.24 28.3012 209.204 28.3012 209.204 28.2742C209.204 28.2472 209.204 28.2427 209.236 28.2382C209.322 28.2237 209.401 28.181 209.461 28.1167C209.485 28.094 209.503 28.0657 209.514 28.0344C209.525 28.0031 209.529 27.9696 209.524 27.9367C209.524 27.9367 209.524 27.8962 209.551 27.8872C209.558 27.8818 209.567 27.8788 209.576 27.8788C209.585 27.8788 209.593 27.8818 209.6 27.8872C209.632 27.915 209.654 27.953 209.661 27.9948C209.669 28.0366 209.662 28.0797 209.641 28.1167Z" fill="black"/>
<path d="M209.596 27.5588C209.577 27.5804 209.556 27.6 209.533 27.6173C209.429 27.6708 209.31 27.6897 209.195 27.6713H209.159C209.149 27.6702 209.14 27.6654 209.133 27.658C209.127 27.6505 209.123 27.6408 209.123 27.6308C209.123 27.6038 209.123 27.5948 209.164 27.5903C209.212 27.5839 209.26 27.5749 209.308 27.5633C209.343 27.5557 209.377 27.5406 209.407 27.5188C209.436 27.4971 209.461 27.4693 209.479 27.4373C209.479 27.4373 209.51 27.4148 209.528 27.4148C209.555 27.4259 209.578 27.4469 209.59 27.4736C209.603 27.5003 209.605 27.5307 209.596 27.5588Z" fill="black"/>
<path d="M211.917 31.4468C211.948 31.4626 211.973 31.4866 211.991 31.516C212.008 31.5454 212.017 31.5791 212.016 31.6133C212.016 31.6133 212.016 31.6448 211.989 31.6493C211.983 31.6524 211.976 31.6541 211.969 31.6541C211.962 31.6541 211.955 31.6524 211.949 31.6493C211.919 31.6172 211.879 31.5961 211.836 31.5896C211.793 31.583 211.748 31.5914 211.71 31.6133C211.665 31.6422 211.622 31.6738 211.58 31.7078C211.568 31.7116 211.556 31.7116 211.544 31.7078C211.544 31.7078 211.544 31.6808 211.544 31.6673C211.593 31.5641 211.68 31.4837 211.787 31.4423C211.83 31.429 211.876 31.4306 211.917 31.4468Z" fill="black"/>
<path d="M209.866 27.8603C209.866 27.8603 209.834 27.8602 209.839 27.8242C209.843 27.7882 209.861 27.8242 209.879 27.8242C209.961 27.8371 210.044 27.8294 210.122 27.8017C210.149 27.7946 210.172 27.7795 210.19 27.7587C210.207 27.7378 210.218 27.712 210.221 27.6847C210.221 27.6622 210.221 27.6577 210.262 27.6847C210.28 27.6947 210.296 27.7096 210.307 27.7278C210.318 27.746 210.324 27.7669 210.324 27.7882C210.324 27.8095 210.318 27.8304 210.307 27.8487C210.296 27.8669 210.28 27.8818 210.262 27.8917C210.189 27.927 210.107 27.938 210.028 27.9232L209.893 27.8962L209.866 27.8603Z" fill="black"/>
<path d="M212.066 31.96C212.104 31.8647 212.17 31.7832 212.255 31.726C212.305 31.6945 212.345 31.69 212.372 31.726C212.382 31.7423 212.387 31.761 212.387 31.78C212.387 31.7991 212.382 31.8178 212.372 31.834C212.372 31.834 212.341 31.8565 212.332 31.834C212.31 31.8273 212.287 31.8267 212.264 31.8323C212.242 31.8378 212.222 31.8493 212.206 31.8655C212.166 31.9023 212.128 31.9413 212.093 31.9825C212.093 31.9825 212.093 31.9825 212.062 31.9825C212.059 31.9776 212.058 31.9722 212.058 31.9668C212.058 31.9613 212.059 31.9559 212.062 31.951C212.063 31.9539 212.065 31.9569 212.066 31.96Z" fill="black"/>
<path d="M210.438 28.4272C210.42 28.4696 210.391 28.5068 210.355 28.5351C210.319 28.5635 210.276 28.5821 210.231 28.5892H210.177H210.15C210.146 28.5775 210.146 28.5649 210.15 28.5532L210.195 28.5307C210.245 28.5087 210.287 28.4708 210.313 28.4229C210.34 28.375 210.351 28.3196 210.343 28.2652C210.34 28.2591 210.338 28.2521 210.338 28.245C210.338 28.2379 210.34 28.2309 210.343 28.2247C210.343 28.2247 210.375 28.2247 210.384 28.2247C210.409 28.2511 210.427 28.2836 210.437 28.319C210.446 28.3544 210.447 28.3917 210.438 28.4272Z" fill="black"/>
<path d="M210.419 27.6262L210.325 27.5677C210.325 27.5677 210.325 27.5407 210.325 27.5317C210.325 27.5227 210.325 27.5317 210.361 27.5317C210.448 27.5701 210.541 27.5915 210.635 27.5947H210.721H210.716C210.735 27.6089 210.752 27.6255 210.766 27.6442C210.766 27.6712 210.766 27.6937 210.766 27.6982H210.662C210.578 27.6882 210.496 27.6639 210.419 27.6262Z" fill="black"/>
<path d="M210.662 28.1663C210.664 28.1559 210.664 28.1453 210.662 28.1348H210.694C210.733 28.1369 210.772 28.1369 210.811 28.1348C210.852 28.1323 210.893 28.1232 210.932 28.1078C210.947 28.1026 210.96 28.0937 210.97 28.0818C210.981 28.07 210.988 28.0557 210.991 28.0403C210.993 28.0334 210.997 28.0272 211.003 28.0225C211.008 28.0177 211.015 28.0145 211.022 28.0133C211.022 28.0133 211.022 28.0133 211.049 28.0403C211.059 28.0678 211.059 28.0982 211.047 28.1251C211.035 28.152 211.013 28.1733 210.986 28.1843C210.931 28.2022 210.871 28.2022 210.815 28.1843L210.703 28.1618L210.662 28.1663Z" fill="black"/>
<path d="M212.471 31.2803L212.543 31.1588L212.57 31.1318C212.57 31.1318 212.615 31.0868 212.647 31.1048C212.678 31.1228 212.674 31.1543 212.674 31.1858C212.675 31.1896 212.674 31.1934 212.673 31.1971C212.672 31.2008 212.67 31.2041 212.668 31.2068C212.665 31.2095 212.662 31.2115 212.658 31.2125C212.654 31.2136 212.65 31.2137 212.647 31.2128C212.633 31.2137 212.619 31.2174 212.607 31.2235C212.595 31.2297 212.584 31.2383 212.575 31.2488C212.528 31.2999 212.491 31.3595 212.467 31.4243C212.467 31.4243 212.467 31.4468 212.44 31.4468C212.413 31.4468 212.44 31.4243 212.44 31.4108C212.447 31.3667 212.458 31.3231 212.471 31.2803Z" fill="black"/>
<path d="M211.166 27.9413L211.072 27.8918C211.072 27.8918 211.04 27.8693 211.072 27.8513C211.103 27.8333 211.099 27.8513 211.112 27.8513L211.256 27.9008C211.295 27.9053 211.335 27.9053 211.373 27.9008C211.379 27.8987 211.386 27.898 211.392 27.8987C211.398 27.8995 211.404 27.9017 211.409 27.9052C211.415 27.9087 211.419 27.9134 211.422 27.9189C211.425 27.9243 211.427 27.9305 211.427 27.9368C211.427 27.9638 211.427 27.9863 211.4 27.9908H211.292C211.22 27.9683 211.166 27.9503 211.166 27.9413Z" fill="black"/>
<path d="M206.738 29.7054L204.038 30.1555C203.802 30.1931 203.591 30.3227 203.451 30.516C203.311 30.7093 203.253 30.9503 203.291 31.186L203.404 31.8565C203.442 32.0914 203.572 32.3014 203.765 32.4406C203.959 32.5797 204.199 32.6367 204.434 32.599L207.085 32.149C206.654 31.4111 206.53 30.5339 206.738 29.7054Z" fill="black"/>
<path d="M24.936 173.023C23.795 171.868 22.434 170.954 20.9335 170.334C19.433 169.714 17.8234 169.401 16.1998 169.413C9.54389 169.413 4.41769 174.183 4.41769 180.916C4.41769 187.368 9.98612 192.097 16.2404 192.097C19.119 192.11 21.906 191.087 24.0922 189.214V183.763H20.2475L18.3613 179.435H28.4242V191.055C26.8825 192.767 24.9967 194.135 22.8902 195.068C20.7836 196.001 18.5038 196.479 16.1998 196.47C14.0817 196.498 11.9794 196.101 10.017 195.304C8.05454 194.506 6.2717 193.324 4.77361 191.826C3.27551 190.328 2.09248 188.546 1.29432 186.584C0.496161 184.621 0.099022 182.519 0.126317 180.401C0.126317 171.584 7.66219 165.009 16.2404 165.009C18.3743 165.003 20.4885 165.418 22.4621 166.229C24.4357 167.041 26.2301 168.233 27.7428 169.738L24.936 173.023Z" fill="black"/>
<path d="M49.8994 196.466C47.7801 196.495 45.6764 196.1 43.7124 195.303C41.7484 194.507 39.9639 193.324 38.4644 191.826C36.9648 190.329 35.7806 188.545 34.9816 186.582C34.1826 184.619 33.785 182.516 33.8124 180.397C33.8124 171.579 41.3482 165.005 49.922 165.005C58.78 165.005 65.9955 171.94 65.9955 180.875C66.0135 189.692 58.5589 196.466 49.8994 196.466ZM49.8994 169.413C43.248 169.413 38.1173 174.183 38.1173 180.916C38.1173 187.368 43.6902 192.098 49.94 192.098C56.3523 192.098 61.6725 187.134 61.6725 180.636C61.6861 174.061 56.2756 169.413 49.8994 169.413Z" fill="black"/>
<path d="M72.823 195.784V165.889H77.1911V191.416H93.7836V195.784H72.823Z" fill="black"/>
<path d="M103.358 195.784H98.9902V165.889H120.032V170.298H103.336V179.354C105.141 178.312 107.027 178.19 108.99 178.19H115.52V182.639H109.013C107.086 182.639 105.163 182.842 103.358 183.804V195.784Z" fill="black"/>
<path d="M147.604 196.466C145.224 196.432 142.883 195.863 140.753 194.802C138.622 193.74 136.758 192.213 135.299 190.333L138.426 187.409C139.992 189.291 142.916 192.098 147.604 192.098C152.013 192.098 156.462 190.414 156.462 186.683C156.462 182.116 151.95 182.116 147.604 182.116C140.47 182.116 136.585 179.472 136.585 174.381C136.585 169.531 141.192 165 147.604 165C152.117 165 156.061 166.282 159.63 169.729L156.922 172.937C153.714 170.329 151.431 169.409 147.622 169.409C144.256 169.409 141.449 171.733 141.449 174.341C141.449 176.146 142.735 177.784 147.825 177.784C158.285 177.784 160.97 181.033 160.97 186.683C160.952 192.698 155.199 196.466 147.604 196.466Z" fill="black"/>
<path d="M204.872 165.889L195.332 195.784H190.603L184.836 178.113L179.223 195.784H174.494L164.354 165.889H168.867L176.799 188.253L182.413 170.618L180.888 165.889H185.4L192.936 188.253L200.31 165.889H204.872Z" fill="black"/>
<path d="M210.702 195.784V165.889H214.994V195.784H210.702Z" fill="black"/>
<path d="M221.18 165.889H226.834L246.031 188.731V165.889H250.439V195.784H246.112L228.964 175.225V195.784H224.691V170.095L221.18 165.889Z" fill="black"/>
<path d="M282.058 173.023C280.917 171.868 279.556 170.954 278.056 170.334C276.555 169.714 274.945 169.401 273.322 169.413C266.666 169.413 261.535 174.183 261.535 180.916C261.535 187.368 267.108 192.097 273.363 192.097C276.241 192.11 279.028 191.087 281.214 189.214V183.763H277.37L275.483 179.435H285.546V191.055C284.005 192.767 282.119 194.135 280.012 195.068C277.906 196.001 275.626 196.479 273.322 196.47C271.204 196.498 269.101 196.101 267.139 195.304C265.177 194.506 263.394 193.324 261.896 191.826C260.398 190.328 259.215 188.546 258.416 186.584C257.618 184.621 257.221 182.519 257.248 180.401C257.248 171.584 264.784 165.009 273.363 165.009C275.496 165.003 277.611 165.418 279.584 166.229C281.558 167.041 283.352 168.233 284.865 169.738L282.058 173.023Z" fill="black"/>
<path d="M4.88253 204.557H6.96278L13.181 217.706H11.0691L10.2208 215.82H6.28591C3.93038 215.82 2.67591 216.564 2.36906 217.101L2.04416 217.706H0L5.5955 206.163L4.88253 204.557ZM9.39503 213.911L6.5702 208.455L3.70927 214.642C4.16052 214.24 5.23451 213.911 7.00341 213.911H9.39503Z" fill="black"/>
<path d="M38.6539 207.864C38.1602 207.366 37.5717 206.971 36.923 206.704C36.2743 206.436 35.5786 206.301 34.8769 206.307C32.0025 206.307 29.7823 208.37 29.7823 211.271C29.7823 214.06 32.192 216.104 34.895 216.104C35.6899 216.109 36.475 215.929 37.1879 215.577C37.9008 215.225 38.5218 214.712 39.0014 214.078L40.1611 215.653C39.4951 216.393 38.6799 216.984 37.7692 217.387C36.8585 217.79 35.8728 217.995 34.8769 217.99C33.9637 218 33.0576 217.827 32.212 217.482C31.3664 217.137 30.5983 216.626 29.9527 215.98C29.3071 215.334 28.797 214.566 28.4524 213.72C28.1077 212.874 27.9355 211.968 27.9457 211.055C27.9457 207.241 31.2038 204.403 34.913 204.403C35.8341 204.401 36.7466 204.581 37.5983 204.931C38.45 205.282 39.2242 205.797 39.8768 206.447L38.6539 207.864Z" fill="black"/>
<path d="M66.654 207.864C66.1605 207.365 65.572 206.971 64.9232 206.703C64.2745 206.436 63.5787 206.301 62.877 206.307C60.0026 206.307 57.787 208.37 57.787 211.271C57.787 214.06 60.1921 216.104 62.8951 216.104C63.6902 216.11 64.4757 215.93 65.1888 215.578C65.9018 215.226 66.5226 214.713 67.0015 214.078L68.1612 215.653C67.4952 216.393 66.68 216.984 65.7693 217.387C64.8586 217.79 63.8729 217.995 62.877 217.99C61.9619 218.003 61.0534 217.832 60.2052 217.489C59.357 217.145 58.5861 216.635 57.9381 215.988C57.2901 215.342 56.778 214.572 56.4319 213.725C56.0859 212.878 55.913 211.97 55.9233 211.055C55.9233 207.241 59.1813 204.403 62.8861 204.403C63.8072 204.401 64.7198 204.58 65.5716 204.931C66.4234 205.281 67.1975 205.797 67.8498 206.447L66.654 207.864Z" fill="black"/>
<path d="M86.6899 215.82H94.659V217.706H84.8037V204.782H93.9009V206.686H86.6809V210.603C87.4334 210.216 88.2779 210.043 89.1222 210.102H91.947V212.029H89.1222C88.2793 211.989 87.4398 212.161 86.6809 212.53L86.6899 215.82Z" fill="black"/>
<path d="M111.554 217.706V204.782H113.44V215.82H120.615V217.706H111.554Z" fill="black"/>
<path d="M138.619 215.82H146.589V217.706H136.729V204.782H145.826V206.686H138.606V210.603C139.358 210.216 140.203 210.043 141.047 210.102H143.872V212.029H141.047C140.204 211.989 139.365 212.161 138.606 212.53L138.619 215.82Z" fill="black"/>
<path d="M169.322 212.354H167.833C166.989 212.314 166.148 212.487 165.387 212.855V217.706H163.501V204.782H170.27C172.625 204.782 174.331 206.136 174.331 208.595C174.331 210.554 173.226 211.817 171.353 212.282L172.359 214.344C173.172 215.54 173.465 215.802 174.3 215.802H174.489H174.904V217.724C173.397 217.724 171.872 217.724 170.884 215.68L169.322 212.354ZM165.369 210.969C166.123 210.58 166.969 210.406 167.815 210.463H170.274C171.574 210.463 172.477 209.877 172.477 208.491C172.477 207.106 171.506 206.686 170.274 206.686H165.369V210.969Z" fill="black"/>
<path d="M195.229 204.557H197.305L203.527 217.706H201.411L200.563 215.82H196.632C194.272 215.82 193.022 216.564 192.715 217.101L192.386 217.706H190.342L195.937 206.163L195.229 204.557ZM199.714 213.911L196.889 208.455L194.033 214.642C194.484 214.24 195.558 213.911 197.323 213.911H199.714Z" fill="black"/>
<path d="M223.68 206.686V217.706H221.844V206.686H217.236V204.782H228.233V206.686H223.68Z" fill="black"/>
<path d="M250.606 217.999C249.69 218.012 248.781 217.84 247.933 217.496C247.085 217.151 246.314 216.64 245.667 215.993C245.019 215.345 244.507 214.575 244.162 213.727C243.817 212.879 243.645 211.97 243.657 211.055C243.657 207.242 246.915 204.403 250.624 204.403C251.532 204.392 252.433 204.561 253.275 204.901C254.117 205.24 254.883 205.744 255.529 206.382C256.175 207.02 256.688 207.78 257.038 208.617C257.388 209.455 257.569 210.354 257.569 211.262C257.569 215.075 254.347 217.999 250.606 217.999ZM250.606 206.308C247.731 206.308 245.511 208.37 245.511 211.271C245.511 214.06 247.921 216.104 250.624 216.104C251.284 216.116 251.94 215.996 252.554 215.752C253.167 215.508 253.727 215.144 254.199 214.683C254.671 214.221 255.047 213.67 255.305 213.062C255.562 212.454 255.697 211.801 255.7 211.14C255.7 208.316 253.358 206.308 250.606 206.308Z" fill="black"/>
<path d="M280.217 212.354H278.71C277.867 212.314 277.028 212.487 276.269 212.855V217.706H274.378V204.782H281.17C283.53 204.782 285.231 206.136 285.231 208.595C285.231 210.554 284.121 211.817 282.248 212.282L283.254 214.344C284.067 215.54 284.364 215.802 285.195 215.802H285.384H285.799V217.724C284.292 217.724 282.771 217.724 281.783 215.68L280.217 212.354ZM276.269 210.969C277.021 210.581 277.866 210.406 278.71 210.463H281.17C282.469 210.463 283.372 209.877 283.372 208.491C283.372 207.106 282.401 206.686 281.17 206.686H276.269V210.969Z" fill="black"/>
</svg>
