<svg width="55" height="67" viewBox="0 0 55 67" fill="none" xmlns="http://www.w3.org/2000/svg">
<path d="M52.2184 28.6066C50.4947 27.1978 48.0536 26.747 45.9986 27.4575C45.4479 27.6482 44.9365 27.9155 44.4784 28.2524C43.31 29.1117 40.716 31.691 38.6604 34.2438V14.5664C38.6604 12.8938 37.9727 11.2591 36.7736 10.0809C35.5832 8.9113 34.0196 8.28052 32.3787 8.31119C31.6337 8.32448 30.9199 8.47221 30.2602 8.73035V6.80835C30.2602 4.98808 29.5116 3.2087 28.2057 1.92567C26.9115 0.653882 25.218 -0.0315956 23.4268 0.00111923C19.8556 0.0629707 16.94 2.96488 16.8331 6.51239C16.0595 6.16172 15.2193 5.96492 14.3496 5.93885C12.5354 5.88569 10.7385 6.58753 9.42133 7.86596C8.13123 9.11781 7.42048 10.7704 7.42048 12.5145L7.41588 14.3782C6.85903 14.1953 6.26537 14.0951 5.64819 14.0951C2.53366 14.0951 0 16.6279 0 19.7409L0.00204534 48.3449L0.00664731 48.4804C0.266916 52.2344 1.05284 55.4486 2.34344 58.0341C3.55326 60.4581 5.24117 62.4097 7.36014 63.8348C11.5301 66.6401 16.6812 67 20.7029 67C28.6004 67 35.7054 63.0747 39.2587 56.7526C39.6908 56.0564 40.8295 54.2663 42.0593 52.3356C43.2568 50.4545 44.371 48.7211 45.3533 47.1917C45.8932 46.3508 46.3846 45.5861 46.8111 44.9196C48.3998 42.4358 50.0928 40.0277 51.8436 37.7617C52.493 36.9213 52.693 36.6933 52.7385 36.6432C53.5581 35.7492 54.0746 34.6548 54.2321 33.4776C54.4801 31.6307 53.7458 29.8549 52.2184 28.6066ZM50.3357 32.9562C50.2851 33.3324 50.1138 33.6892 49.8402 33.9877C49.6976 34.1436 49.4424 34.4401 48.7327 35.3592C46.9108 37.7167 45.1498 40.2209 43.4987 42.8023C43.0732 43.4673 42.5839 44.229 42.0449 45.0678C41.0606 46.6003 39.9449 48.3377 38.7427 50.225C37.4844 52.2012 36.3195 54.0316 35.8931 54.7202L35.8486 54.7958C32.9969 59.8994 27.1938 63.0696 20.7034 63.0696C17.2401 63.0696 12.8427 62.7859 9.5553 60.5746C6.20095 58.3183 4.36219 54.2954 3.93369 48.2759L3.93165 19.7414C3.93165 18.7953 4.70172 18.0254 5.64819 18.0254C6.6003 18.0254 7.37497 18.7953 7.37497 19.7414V30.4458C7.37497 30.4775 7.37855 30.5082 7.37957 30.5399C7.38162 30.5746 7.38162 30.6099 7.3852 30.6447C7.38826 30.6758 7.3944 30.706 7.399 30.7367C7.40412 30.7709 7.40769 30.8057 7.41434 30.8399C7.42099 30.8706 7.43019 30.9008 7.43786 30.9309C7.44604 30.9631 7.45269 30.9963 7.46292 31.028C7.47212 31.0587 7.48439 31.0884 7.49564 31.118C7.50638 31.1482 7.5161 31.1788 7.52888 31.2085C7.54115 31.2381 7.55598 31.2662 7.56979 31.2949C7.58359 31.3235 7.59638 31.3526 7.61121 31.3807C7.62603 31.4083 7.64393 31.4349 7.66029 31.462C7.67666 31.4891 7.692 31.5167 7.70938 31.5428C7.72728 31.5689 7.74722 31.5934 7.76614 31.6184C7.78506 31.644 7.80244 31.6701 7.82239 31.6941C7.84233 31.7181 7.86432 31.7401 7.88477 31.7631C7.90625 31.7866 7.9267 31.8117 7.9492 31.8342C7.97118 31.8556 7.99419 31.875 8.0172 31.896C8.04073 31.9175 8.06374 31.9405 8.08879 31.9609C8.11231 31.9803 8.13737 31.9977 8.16191 32.0161C8.18799 32.0355 8.21305 32.056 8.23963 32.0744C8.26469 32.0913 8.29128 32.1056 8.31685 32.1209C8.34497 32.1383 8.37258 32.1567 8.40173 32.1731C8.42832 32.1874 8.45644 32.1991 8.48354 32.2124C8.5132 32.2272 8.54286 32.2426 8.57354 32.2559C8.60166 32.2681 8.63183 32.2773 8.66046 32.2881C8.69165 32.2993 8.72233 32.3121 8.75404 32.3223C8.78421 32.3315 8.81591 32.3382 8.84659 32.3463C8.8788 32.3545 8.90999 32.3642 8.94221 32.3709C8.97493 32.3775 9.00766 32.3811 9.04038 32.3862C9.07311 32.3908 9.10481 32.3975 9.13754 32.401C9.17026 32.4041 9.20401 32.4046 9.23725 32.4061C9.26997 32.4077 9.3027 32.4113 9.33593 32.4113C9.33747 32.4113 9.33951 32.4113 9.34105 32.4113C9.40906 32.4113 9.47604 32.4077 9.542 32.401C9.57064 32.3985 9.59876 32.3923 9.6274 32.3883C9.6637 32.3831 9.70103 32.3791 9.73682 32.3714C9.77466 32.3637 9.81096 32.353 9.84778 32.3433C9.87335 32.3361 9.89994 32.331 9.92499 32.3233C9.9659 32.3106 10.0058 32.2947 10.0457 32.2794C10.0651 32.2717 10.0861 32.2656 10.1055 32.2574C10.1454 32.2405 10.1832 32.2206 10.2216 32.2017C10.24 32.1925 10.2589 32.1848 10.2773 32.1751C10.3131 32.1557 10.3468 32.1332 10.3811 32.1117C10.4005 32.1 10.4205 32.0892 10.4389 32.0764C10.4706 32.0555 10.5008 32.0315 10.5309 32.0079C10.5509 31.9931 10.5713 31.9793 10.5902 31.9635C10.6184 31.941 10.6439 31.9154 10.6705 31.8909C10.6905 31.873 10.7109 31.8556 10.7303 31.8372C10.7549 31.8127 10.7769 31.7861 10.7999 31.7605C10.8188 31.7396 10.8393 31.7191 10.8572 31.6977C10.8776 31.6726 10.896 31.646 10.9154 31.62C10.9339 31.5954 10.9533 31.5719 10.9702 31.5464C10.9881 31.5203 11.0029 31.4932 11.0192 31.4661C11.0356 31.439 11.0535 31.4124 11.0688 31.3848C11.0837 31.3572 11.0959 31.3286 11.1098 31.3005C11.1236 31.2714 11.1389 31.2427 11.1517 31.2131C11.164 31.1845 11.1732 31.1543 11.1839 31.1252C11.1957 31.0945 11.2079 31.0643 11.2182 31.0326C11.2274 31.0025 11.234 30.9718 11.2417 30.9411C11.2499 30.9089 11.2596 30.8772 11.2667 30.8445C11.2729 30.8139 11.2764 30.7817 11.281 30.75C11.2867 30.7167 11.2928 30.6835 11.2964 30.6498C11.3 30.6181 11.3 30.5854 11.3015 30.5532C11.3035 30.5189 11.3071 30.4857 11.3071 30.4514L11.3526 12.5196C11.3526 11.8429 11.6395 11.1916 12.16 10.6861C12.7194 10.1437 13.4762 9.84418 14.2335 9.8677C15.6519 9.91012 16.806 11.1436 16.806 12.6203L16.8285 30.342C16.8285 30.3778 16.8321 30.4126 16.8341 30.4473C16.8357 30.4785 16.8357 30.5107 16.8387 30.5414C16.8423 30.5782 16.8495 30.6135 16.8551 30.6493C16.8597 30.6784 16.8628 30.708 16.8684 30.7367C16.8766 30.7755 16.8878 30.8133 16.8981 30.8512C16.9047 30.8757 16.9098 30.9008 16.917 30.9248C16.9298 30.9657 16.9461 31.0055 16.9615 31.0454C16.9691 31.0654 16.9748 31.0858 16.9829 31.1052C17.0013 31.1476 17.0223 31.1891 17.0433 31.2299C17.0515 31.2453 17.0576 31.2616 17.0658 31.2765C17.0888 31.3189 17.1149 31.3593 17.1404 31.3991C17.1486 31.4124 17.1558 31.4257 17.1645 31.4385C17.1916 31.4789 17.2212 31.5167 17.2509 31.5545C17.2601 31.5663 17.2683 31.5786 17.2775 31.5898C17.3107 31.6302 17.3465 31.668 17.3828 31.7053C17.3905 31.7135 17.3966 31.7217 17.4043 31.7294C17.4416 31.7667 17.4815 31.8014 17.5219 31.8357C17.5296 31.8423 17.5362 31.8495 17.5439 31.8561C17.5843 31.8894 17.6262 31.9195 17.6686 31.9492C17.6778 31.9558 17.686 31.963 17.6952 31.9691C17.7382 31.9982 17.7832 32.0243 17.8282 32.0499C17.8379 32.0555 17.8471 32.0621 17.8573 32.0678C17.9044 32.0928 17.9529 32.1153 18.002 32.1373C18.0112 32.1414 18.0199 32.1465 18.0291 32.1506C18.0792 32.1715 18.1309 32.1894 18.183 32.2068C18.1922 32.2093 18.2004 32.2134 18.2096 32.2165C18.2613 32.2323 18.3139 32.2451 18.3666 32.2569C18.3773 32.2589 18.3876 32.2625 18.3983 32.2651C18.5261 32.2911 18.6586 32.3049 18.7941 32.3049C18.7951 32.3049 18.7961 32.3049 18.7971 32.3049C18.8314 32.3049 18.8652 32.3014 18.8989 32.2998C18.9316 32.2978 18.9644 32.2978 18.9966 32.2947C19.0324 32.2906 19.0666 32.284 19.1019 32.2784C19.1316 32.2738 19.1622 32.2707 19.1919 32.2646C19.2272 32.2574 19.2614 32.2472 19.2962 32.238C19.3243 32.2303 19.3525 32.2247 19.3801 32.216C19.4153 32.2053 19.4491 32.1915 19.4834 32.1782C19.5089 32.1685 19.5355 32.1608 19.5606 32.1501C19.5958 32.1347 19.6301 32.1168 19.6644 32.1C19.6869 32.0887 19.7104 32.079 19.7324 32.0672C19.7661 32.0488 19.7983 32.0274 19.8311 32.0074C19.852 31.9941 19.874 31.9824 19.8945 31.9686C19.9257 31.9476 19.9548 31.9241 19.9845 31.9011C20.0049 31.8858 20.0259 31.8715 20.0458 31.8551C20.0739 31.8321 20.1005 31.806 20.1276 31.781C20.1466 31.7636 20.1665 31.7467 20.1854 31.7283C20.2105 31.7028 20.234 31.6752 20.258 31.6486C20.2759 31.6287 20.2948 31.6097 20.3122 31.5888C20.3337 31.5622 20.3531 31.5341 20.3731 31.507C20.3905 31.4835 20.4089 31.461 20.4252 31.4375C20.4436 31.4104 20.459 31.3818 20.4759 31.3537C20.4917 31.3276 20.5091 31.302 20.5234 31.2754C20.5387 31.2473 20.551 31.2177 20.5648 31.1891C20.5786 31.1604 20.594 31.1328 20.6062 31.1032C20.618 31.0751 20.6277 31.0454 20.6379 31.0163C20.6497 30.9851 20.6625 30.9544 20.6722 30.9227C20.6814 30.8921 20.6881 30.8609 20.6962 30.8297C20.7044 30.798 20.7141 30.7668 20.7203 30.7346C20.7269 30.7024 20.7305 30.6692 20.7356 30.637C20.7402 30.6043 20.7469 30.5721 20.7499 30.5394C20.7535 30.5061 20.7535 30.4724 20.755 30.4387C20.7571 30.4054 20.7602 30.3732 20.7602 30.3395V6.7143C20.7602 5.20533 21.9874 3.95705 23.4953 3.93098C24.2229 3.92076 24.9142 4.2019 25.4506 4.72892C26.009 5.2774 26.3291 6.03547 26.3291 6.80835V30.4479C26.3291 30.4836 26.3327 30.5184 26.3347 30.5537C26.3363 30.5849 26.3363 30.6165 26.3393 30.6477C26.3429 30.6825 26.3501 30.7162 26.3552 30.7505C26.3603 30.7817 26.3634 30.8128 26.3695 30.843C26.3766 30.8772 26.3869 30.9105 26.3956 30.9442C26.4032 30.9733 26.4089 31.0025 26.4181 31.0311C26.4293 31.0674 26.4436 31.1027 26.4569 31.1379C26.4661 31.1625 26.4738 31.1875 26.484 31.2115C26.4999 31.2484 26.5183 31.2836 26.5362 31.3194C26.5464 31.3404 26.5556 31.3623 26.5669 31.3833C26.5863 31.4196 26.6088 31.4538 26.6308 31.4886C26.6425 31.507 26.6528 31.5269 26.6656 31.5453C26.6891 31.5801 26.7152 31.6133 26.7412 31.6466C26.754 31.6629 26.7653 31.6803 26.7786 31.6961C26.8072 31.7314 26.8389 31.7641 26.8701 31.7973C26.8824 31.8096 26.8931 31.8234 26.9054 31.8357C26.9376 31.8684 26.9724 31.898 27.0071 31.9282C27.0199 31.9395 27.0317 31.9517 27.045 31.9625C27.0838 31.9947 27.1247 32.0238 27.1656 32.0529C27.1759 32.0601 27.1856 32.0683 27.1963 32.0759C27.2403 32.1056 27.2863 32.1327 27.3328 32.1587C27.3415 32.1633 27.3492 32.1695 27.3579 32.1741C27.409 32.2017 27.4612 32.2262 27.5149 32.2497C27.52 32.2518 27.5246 32.2548 27.5297 32.2569C27.5854 32.2804 27.6427 32.3008 27.701 32.3192C27.7041 32.3208 27.7071 32.3218 27.7107 32.3228C27.8329 32.3612 27.9603 32.3872 28.0917 32.401C28.0927 32.401 28.0932 32.401 28.0942 32.401C28.1602 32.4077 28.2272 32.4113 28.2952 32.4113C28.2957 32.4113 28.2962 32.4113 28.2972 32.4113C28.332 32.4113 28.3662 32.4077 28.401 32.4061C28.4332 32.4041 28.4654 32.4041 28.4972 32.401C28.5335 32.3975 28.5687 32.3903 28.6045 32.3847C28.6337 32.3801 28.6633 32.377 28.6925 32.3709C28.7308 32.3632 28.7676 32.352 28.805 32.3423C28.83 32.3356 28.8561 32.3305 28.8807 32.3228C28.9205 32.31 28.9589 32.2947 28.9977 32.2799C29.0187 32.2717 29.0402 32.2651 29.0612 32.2564C29.1005 32.2395 29.1384 32.2201 29.1767 32.2007C29.1951 32.1915 29.2146 32.1838 29.233 32.1736C29.2703 32.1531 29.3061 32.1301 29.3424 32.1071C29.3598 32.0964 29.3777 32.0867 29.3951 32.0749C29.4319 32.0504 29.4661 32.0228 29.5009 31.9957C29.5157 31.9844 29.5316 31.9737 29.5464 31.9619C29.5807 31.9333 29.6129 31.9021 29.6456 31.8715C29.6589 31.8592 29.6732 31.848 29.6855 31.8352C29.7172 31.8035 29.7469 31.7697 29.776 31.7355C29.7883 31.7222 29.8011 31.7094 29.8128 31.6956C29.8409 31.6614 29.8665 31.6251 29.8921 31.5893C29.9028 31.574 29.9151 31.5597 29.9258 31.5443C29.9499 31.5085 29.9713 31.4712 29.9928 31.4339C30.003 31.4165 30.0148 31.4002 30.0245 31.3823C30.045 31.3444 30.0623 31.3051 30.0802 31.2657C30.0889 31.2473 30.0992 31.2294 30.1068 31.2105C30.1232 31.1722 30.1365 31.1323 30.1503 31.093C30.1575 31.072 30.1667 31.0515 30.1733 31.0296C30.1846 30.9923 30.1932 30.9529 30.203 30.9146C30.2086 30.89 30.2163 30.866 30.2214 30.8415C30.229 30.8036 30.2336 30.7643 30.2393 30.7259C30.2428 30.6994 30.2485 30.6733 30.251 30.6462C30.2551 30.6104 30.2551 30.5736 30.2567 30.5368C30.2582 30.5066 30.2613 30.477 30.2613 30.4458V14.2254C30.3891 13.129 31.3202 12.2605 32.4477 12.2411C33.0271 12.2313 33.5865 12.4593 34.0185 12.8841C34.4706 13.3278 34.7298 13.9412 34.7298 14.5664V37.7627L34.7308 37.8506C34.7416 39.1239 35.5781 40.1999 36.812 40.5281C38.0376 40.8537 39.2899 40.339 39.9342 39.2359L39.9464 39.2139C41.4876 36.5221 45.6069 32.3029 46.8096 31.4186C46.9486 31.3158 47.1087 31.2335 47.2851 31.1722C48.0685 30.9018 49.0507 31.0935 49.7308 31.6496C50.0509 31.9118 50.4165 32.3515 50.3357 32.9562Z" fill="white"/>
</svg>
