<svg width="60" height="29" viewBox="0 0 60 29" fill="none" xmlns="http://www.w3.org/2000/svg">
<path d="M1.05297 16.1036C1.05366 16.1043 1.05425 16.1051 1.05506 16.1058L13.2191 28.2111C14.1304 29.118 15.6043 29.1146 16.5114 28.2032C17.4184 27.292 17.4149 25.818 16.5036 24.911L8.33667 16.7837L57.6379 16.7837C58.9236 16.7837 59.9658 15.7415 59.9658 14.4557C59.9658 13.17 58.9236 12.1278 57.6379 12.1278L8.33679 12.1278L16.5035 4.00042C17.4148 3.09345 17.4183 1.6195 16.5113 0.708227C15.6042 -0.203283 14.1301 -0.206426 13.219 0.700314L1.05495 12.8057C1.05425 12.8064 1.05366 12.8072 1.05285 12.8079C0.141104 13.7179 0.144015 15.1966 1.05297 16.1036Z" fill="white"/>
</svg>
