<?xml version="1.0" encoding="utf-8"?>
<!-- Generator: Adobe Illustrator 21.1.0, SVG Export Plug-In . SVG Version: 6.00 Build 0)  -->
<svg version="1.1" id="Layer_1" xmlns="http://www.w3.org/2000/svg" xmlns:xlink="http://www.w3.org/1999/xlink" x="0px" y="0px"
	 viewBox="0 30 250 170" style="enable-background:new 0 0 250 141;" xml:space="preserve">
<style type="text/css">
	.st0{fill:#D0DDF1;}
	.st1{fill:#A7B8CF;}
	.st2{fill:#B1C3DE;}
</style>
<path class="st0" d="M37.2,43.4c1.6,1.1,10.9,5.9,27.1,8.9C76.1,54.5,81.7,53,83.9,52V41.3l-2.4,0.4c-2.7,0.4-5.6,0.5-8.3,0.2
	l-2.3-0.2c-32.3-3.8-35.6-12-35.6-12c-0.9,0.7-0.9,3.4-0.9,3.4l0.6,8.9C35.7,42.4,36.4,42.9,37.2,43.4z"/>
<path class="st0" d="M75.2,66.2c-2.9,0-6.6-0.3-11.1-1.2c-18.8-3.5-27.3-9-27.3-9c-0.3-0.2-0.5-0.4-0.8-0.6l0.8,11.7
	c0.1,0.1,0.3,0.2,0.4,0.3c1.6,1.1,10.9,5.9,27.1,8.9c11.8,2.2,17.5,0.7,19.7-0.3V64.8C82.4,65.5,79.7,66.2,75.2,66.2z"/>
<path class="st0" d="M84,87.2V76.9c-1.5,0.6-4.3,1.4-8.7,1.4c-2.9,0-6.6-0.3-11.1-1.2c-18-3.4-26.6-8.5-27.3-9l0.7,10.6
	c2.3,1.4,11.5,5.8,26.7,8.7C76.1,89.7,81.8,88.2,84,87.2z"/>
<g>
	<path class="st1" d="M83.9,76.1c-2.2,1-7.9,2.5-19.7,0.3c-16.1-3-25.5-7.8-27.1-8.9c-0.1-0.1-0.3-0.2-0.4-0.3l0,0.9
		c0.8,0.5,9.4,5.6,27.3,9c4.6,0.9,8.2,1.2,11.1,1.2c4.5,0,7.2-0.8,8.7-1.4L83.9,76.1z"/>
</g>
<path class="st0" d="M75.2,89.3c-2.9,0-6.6-0.3-11.1-1.2c-15.5-2.9-24-7.1-26.6-8.5l2.1,31.6c0.2,2.8,1.9,5.2,4.5,6.3
	c6.7,2.9,19.7,8.3,26.6,10.4c9.4,2.9,13.3-1.9,13.3-1.9V87.9C82.4,88.6,79.7,89.3,75.2,89.3z"/>
<g>
	<path class="st1" d="M84,87.2c-2.2,1-7.9,2.5-19.7,0.3c-15.2-2.9-24.4-7.3-26.7-8.7l0,0.8c2.5,1.4,11,5.6,26.6,8.5
		c4.6,0.9,8.2,1.2,11.1,1.2c4.5,0,7.2-0.7,8.7-1.4L84,87.2z"/>
</g>
<path class="st0" d="M75.2,54.2c-2.9,0-6.6-0.3-11.1-1.2c-18.8-3.5-27.3-9-27.3-9c-0.7-0.4-1.2-0.9-1.6-1.1l0.8,11.8
	c0.3,0.2,0.8,0.6,1.2,0.9c1.6,1.1,10.9,5.9,27.1,8.9c11.8,2.2,17.5,0.7,19.7-0.3V52.8C82.4,53.5,79.7,54.2,75.2,54.2z"/>
<g>
	<path class="st1" d="M36,55.5c0.2,0.2,0.5,0.3,0.8,0.6c0.1,0.1,8.6,5.5,27.3,9c4.6,0.9,8.2,1.2,11.1,1.2c4.5,0,7.2-0.7,8.7-1.4
		l0-0.7c-2.2,1-7.9,2.5-19.7,0.3c-16.1-3-25.5-7.8-27.1-8.9c-0.5-0.3-0.9-0.7-1.2-0.9L36,55.5L36,55.5L36,55.5z"/>
</g>
<path class="st1" d="M64.2,52.3c-16.1-3-25.5-7.8-27.1-8.9c-0.7-0.5-1.5-1-2.1-1.5l0.1,0.9c0.4,0.3,0.9,0.6,1.6,1.1
	c0.1,0.1,8.6,5.5,27.3,9c4.6,0.9,8.2,1.2,11.1,1.2c4.5,0,7.2-0.7,8.7-1.4l0-0.8C81.7,53,76,54.5,64.2,52.3z"/>
<path class="st0" d="M212.5,42.8c-1.6,1.1-10.9,5.9-27.1,8.9c-11.8,2.2-17.5,0.7-19.7-0.3V40.6l2.4,0.4c2.7,0.4,5.6,0.5,8.3,0.2
	l2.3-0.2c32.3-3.8,35.6-12,35.6-12c0.9,0.7,0.9,3.4,0.9,3.4l-0.6,8.9C214.1,41.7,213.3,42.2,212.5,42.8z"/>
<path class="st0" d="M174.4,65.6c2.9,0,6.6-0.3,11.1-1.2c18.8-3.5,27.3-9,27.3-9c0.3-0.2,0.6-0.4,0.8-0.6l-0.8,11.7
	c-0.1,0.1-0.3,0.2-0.4,0.3c-1.6,1.1-10.9,5.9-27.1,8.9c-11.8,2.2-17.5,0.7-19.7-0.3V64.1C167.2,64.8,170,65.6,174.4,65.6z"/>
<path class="st0" d="M165.7,86.5V76.2c1.5,0.6,4.3,1.4,8.7,1.4c2.9,0,6.6-0.3,11.1-1.2c18-3.4,26.6-8.5,27.3-9l-0.7,10.6
	c-2.3,1.4-11.5,5.8-26.7,8.7C173.6,89,167.9,87.5,165.7,86.5z"/>
<path class="st0" d="M174.4,88.6c2.9,0,6.6-0.3,11.1-1.2c15.5-2.9,24-7.1,26.6-8.5l-2.1,31.6c-0.2,2.8-1.9,5.2-4.5,6.3
	c-6.7,2.9-19.7,8.3-26.6,10.4c-9.4,2.9-13.3-1.9-13.3-1.9V87.3C167.2,87.9,170,88.6,174.4,88.6z"/>
<path class="st0" d="M174.4,53.5c2.9,0,6.6-0.3,11.1-1.2c18.8-3.5,27.3-9,27.3-9c0.7-0.4,1.2-0.9,1.6-1.1L213.8,54
	c-0.3,0.2-0.8,0.6-1.2,0.9c-1.6,1.1-10.9,5.9-27.1,8.9c-11.8,2.2-17.5,0.7-19.7-0.3V52.1C167.2,52.8,170,53.5,174.4,53.5z"/>
<g>
	<path class="st1" d="M165.8,75.4c2.2,1,7.9,2.5,19.7,0.3c16.1-3,25.5-7.8,27.1-8.9c0.1-0.1,0.3-0.2,0.4-0.3l0,0.9
		c-0.8,0.5-9.4,5.6-27.3,9c-4.6,0.9-8.2,1.2-11.1,1.2c-4.5,0-7.2-0.8-8.7-1.4L165.8,75.4z"/>
</g>
<g>
	<path class="st1" d="M165.7,86.5c2.2,1,7.9,2.5,19.7,0.3c15.2-2.9,24.4-7.3,26.7-8.7l0,0.8c-2.5,1.4-11,5.6-26.6,8.5
		c-4.6,0.9-8.2,1.2-11.1,1.2c-4.5,0-7.2-0.7-8.7-1.4L165.7,86.5z"/>
</g>
<g>
	<path class="st1" d="M213.7,54.8c-0.2,0.2-0.5,0.3-0.8,0.6c-0.1,0.1-8.6,5.5-27.3,9c-4.6,0.9-8.2,1.2-11.1,1.2
		c-4.5,0-7.2-0.7-8.7-1.4l0-0.7c2.2,1,7.9,2.5,19.7,0.3c16.1-3,25.5-7.8,27.1-8.9c0.5-0.3,0.9-0.7,1.2-0.9L213.7,54.8L213.7,54.8
		L213.7,54.8z"/>
</g>
<path class="st1" d="M185.5,51.6c16.1-3,25.5-7.8,27.1-8.9c0.7-0.5,1.5-1,2.1-1.5l-0.1,0.9c-0.4,0.3-0.9,0.6-1.6,1.1
	c-0.1,0.1-8.6,5.5-27.3,9c-4.6,0.9-8.2,1.2-11.1,1.2c-4.5,0-7.2-0.7-8.7-1.4l0-0.8C168,52.3,173.7,53.8,185.5,51.6z"/>
<g>
	<path class="st2" d="M175.1,19.6c0.2,0.1,0.3,0.2,0.4,0.4l0,0l0,0.1c0.1,0.2,0.1,0.3,0,0.5l-0.2,8.4c-4.4,1.6-8.8,2.8-13.2,3.9
		l3.6,4.8c0,0,0,0,0,0l0,3l2.4,0.4c2.7,0.4,5.6,0.5,8.3,0.2l2.3-0.2c32.3-3.8,35.6-12,35.6-12c0.1-0.2-0.5-2-2.7-3
		c-15.9-6.8-36.9-8.9-50.7-9.6C169.3,17.4,173.3,18.8,175.1,19.6z"/>
	<path class="st1" d="M103,10.5l0.3,12.1c0,0,21.6,5.9,46,0V10.8L103,10.5z"/>
	<path class="st2" d="M175.1,19.6c-2.5-1.1-9-3.2-25.7-4.2v7.1c-24.4,5.9-46,0-46,0l-0.2-6.8c-10.9,0.7-22.5,2.1-28.3,4.5
		c-0.7,0.3-0.6,1.2,0.1,1.4c9.5,2.4,53.9,12.8,100.1-0.8C175.7,20.8,175.8,19.9,175.1,19.6z"/>
	<path class="st2" d="M83.6,37.7l7.6-8.4h68.4l6.2,8.4C165.7,37.7,83.9,37.7,83.6,37.7z"/>
	<g>
		<path class="st1" d="M175,20.9c-46.2,13.5-90.6,3.2-100.1,0.8c-0.6-0.1-0.7-0.2-0.7-0.2l0.2,8.2c0,0,4.8,1.8,12.9,3.8l3.8-4.2
			h68.4l3,4c4.3-1.2,8.6-2.6,12.8-4.4l0.2-8.4C175.4,20.7,175.2,20.9,175,20.9z"/>
	</g>
	<path class="st1" d="M83.6,37.7V126c0,0,18.1,5.4,39.5,5.9c14.3,0.3,29.8-2.7,42.9-5.5l-0.3-88.7C165.7,37.7,84.3,37.7,83.6,37.7z"
		/>
	<path class="st2" d="M74.8,20.4c-0.2,0.1-0.3,0.2-0.4,0.4l0,0l0,0.1c-0.1,0.2-0.1,0.3,0,0.5l0.2,8.4c4.4,1.6,8.8,2.8,13.2,3.9
		l-3.6,4.8c0,0,0,0,0,0l0,3l-2.4,0.4c-2.7,0.4-5.6,0.5-8.3,0.2L71,41.7c-32.3-3.8-35.6-12-35.6-12c-0.1-0.2,0.5-2,2.7-3
		c15.9-6.8,36.9-8.9,50.7-9.6C80.5,18.2,76.6,19.6,74.8,20.4z"/>
</g>
</svg>
