<svg width="60" height="29" viewBox="0 0 60 29" fill="none" xmlns="http://www.w3.org/2000/svg">
<path d="M58.947 12.8178C58.9463 12.8171 58.9458 12.8163 58.9449 12.8156L46.7809 0.710241C45.8696 -0.196613 44.3957 -0.193239 43.4886 0.718156C42.5816 1.62943 42.5851 3.10338 43.4964 4.01035L51.6633 12.1377H2.36213C1.07641 12.1377 0.0341797 13.1799 0.0341797 14.4657C0.0341797 15.7514 1.07641 16.7936 2.36213 16.7936H51.6632L43.4965 24.921C42.5852 25.8279 42.5817 27.3019 43.4887 28.2132C44.3958 29.1247 45.8699 29.1278 46.781 28.2211L58.9451 16.1157C58.9458 16.115 58.9463 16.1142 58.9472 16.1135C59.8589 15.2035 59.856 13.7248 58.947 12.8178Z" fill="white"/>
</svg>
