<svg width="55" height="67" viewBox="0 0 55 67" fill="none" xmlns="http://www.w3.org/2000/svg">
<path d="M2.13007 28.6066C3.85378 27.1978 6.29488 26.747 8.34993 27.4575C8.90064 27.6482 9.41197 27.9155 9.87013 28.2524C11.0385 29.1117 13.6325 31.691 15.6881 34.2438V14.5664C15.6881 12.8938 16.3758 11.2591 17.5749 10.0809C18.7653 8.9113 20.329 8.28052 21.9698 8.31119C22.7148 8.32448 23.4287 8.47221 24.0883 8.73035V6.80835C24.0883 4.98808 24.8369 3.2087 26.1428 1.92567C27.437 0.653882 29.1305 -0.0315956 30.9217 0.00111923C34.4929 0.0629707 37.4085 2.96488 37.5154 6.51239C38.289 6.16172 39.1292 5.96492 39.9989 5.93885C41.8132 5.88569 43.61 6.58753 44.9272 7.86596C46.2173 9.11781 46.928 10.7704 46.928 12.5145L46.9326 14.3782C47.4895 14.1953 48.0831 14.0951 48.7003 14.0951C51.8149 14.0951 54.3485 16.6279 54.3485 19.7409L54.3465 48.3449L54.3419 48.4804C54.0816 52.2344 53.2957 55.4486 52.0051 58.0341C50.7953 60.4581 49.1073 62.4097 46.9884 63.8348C42.8184 66.6401 37.6673 67 33.6456 67C25.7481 67 18.6431 63.0747 15.0898 56.7526C14.6577 56.0564 13.519 54.2663 12.2892 52.3356C11.0917 50.4545 9.97751 48.7211 8.99524 47.1917C8.45527 46.3508 7.96387 45.5861 7.53742 44.9196C5.94871 42.4358 4.25568 40.0277 2.50488 37.7617C1.85548 36.9213 1.65555 36.6933 1.61004 36.6432C0.790371 35.7492 0.273926 34.6548 0.116436 33.4776C-0.131561 31.6307 0.602715 29.8549 2.13007 28.6066ZM4.0128 32.9562C4.06342 33.3324 4.23472 33.6892 4.50828 33.9877C4.65094 34.1436 4.9061 34.4401 5.61583 35.3592C7.43771 37.7167 9.19875 40.2209 10.8498 42.8023C11.2753 43.4673 11.7646 44.229 12.3036 45.0678C13.2879 46.6003 14.4036 48.3377 15.6058 50.225C16.8642 52.2012 18.029 54.0316 18.4554 54.7202L18.4999 54.7958C21.3516 59.8994 27.1547 63.0696 33.6451 63.0696C37.1084 63.0696 41.5058 62.7859 44.7932 60.5746C48.1476 58.3183 49.9863 54.2954 50.4148 48.2759L50.4169 19.7414C50.4169 18.7953 49.6468 18.0254 48.7003 18.0254C47.7482 18.0254 46.9735 18.7953 46.9735 19.7414V30.4458C46.9735 30.4775 46.97 30.5082 46.9689 30.5399C46.9669 30.5746 46.9669 30.6099 46.9633 30.6447C46.9602 30.6758 46.9541 30.706 46.9495 30.7367C46.9444 30.7709 46.9408 30.8057 46.9342 30.8399C46.9275 30.8706 46.9183 30.9008 46.9106 30.9309C46.9025 30.9631 46.8958 30.9963 46.8856 31.028C46.8764 31.0587 46.8641 31.0884 46.8529 31.118C46.8421 31.1482 46.8324 31.1788 46.8196 31.2085C46.8074 31.2381 46.7925 31.2662 46.7787 31.2949C46.7649 31.3235 46.7521 31.3526 46.7373 31.3807C46.7225 31.4083 46.7046 31.4349 46.6882 31.462C46.6719 31.4891 46.6565 31.5167 46.6391 31.5428C46.6212 31.5689 46.6013 31.5934 46.5824 31.6184C46.5635 31.644 46.5461 31.6701 46.5261 31.6941C46.5062 31.7181 46.4842 31.7401 46.4637 31.7631C46.4423 31.7866 46.4218 31.8117 46.3993 31.8342C46.3773 31.8556 46.3543 31.875 46.3313 31.896C46.3078 31.9175 46.2848 31.9405 46.2597 31.9609C46.2362 31.9803 46.2111 31.9977 46.1866 32.0161C46.1605 32.0355 46.1355 32.056 46.1089 32.0744C46.0838 32.0913 46.0572 32.1056 46.0317 32.1209C46.0035 32.1383 45.9759 32.1567 45.9468 32.1731C45.9202 32.1874 45.8921 32.1991 45.865 32.2124C45.8353 32.2272 45.8057 32.2426 45.775 32.2559C45.7469 32.2681 45.7167 32.2773 45.688 32.2881C45.6569 32.2993 45.6262 32.3121 45.5945 32.3223C45.5643 32.3315 45.5326 32.3382 45.5019 32.3463C45.4697 32.3545 45.4385 32.3642 45.4063 32.3709C45.3736 32.3775 45.3409 32.3811 45.3081 32.3862C45.2754 32.3908 45.2437 32.3975 45.211 32.401C45.1782 32.4041 45.1445 32.4046 45.1113 32.4061C45.0785 32.4077 45.0458 32.4113 45.0126 32.4113C45.011 32.4113 45.009 32.4113 45.0075 32.4113C44.9395 32.4113 44.8725 32.4077 44.8065 32.401C44.7779 32.3985 44.7498 32.3923 44.7211 32.3883C44.6848 32.3831 44.6475 32.3791 44.6117 32.3714C44.5739 32.3637 44.5375 32.353 44.5007 32.3433C44.4752 32.3361 44.4486 32.331 44.4235 32.3233C44.3826 32.3106 44.3427 32.2947 44.3028 32.2794C44.2834 32.2717 44.2624 32.2656 44.243 32.2574C44.2031 32.2405 44.1653 32.2206 44.1269 32.2017C44.1085 32.1925 44.0896 32.1848 44.0712 32.1751C44.0354 32.1557 44.0017 32.1332 43.9674 32.1117C43.948 32.1 43.928 32.0892 43.9096 32.0764C43.8779 32.0555 43.8478 32.0315 43.8176 32.0079C43.7976 31.9931 43.7772 31.9793 43.7583 31.9635C43.7302 31.941 43.7046 31.9154 43.678 31.8909C43.6581 31.873 43.6376 31.8556 43.6182 31.8372C43.5936 31.8127 43.5716 31.7861 43.5486 31.7605C43.5297 31.7396 43.5093 31.7191 43.4914 31.6977C43.4709 31.6726 43.4525 31.646 43.4331 31.62C43.4147 31.5954 43.3952 31.5719 43.3784 31.5464C43.3605 31.5203 43.3456 31.4932 43.3293 31.4661C43.3129 31.439 43.295 31.4124 43.2797 31.3848C43.2648 31.3572 43.2526 31.3286 43.2388 31.3005C43.225 31.2714 43.2096 31.2427 43.1968 31.2131C43.1846 31.1845 43.1754 31.1543 43.1646 31.1252C43.1529 31.0945 43.1406 31.0643 43.1304 31.0326C43.1212 31.0025 43.1145 30.9718 43.1068 30.9411C43.0987 30.9089 43.0889 30.8772 43.0818 30.8445C43.0756 30.8139 43.0721 30.7817 43.0675 30.75C43.0618 30.7167 43.0557 30.6835 43.0521 30.6498C43.0485 30.6181 43.0485 30.5854 43.047 30.5532C43.045 30.5189 43.0414 30.4857 43.0414 30.4514L42.9959 12.5196C42.9959 11.8429 42.709 11.1916 42.1885 10.6861C41.6291 10.1437 40.8723 9.84418 40.115 9.8677C38.6966 9.91012 37.5425 11.1436 37.5425 12.6203L37.52 30.342C37.52 30.3778 37.5164 30.4126 37.5144 30.4473C37.5128 30.4785 37.5128 30.5107 37.5098 30.5414C37.5062 30.5782 37.499 30.6135 37.4934 30.6493C37.4888 30.6784 37.4857 30.708 37.4801 30.7367C37.4719 30.7755 37.4607 30.8133 37.4505 30.8512C37.4438 30.8757 37.4387 30.9008 37.4315 30.9248C37.4188 30.9657 37.4024 31.0055 37.3871 31.0454C37.3794 31.0654 37.3738 31.0858 37.3656 31.1052C37.3472 31.1476 37.3262 31.1891 37.3052 31.2299C37.2971 31.2453 37.2909 31.2616 37.2827 31.2765C37.2597 31.3189 37.2337 31.3593 37.2081 31.3991C37.1999 31.4124 37.1927 31.4257 37.1841 31.4385C37.157 31.4789 37.1273 31.5167 37.0976 31.5545C37.0884 31.5663 37.0803 31.5786 37.071 31.5898C37.0378 31.6302 37.002 31.668 36.9657 31.7053C36.958 31.7135 36.9519 31.7217 36.9442 31.7294C36.9069 31.7667 36.867 31.8014 36.8266 31.8357C36.819 31.8423 36.8123 31.8495 36.8046 31.8561C36.7642 31.8894 36.7223 31.9195 36.6799 31.9492C36.6707 31.9558 36.6625 31.963 36.6533 31.9691C36.6103 31.9982 36.5653 32.0243 36.5203 32.0499C36.5106 32.0555 36.5014 32.0621 36.4912 32.0678C36.4442 32.0928 36.3956 32.1153 36.3465 32.1373C36.3373 32.1414 36.3286 32.1465 36.3194 32.1506C36.2693 32.1715 36.2176 32.1894 36.1655 32.2068C36.1563 32.2093 36.1481 32.2134 36.1389 32.2165C36.0872 32.2323 36.0346 32.2451 35.9819 32.2569C35.9712 32.2589 35.9609 32.2625 35.9502 32.2651C35.8224 32.2911 35.6899 32.3049 35.5544 32.3049C35.5534 32.3049 35.5524 32.3049 35.5514 32.3049C35.5171 32.3049 35.4834 32.3014 35.4496 32.2998C35.4169 32.2978 35.3842 32.2978 35.3519 32.2947C35.3162 32.2906 35.2819 32.284 35.2466 32.2784C35.217 32.2738 35.1863 32.2707 35.1566 32.2646C35.1213 32.2574 35.0871 32.2472 35.0523 32.238C35.0242 32.2303 34.9961 32.2247 34.9684 32.216C34.9332 32.2053 34.8994 32.1915 34.8652 32.1782C34.8396 32.1685 34.813 32.1608 34.7879 32.1501C34.7527 32.1347 34.7184 32.1168 34.6841 32.1C34.6616 32.0887 34.6381 32.079 34.6161 32.0672C34.5824 32.0488 34.5502 32.0274 34.5174 32.0074C34.4965 31.9941 34.4745 31.9824 34.454 31.9686C34.4228 31.9476 34.3937 31.9241 34.364 31.9011C34.3436 31.8858 34.3226 31.8715 34.3027 31.8551C34.2746 31.8321 34.248 31.806 34.2209 31.781C34.202 31.7636 34.182 31.7467 34.1631 31.7283C34.138 31.7028 34.1145 31.6752 34.0905 31.6486C34.0726 31.6287 34.0537 31.6097 34.0363 31.5888C34.0148 31.5622 33.9954 31.5341 33.9754 31.507C33.958 31.4835 33.9396 31.461 33.9233 31.4375C33.9049 31.4104 33.8895 31.3818 33.8727 31.3537C33.8568 31.3276 33.8394 31.302 33.8251 31.2754C33.8098 31.2473 33.7975 31.2177 33.7837 31.1891C33.7699 31.1604 33.7545 31.1328 33.7423 31.1032C33.7305 31.0751 33.7208 31.0454 33.7106 31.0163C33.6988 30.9851 33.686 30.9544 33.6763 30.9227C33.6671 30.8921 33.6605 30.8609 33.6523 30.8297C33.6441 30.798 33.6344 30.7668 33.6282 30.7346C33.6216 30.7024 33.618 30.6692 33.6129 30.637C33.6083 30.6043 33.6016 30.5721 33.5986 30.5394C33.595 30.5061 33.595 30.4724 33.5935 30.4387C33.5914 30.4054 33.5884 30.3732 33.5884 30.3395V6.7143C33.5884 5.20533 32.3612 3.95705 30.8532 3.93098C30.1256 3.92076 29.4343 4.2019 28.8979 4.72892C28.3395 5.2774 28.0194 6.03547 28.0194 6.80835V30.4479C28.0194 30.4836 28.0158 30.5184 28.0138 30.5537C28.0123 30.5849 28.0123 30.6165 28.0092 30.6477C28.0056 30.6825 27.9985 30.7162 27.9933 30.7505C27.9882 30.7817 27.9852 30.8128 27.979 30.843C27.9719 30.8772 27.9616 30.9105 27.9529 30.9442C27.9453 30.9733 27.9396 31.0025 27.9304 31.0311C27.9192 31.0674 27.9049 31.1027 27.8916 31.1379C27.8824 31.1625 27.8747 31.1875 27.8645 31.2115C27.8486 31.2484 27.8302 31.2836 27.8123 31.3194C27.8021 31.3404 27.7929 31.3623 27.7816 31.3833C27.7622 31.4196 27.7397 31.4538 27.7177 31.4886C27.706 31.507 27.6957 31.5269 27.683 31.5453C27.6594 31.5801 27.6334 31.6133 27.6073 31.6466C27.5945 31.6629 27.5832 31.6803 27.57 31.6961C27.5413 31.7314 27.5096 31.7641 27.4784 31.7973C27.4662 31.8096 27.4554 31.8234 27.4431 31.8357C27.4109 31.8684 27.3762 31.898 27.3414 31.9282C27.3286 31.9395 27.3168 31.9517 27.3035 31.9625C27.2647 31.9947 27.2238 32.0238 27.1829 32.0529C27.1726 32.0601 27.1629 32.0683 27.1522 32.0759C27.1082 32.1056 27.0622 32.1327 27.0157 32.1587C27.007 32.1633 26.9993 32.1695 26.9906 32.1741C26.9395 32.2017 26.8873 32.2262 26.8336 32.2497C26.8285 32.2518 26.8239 32.2548 26.8188 32.2569C26.7631 32.2804 26.7058 32.3008 26.6475 32.3192C26.6444 32.3208 26.6414 32.3218 26.6378 32.3228C26.5156 32.3612 26.3883 32.3872 26.2568 32.401C26.2558 32.401 26.2553 32.401 26.2543 32.401C26.1883 32.4077 26.1213 32.4113 26.0533 32.4113C26.0528 32.4113 26.0523 32.4113 26.0513 32.4113C26.0165 32.4113 25.9823 32.4077 25.9475 32.4061C25.9153 32.4041 25.8831 32.4041 25.8514 32.401C25.8151 32.3975 25.7798 32.3903 25.744 32.3847C25.7148 32.3801 25.6852 32.377 25.656 32.3709C25.6177 32.3632 25.5809 32.352 25.5435 32.3423C25.5185 32.3356 25.4924 32.3305 25.4679 32.3228C25.428 32.31 25.3896 32.2947 25.3508 32.2799C25.3298 32.2717 25.3083 32.2651 25.2874 32.2564C25.248 32.2395 25.2101 32.2201 25.1718 32.2007C25.1534 32.1915 25.134 32.1838 25.1156 32.1736C25.0782 32.1531 25.0424 32.1301 25.0061 32.1071C24.9887 32.0964 24.9708 32.0867 24.9535 32.0749C24.9166 32.0504 24.8824 32.0228 24.8476 31.9957C24.8328 31.9844 24.8169 31.9737 24.8021 31.9619C24.7678 31.9333 24.7356 31.9021 24.7029 31.8715C24.6896 31.8592 24.6753 31.848 24.663 31.8352C24.6313 31.8035 24.6017 31.7697 24.5725 31.7355C24.5602 31.7222 24.5475 31.7094 24.5357 31.6956C24.5076 31.6614 24.482 31.6251 24.4564 31.5893C24.4457 31.574 24.4334 31.5597 24.4227 31.5443C24.3987 31.5085 24.3772 31.4712 24.3557 31.4339C24.3455 31.4165 24.3337 31.4002 24.324 31.3823C24.3036 31.3444 24.2862 31.3051 24.2683 31.2657C24.2596 31.2473 24.2493 31.2294 24.2417 31.2105C24.2253 31.1722 24.212 31.1323 24.1982 31.093C24.1911 31.072 24.1819 31.0515 24.1752 31.0296C24.164 30.9923 24.1553 30.9529 24.1455 30.9146C24.1399 30.89 24.1323 30.866 24.1271 30.8415C24.1195 30.8036 24.1149 30.7643 24.1092 30.7259C24.1057 30.6994 24.1 30.6733 24.0975 30.6462C24.0934 30.6104 24.0934 30.5736 24.0919 30.5368C24.0903 30.5066 24.0873 30.477 24.0873 30.4458V14.2254C23.9594 13.129 23.0283 12.2605 21.9008 12.2411C21.3215 12.2313 20.7621 12.4593 20.33 12.8841C19.878 13.3278 19.6187 13.9412 19.6187 14.5664V37.7627L19.6177 37.8506C19.6069 39.1239 18.7704 40.1999 17.5366 40.5281C16.3109 40.8537 15.0586 40.339 14.4144 39.2359L14.4021 39.2139C12.8609 36.5221 8.74162 32.3029 7.53896 31.4186C7.39988 31.3158 7.23983 31.2335 7.06342 31.1722C6.28005 30.9018 5.29778 31.0935 4.61771 31.6496C4.29761 31.9118 3.93201 32.3515 4.0128 32.9562Z" fill="white"/>
</svg>
