<svg width="29" height="29" viewBox="0 0 29 29" fill="none" xmlns="http://www.w3.org/2000/svg">
<g clip-path="url(#clip0_527_54)">
<path d="M6.42701 17.525L5.41756 21.2934L1.72805 21.3715C0.625426 19.3264 0 16.9865 0 14.5C0 12.0955 0.584758 9.82807 1.62128 7.83154H1.62207L4.90678 8.43375L6.34568 11.6987C6.04452 12.5767 5.88037 13.5192 5.88037 14.5C5.88049 15.5643 6.07329 16.5842 6.42701 17.525Z" fill="#FBBB00"/>
<path d="M28.7467 11.7913C28.9132 12.6684 29.0001 13.5743 29.0001 14.5C29.0001 15.5382 28.8909 16.5508 28.683 17.5275C27.9771 20.8514 26.1328 23.7538 23.5778 25.8077L23.577 25.8069L19.4397 25.5958L18.8542 21.9405C20.5495 20.9462 21.8745 19.3902 22.5724 17.5275H14.8188V11.7913H22.6855H28.7467Z" fill="#518EF8"/>
<path d="M23.5768 25.8069L23.5776 25.8076C21.0927 27.805 17.9361 29 14.5 29C8.97803 29 4.17711 25.9136 1.72803 21.3716L6.42699 17.5251C7.6515 20.7932 10.8041 23.1196 14.5 23.1196C16.0886 23.1196 17.5769 22.6901 18.8539 21.9405L23.5768 25.8069Z" fill="#28B446"/>
<path d="M23.7551 3.33817L19.0577 7.18384C17.736 6.35768 16.1737 5.88043 14.4998 5.88043C10.7202 5.88043 7.50872 8.31354 6.34555 11.6988L1.62189 7.83159H1.62109C4.03432 3.17884 8.89579 0 14.4998 0C18.018 0 21.2439 1.25323 23.7551 3.33817Z" fill="#F14336"/>
</g>
<defs>
<clipPath id="clip0_527_54">
<rect width="29" height="29" fill="white"/>
</clipPath>
</defs>
</svg>
