<?xml version="1.0" encoding="utf-8"?>
<!-- Generator: Adobe Illustrator 21.1.0, SVG Export Plug-In . SVG Version: 6.00 Build 0)  -->
<svg version="1.1" id="Layer_1" xmlns="http://www.w3.org/2000/svg" xmlns:xlink="http://www.w3.org/1999/xlink" x="0px" y="0px"
	 viewBox="0 -10 250 260" style="enable-background:new 0 0 250 50;" xml:space="preserve">
<style type="text/css">
	.st0{fill:#D0DDF1;}
	.st1{fill:none;stroke:#E4ECF8;stroke-miterlimit:10;}
	.st2{fill:none;stroke:#C1D1E9;stroke-miterlimit:10;}
</style>
<g>
	<path class="st0" d="M80,207.2c30.7,2,61.4,2,92.1,0l50.8-3.3c5.4-0.3,10.2-3.6,12.4-8.6c7.7-16.8,22.5-57.9,9.6-101.1
		c-17-56.4-72.5-91-121-90.2C75.5,3.2,22.4,40.6,5.4,97c-13.1,43.7,0.8,83.4,7.7,99.1c1.9,4.3,6.1,7.3,10.8,7.6L80,207.2z"/>
	<path class="st1" d="M43.6,187.9l2.6,10.4l5.1,4.5l4.8,0.1l2.8-2.7l-2.2-12.1l-9.2-6.3L43.6,187.9z"/>
	<path class="st1" d="M59.7,186.7l2.3,12.8l5.8,4.2l6.2,0.1l3.8-5.4l-1.9-11.1l-10.2-6.3L59.7,186.7z"/>
	<path class="st1" d="M78.6,187l2.3,12.8l5.1,4.9l5.8,0.1l5.9-5.1l-1.2-12.1l-9.2-7L78.6,187z"/>
	<path class="st1" d="M100.3,187.2l0.5,12.7l7.1,4.9l6.9,0.1l5.9-4.4l-0.2-13.8l-10.2-5.6L100.3,187.2z"/>
	<path class="st1" d="M123.3,186.9l0.2,13.4l6.8,4.9l6.5,0.1l6.2-3.7l-0.2-13.8l-9.9-6.3L123.3,186.9z"/>
	<path class="st1" d="M146,187.8l-0.5,13.1l6.2,4.5l7.2,0.1l5.2-4.1l0.9-14.8l-8.2-4.9L146,187.8z"/>
	<path class="st1" d="M167.3,187.1l-0.9,13.8l6.5,3.9l6.5,0.1l5.2-3.8l1.6-15.1l-7.1-5.6L167.3,187.1z"/>
	<path class="st1" d="M187.9,186.3l-1.5,14.1l4.1,3.2l6.2,0.1l5.6-5.1l1.9-14.4l-5.4-5.2L187.9,186.3z"/>
	<path class="st1" d="M206.1,184.8l-2.1,14.1l2.3,3.1l4.9,0l4.4-5l2.9-13.7l-3.4-4.2L206.1,184.8z"/>
	<path class="st1" d="M220.2,184.3L217,198l1.4,3l6.2-2.4l5.9-15.5l-3-4.9L220.2,184.3z"/>
	<path class="st1" d="M232.6,182.4l4.4-4.1l0.4,4.5l-5,13.7l-3.5,2.7l-1.7-1.1v-2.4L232.6,182.4z"/>
	<path class="st1" d="M40.2,186.5l4,12.4L42,202h-5.3l-3.9-2.9l-3-12.8l2.8-3.8L40.2,186.5z"/>
	<path class="st1" d="M27.1,184.9l-5.5-3.9l-0.8,4.8l4.3,12.4l2.2,2.3h2.7l0.6-2.2L27.1,184.9z"/>
	<path class="st1" d="M14.8,180.3l4.1,4.9l4,12.1l-1.3,2.7l-3.2-2.4l-5-14.2L14.8,180.3z"/>
	<path class="st1" d="M12.9,180.5l-2.9-15.9l-2.6-3.5l-1.1,4.1l3.5,14.8l2,2.1L12.9,180.5z"/>
	<path class="st1" d="M14.6,178.8l-2.9-14.2l1.4-5.5l5,6.6l1.9,13.1l-1.1,3.8L14.6,178.8z"/>
	<path class="st1" d="M21.8,178.2l-2.2-12.8l3.2-6.2l6,5.3l2.2,14.8l-2.4,4.1L21.8,178.2z"/>
	<path class="st1" d="M32.6,179l-2.2-14.2l5.5-5.8l7.7,6l1.9,13.5l-4.2,5.8L32.6,179z"/>
	<path class="st1" d="M46.9,178.2l-1.9-12.7l7.6-6.4l10.8,6l1.9,13.5l-7.2,6.4L46.9,178.2z"/>
	<path class="st1" d="M66.6,178.5l-1.8-13.8l8.6-6.8l11.1,6.4l0.8,14.5l-8.6,6.4L66.6,178.5z"/>
	<path class="st1" d="M87.1,178.1l-0.5-13.8l10.7-7.1l11.1,7.4l0.1,13.8l-10.6,6.7L87.1,178.1z"/>
	<path class="st1" d="M110.2,178.1l-0.1-13.8l11-7.7l11.1,6.7l-0.2,16.2l-10.3,5L110.2,178.1z"/>
	<path class="st1" d="M133.9,179.1l0.2-15.8l11.3-6.4l10.1,7l0.1,15.9l-10.3,5.7L133.9,179.1z"/>
	<path class="st1" d="M157.4,179.4l0.5-15.2l11.3-6.7l8.8,6.7l-0.2,14.8l-10,5.7L157.4,179.4z"/>
	<path class="st1" d="M179.2,178.7l0.6-14.5l10.6-6l8.4,6.6l-0.9,12.7l-10.3,6.4L179.2,178.7z"/>
	<path class="st1" d="M199.6,178l0.9-12.7l9-7.1l5,5.9l-0.5,12.7l-8.2,6.8L199.6,178z"/>
	<path class="st1" d="M215.2,177.2l0.9-12.7l7.6-6.1l3.7,5.5l-0.6,13.1l-6.2,5.1L215.2,177.2z"/>
	<path class="st1" d="M228.1,177l0.9-13.1l5.5-5.1l3,5.5l-0.8,12.1l-5.5,4.8L228.1,177z"/>
	<path class="st1" d="M237.7,176.5l1.2-12.8l4.6-4.8l0.8,6.2l-3.2,12.1l-2.1,2.3L237.7,176.5z"/>
	<path class="st1" d="M7.6,140l-2.1,4.5l0.9,13.4l3.1,3.8l1.8-4.1l-0.5-13.8L7.6,140z"/>
	<path class="st1" d="M12.7,143.9l0.5,13.8l4.7,4.9l3.2-4.4L20.6,144l-4.4-4.5L12.7,143.9z"/>
	<path class="st1" d="M22.3,144l0.5,14.1l6.5,5.2l5.2-4.8l-0.2-15.5l-7.1-5.2L22.3,144z"/>
	<path class="st1" d="M36,143.1l0.2,14.8l7.9,5.3l6.9-6.1l-0.2-14.8l-9.2-5.6L36,143.1z"/>
	<path class="st1" d="M52.2,142.3l0.2,14.8l10.6,5.6l8.7-5.8l0.1-15.2l-10.9-6.3L52.2,142.3z"/>
	<path class="st1" d="M73.2,141.8L73,156.3l12.6,6.3l10-6.7l-0.2-14.1l-11.9-7L73.2,141.8z"/>
	<path class="st1" d="M96.9,141.8l-0.1,13.8l12.3,7.1l11.4-7.8l-0.5-13.4l-11.6-7L96.9,141.8z"/>
	<path class="st1" d="M121.7,141l0.5,13.4l11.6,6.7l10.7-6.4l0.2-14.1l-11.3-6.3L121.7,141z"/>
	<path class="st1" d="M146.7,141l-0.2,13.8l10.6,7.7l11.4-6.7l0.2-14.8l-10.9-6.3L146.7,141z"/>
	<path class="st1" d="M170.4,140.9l-0.2,14.5l9.3,7.1l10-5.9l0.4-15.4l-9.2-7L170.4,140.9z"/>
	<path class="st1" d="M191.6,141.5l-0.1,15.2l8.7,6.1l8.9-6.2l0.9-14.5l-7.1-7.3L191.6,141.5z"/>
	<path class="st1" d="M211.7,142.1l-0.9,14.5l4.9,6.2l7.2-6.9l1.4-13.8l-4.6-6.5L211.7,142.1z"/>
	<path class="st1" d="M225.6,142.4l-1.4,13.6l4.5,6.1l5.8-6l0.9-14.1l-3.1-4.2L225.6,142.4z"/>
	<path class="st1" d="M236.6,142.4l-1,13.8l3.1,5.9l4.7-5.5l1.1-13.1l-3.3-5.5L236.6,142.4z"/>
	<path class="st1" d="M6.6,116.8l1.3,3.4l-0.2,15.5l-2.2,5.1l-1.3-4.1l-0.4-17.3L6.6,116.8z"/>
	<path class="st1" d="M9.3,118.9L9,136.4l2.7,5.2l2.8-5.1l1-18.6l-3.4-3.5L9.3,118.9z"/>
	<path class="st1" d="M16.9,117.6l-0.3,17.9l4.7,4.9l4.9-4.8l0.3-18.9l-5.1-5.2C21.4,111.5,17.2,117.3,16.9,117.6z"/>
	<path class="st1" d="M28.2,116.8l-0.3,18.9l7.1,4.6l6.9-5.8l0.3-18.9l-7.5-5.3L28.2,116.8z"/>
	<path class="st1" d="M43.7,115.3l-0.3,18.9l8.9,5.6l9.7-7.4l0.3-18.9l-9.5-5.6L43.7,115.3z"/>
	<path class="st1" d="M63.7,113.5l-0.3,18.6l9.9,6.7l11.1-6.4l0.3-18.9l-10.5-6.7L63.7,113.5z"/>
	<path class="st1" d="M86.7,113.6l-0.3,18.9l9.9,5.3l12.1-5.6l0.3-18.9l-11.2-7.1L86.7,113.6z"/>
	<path class="st1" d="M111.4,112.9l-0.3,18.9l10.5,5.3l11.4-6l0.3-19.3l-11.6-7.1L111.4,112.9z"/>
	<path class="st1" d="M135.5,111.6l-0.3,19.6l11.3,5l10.4-4.3l0.3-20l-10.2-6.7L135.5,111.6z"/>
	<path class="st1" d="M159.5,111.6l-0.3,20.3l11.1,6.4l10.9-6l0.3-20.7l-10.2-5.6L159.5,111.6z"/>
	<path class="st1" d="M183.6,111.7l-0.3,20.3l8.3,7.4l10.5-6l0.3-20l-9.9-5.6L183.6,111.7z"/>
	<path class="st1" d="M204.2,113.4l-0.3,19.6l7.3,6.7l8.1-5.4l0.3-19.6l-7.8-5.3L204.2,113.4z"/>
	<path class="st1" d="M221.3,115l-0.3,18.3l4.2,6.7l7.1-5.2l0.3-19.6l-5.4-4.2L221.3,115z"/>
	<path class="st1" d="M234.4,115.6l-0.3,19.3l2.5,5.9l5.3-4.4l0.3-18.9l-3.4-4.2L234.4,115.6z"/>
	<path class="st1" d="M243.2,118v18.3l1.4,5.5l3.8-4.8v-17.2l-2.1-5.5L243.2,118z"/>
	<path class="st1" d="M5.9,113l2.3,3.8l3.2-4.1l3-17.2l-2.4-2.4l-3.8,3.7L5.9,113z"/>
	<path class="st1" d="M15.9,115.2l-3-3.1l3.3-17.2l3.9-5.1l3,3.8l-2.3,16.5L15.9,115.2z"/>
	<path class="st1" d="M22.2,109.8l3-16.2l6.3-6.8l4.4,3.9l-2,17.5l-5.6,5.8L22.2,109.8z"/>
	<path class="st1" d="M35.6,107.9l2-16.8l9.4-6.7l7.5,7l-1.2,14.1L43,112.9L35.6,107.9z"/>
	<path class="st1" d="M54.8,106.2l0.9-14.8l9.4-8.8L74,90l-0.2,14.1l-9.7,7.1L54.8,106.2z"/>
	<path class="st1" d="M75.5,104.4l0.2-14.8l11.1-8.8l10.5,8.4l-0.2,14.4L86,110.8L75.5,104.4z"/>
	<path class="st1" d="M99.2,103.8l0.2-14.5l10.4-8.1l10.5,7.4l-0.2,14.1l-9.7,7.8L99.2,103.8z"/>
	<path class="st1" d="M122.2,102.4l0.2-14.1l10.8-7.7l11.5,6.7l-0.2,15.5l-9.7,6.4L122.2,102.4z"/>
	<path class="st1" d="M147,102.1l0.2-14.8l9.1-6.7l11.6,6.4l-0.3,16.9l-8.7,5.4L147,102.1z"/>
	<path class="st1" d="M170,103.2l0.3-16.5l9-5.7l9.9,6.4l1.4,17.6l-8.7,4.7L170,103.2z"/>
	<path class="st1" d="M192.3,104.9L191.2,87l8-4.3l10.2,6.7l1.1,16.9l-7.3,5L192.3,104.9z"/>
	<path class="st1" d="M211.9,105.9l-1.1-16.5l5.9-4.7l7.5,6.3l2.5,16.6l-5.6,4.8L211.9,105.9z"/>
	<path class="st1" d="M226.2,91l1.8,16.6l5.1,5.6l4.5-3l-2.5-15.5l-5.1-6.3L226.2,91z"/>
	<path class="st1" d="M236.8,94.6l2.2,15.5l3.7,5.2l2.5-4.4l-1.8-14.5l-4.4-5.6L236.8,94.6z"/>
	<path class="st1" d="M12.8,91.4l2,2.4l4.5-4.8l5.1-14l-2-2.4l-4.2,2.7L12.8,91.4z"/>
	<path class="st1" d="M21.1,88.4L25.5,75l4.9-5.8l2.7,4.5l-2.9,12l-5.3,6.1L21.1,88.4z"/>
	<path class="st1" d="M31.5,85.8l3.3-12.3l9.4-7.8l5.1,4.9l-2.6,12l-9.4,6.7L31.5,85.8z"/>
	<path class="st1" d="M48.3,83l2.6-12.4l9.7-7.1l6.8,5.6l-2.3,11L55.4,89L48.3,83z"/>
	<path class="st1" d="M66.9,80.2l1.6-11l9-7.4l9.2,6.4l-0.5,10.3l-11.1,8.8L66.9,80.2z"/>
	<path class="st1" d="M88.9,78.1l0.2-10l10.8-8.4l9.2,6.7l-0.2,12.4l-10.1,7.7L88.9,78.1z"/>
	<path class="st1" d="M110.9,78.5l0.2-12.1l11.5-7.7l10.2,7.1l-0.2,12.7l-11.1,7.7L110.9,78.5z"/>
	<path class="st1" d="M134.3,78.5l0.6-12.7l9.4-6.7l9.6,5.3l0.4,14.5l-8.3,6.4L134.3,78.5z"/>
	<path class="st1" d="M156.3,78.5l-0.1-14.5l9.7-5l9.2,5.3l1.8,14.8l-8.3,6.1L156.3,78.5z"/>
	<path class="st1" d="M178.6,78.9l-1.5-14.2l6.9-5.1l10.9,7.1l3.2,14.5l-8.3,4.3L178.6,78.9z"/>
	<path class="st1" d="M196.3,67.1l3.2,13.8l10.2,7l6.3-4.7l-4.6-14.2l-9.2-6.7L196.3,67.1z"/>
	<path class="st1" d="M212.8,69.1l4.3,13.8l7.8,7l4.5-3.4l-5.6-15.2l-7.5-5.6L212.8,69.1z"/>
	<path class="st1" d="M225.1,71.3l5.6,15.6l4.7,5.9l2.8-3.7L233,75.6l-5.7-6.3L225.1,71.3z"/>
	<path class="st1" d="M23.1,71.2l1.3,2.1l5.9-5.4l4.6-9.5l-2.3-3.2l-4.5,3.4L23.1,71.2z"/>
	<path class="st1" d="M32.8,68l4-10.3l8-8.1l3.7,4.2l-3.3,9.6l-10.8,8.4L32.8,68z"/>
	<path class="st1" d="M46.6,64l3.3-10.3l9.8-8.4l5.7,5.3l-4.6,11.6l-10.4,6.7L46.6,64z"/>
	<path class="st1" d="M62.1,62.2l4.6-12l8.4-7.1l7.1,5.6l-4,11.7l-10.1,7.1L62.1,62.2z"/>
	<path class="st1" d="M83.9,48.4l-4,12l7.8,6.3l11.8-9.1l1.9-11.7L94,41.4L83.9,48.4z"/>
	<path class="st1" d="M102.5,46L101,57.3l9.2,7.4l11.8-7.7l0.5-10.7l-9.5-6.7L102.5,46z"/>
	<path class="st1" d="M123.8,46.3l-0.5,10.3l10.2,7.4l9.7-6l0.2-11.4l-9.9-7.1L123.8,46.3z"/>
	<path class="st1" d="M144.8,46.6l0.2,11l9.6,5l9.7-5l-1.9-12.4l-8.9-5.3L144.8,46.6z"/>
	<path class="st1" d="M163.4,44.9l2.5,12.4l10.2,6l6.9-4.4l-2.6-11.1l-9.9-6.4L163.4,44.9z"/>
	<path class="st1" d="M181.5,47.9l2.6,10.4l11.2,7.1l6.3-4l-3-10.4l-10.5-7.1L181.5,47.9z"/>
	<path class="st1" d="M199.3,50.9l3.3,10.1l9.2,7l3.8-3.7l-3.9-11.4l-7.8-4.9L199.3,50.9z"/>
	<path class="st1" d="M212.7,53.2l4,10.7l7.5,6l2.4-2.4l-4.3-10.4l-5.8-5.6L212.7,53.2z"/>
	<path class="st2" d="M28.1,53.2c0,0,15.5-16.8,97.9-16.2c82.5,0.6,98.3,17.3,98.3,17.3"/>
	<path class="st1" d="M114.1,30.7l5.1,3.9l11.3,0.2l3.8-3.1l-0.2-8.6l-8.2-3.6l-10.4,3.7L114.1,30.7z"/>
	<path class="st1" d="M136.6,23.8l-0.1,8.3l6.5,3.5l5.8,0.1l6.3-3l-0.9-7.6l-8.9-4.6L136.6,23.8z"/>
	<path class="st1" d="M155.8,25.5l0.5,7.2l4.8,2.8l7.6,0.8l4.8-2.7l-0.2-5.9l-7.1-4.2L155.8,25.5z"/>
	<path class="st1" d="M175.1,28.9l-0.1,4.8l5.6,4.2l8.6,1.2l3.8-2l0.4-3.4l-8.5-5.3L175.1,28.9z"/>
	<path class="st1" d="M194.7,34l-0.3,3.5l3.1,3.4l8.9,2.1l-1.7-6l-4.1-3.2L194.7,34z"/>
	<path class="st1" d="M112.9,23.7l-1.1,6.5l-5.9,4.4l-10.3,0.2l-3.4-4.2l1.8-6.5l9.3-4.3L112.9,23.7z"/>
	<path class="st1" d="M91.9,24.1L90.4,31l-4.2,4.4l-9.3,0.6l-2.4-2.4l2.9-7.9l7.6-3.7L91.9,24.1z"/>
	<path class="st1" d="M75.3,26.2l-2.5,8.2l-2.8,2l-7.2,1.6l-2.7-1.8l3.2-6.5l6.9-4.7L75.3,26.2z"/>
	<path class="st1" d="M60.8,30.1L58,36.6l-5.5,4.1L46.2,42l0.7-3.1l4.8-6.3l6.7-3.2L60.8,30.1z"/>
	<path class="st1" d="M126.9,17.8l8,4.3l8.5-3l0.1-4.5l-8-3.9l-7.8,3.3L126.9,17.8z"/>
	<path class="st1" d="M145,14.7l-0.1,4.5l10,4.8l8.9-1.7l-1.4-5.9l-9-4.3L145,14.7z"/>
	<path class="st1" d="M163.8,16.4l1.7,5.5l8.9,4.8l6.5-1l-4.2-7.6l-7.3-3.3L163.8,16.4z"/>
	<path class="st1" d="M125.2,14.3l-0.4,3.4L114,21.9l-7.2-3.8l1.2-4.5l7.7-2.6L125.2,14.3z"/>
	<path class="st1" d="M106.1,14l-0.8,3.8l-12,4.9l-4.6-3.1L90,15l8.5-2.9L106.1,14z"/>
	<path class="st1" d="M88.1,15.7l-2.3,4.4l-9.6,4l-3.6-1.8l3.3-5.5l5.8-2.4L88.1,15.7z"/>
	<path class="st1" d="M72.7,18.5l-2,4.5l-8.2,5.9l-3.8-1.4l10.7-7.6L72.7,18.5z"/>
	<path class="st1" d="M177.9,18.1l5.8,7.9l10.3,6.2h6.2L177.9,18.1z"/>
	<path class="st1" d="M101.4,11.1l5.1,1.5l7.7-2.2l0.1-2.8l-6.5-1.2l-6.3,1.9L101.4,11.1z"/>
	<path class="st1" d="M115.8,7.3l-0.1,2.4l10.2,3.3l8.1-3.3l0-2.4L124.6,5L115.8,7.3z"/>
	<path class="st1" d="M136,7.3l-0.1,2.1l8,4l7.7-2.3l0.1-2.4l-7.5-2.2L136,7.3z"/>
	<path class="st1" d="M152.8,9l0,1.4l8.3,4.6l8.4-0.9l-3-1.2l-4.8-1.4L152.8,9z"/>
	<path class="st1" d="M99.3,9v1.4L88.9,14l-4-0.8l5.2-2.3L99.3,9z"/>
</g>
</svg>
