<svg width="67" height="129" viewBox="0 0 67 129" fill="none" xmlns="http://www.w3.org/2000/svg">
<path d="M0.219635 5.2877L7.97459 29.8459C8.2394 30.6915 8.8185 31.3691 9.54121 31.7964L33.5517 113.781L36.876 123.181C36.876 123.181 50.1789 131.532 58.7075 126.77C67.7883 121.7 72.7401 108.495 52.9102 110.043C52.6076 110.068 52.2919 110.094 51.97 110.128C51.97 110.128 42.292 111.595 38.8919 112.954L14.7191 30.1987C15.0465 29.4673 15.131 28.6309 14.8711 27.8082L7.10921 3.24956C6.52867 1.40821 4.51189 0.374297 2.61125 0.935259C0.710596 1.49622 -0.36352 3.44567 0.219635 5.2877Z" fill="white"/>
</svg>
