<svg width="358" height="257" viewBox="0 0 358 257" fill="none" xmlns="http://www.w3.org/2000/svg">
<path d="M265.988 39.6697C265.963 39.4613 265.963 39.251 265.988 39.0426C260.916 39.8381 255.831 40.5871 250.777 41.4987C246.547 42.2729 242.319 43.0471 238.093 43.8213L232.818 44.7852C218.558 47.4174 204.3 50.0458 190.044 52.6703C189.189 52.7746 188.321 52.6005 187.585 52.1767C184.541 50.4062 181.062 49.4155 177.489 49.3026C170.837 49.0239 166.625 51.5206 163.748 57.1587C163.266 57.9768 162.469 58.5881 161.522 58.8658C153.189 60.8748 144.838 62.8103 136.468 64.6722C136.051 64.7646 135.619 64.7778 135.197 64.711C134.774 64.6442 134.37 64.4988 134.008 64.2831C131.131 61.9606 128.29 64.3935 125.456 64.2018C125.265 64.2018 124.896 64.556 124.841 64.7825C124.472 66.8147 122.566 66.1993 121.404 66.3328C120.021 66.4896 118.545 65.8799 117.1 65.6651C114.297 65.247 111.456 64.6722 109.034 66.7973C108.856 66.9541 108.456 66.9193 108.155 66.9135C106.433 66.8844 105.628 67.9644 105.48 69.3057C105.365 71.1579 105.348 73.0145 105.431 74.8683C105.08 75.0308 104.38 75.1644 104.048 75.565C103.86 75.7877 103.73 76.048 103.666 76.3258C103.602 76.6036 103.606 76.8916 103.679 77.1676C103.961 77.6728 105.025 78.3579 105.246 78.2244C107.448 76.8947 109.157 78.2941 110.448 79.3857C114.248 82.5211 118.096 85.7089 121.3 89.3553C123.814 92.2237 125.272 95.8933 127.448 99.0636C130.024 102.826 133.148 106.287 135.508 110.166C138.509 115.089 137.353 116.402 145.61 114.811C146.012 114.763 146.421 114.805 146.803 114.933C147.185 115.061 147.531 115.272 147.811 115.548C148.955 117.139 150.271 117.191 151.888 116.465C154.046 115.502 156.228 114.584 157.993 113.824C160.206 120.35 169.06 158.417 177.114 162.133C177.329 162.238 183.527 159.445 183.754 159.543C186.078 160.6 188.47 161.593 190.788 162.679C195.791 161.262 200.643 159.406 205.28 157.134C205.163 156.675 205.04 156.222 204.917 155.763C204.603 154.643 204.302 153.528 204.068 152.401C203.08 148.36 202.894 144.18 203.521 140.074C204.376 135.075 205.175 130.047 205.507 124.978C206.319 112.726 204.757 100.922 197.803 90.1392C195.793 87.0153 194.231 83.5256 194.803 79.5947C194.883 79.0605 194.569 78.1082 194.157 77.9398C192.405 77.2082 192.7 76.0644 193.112 74.7637C195.338 67.6276 194.717 60.8283 190.253 54.2322C190.997 54.0406 191.483 53.878 192.005 53.7851C205.941 51.2884 219.89 48.7877 233.851 46.2832L239.095 45.3484C245.244 44.2568 251.373 43.1729 257.485 42.0968C260.387 41.5858 263.522 41.2897 266.271 40.9819C266.099 40.5628 266.003 40.1191 265.988 39.6697ZM133.246 73.585C134.248 72.2612 134.801 70.647 135.607 69.1838C135.951 68.5625 136.326 67.6509 136.886 67.4883C145.1 65.1018 153.351 62.8141 161.596 60.5206C161.879 60.483 162.167 60.483 162.45 60.5206C163.121 66.687 159.376 71.5528 157.077 77.1966L162.832 76.6566C163.446 78.6482 164.061 80.4715 164.528 82.3295C164.947 84.0714 164.897 85.6856 163.09 86.905C162.003 87.566 161.094 88.4566 160.434 89.5063C159.05 92.0959 157.298 91.7301 154.9 90.9114C152.502 90.0927 149.871 90.1392 147.436 89.5585C145.973 89.2101 144.362 88.6759 143.305 87.7295C139.862 84.493 135.612 82.1268 130.946 80.8489C128.678 80.2334 128.223 77.8992 130.03 76.3141C131.088 75.385 132.416 74.665 133.215 73.585H133.246ZM171.365 93.4314L171.242 93.9598L160.36 92.1424L164.049 87.5553C165.383 88.2463 166.539 88.8037 167.652 89.4366C168.008 89.6398 168.531 90.0869 168.476 90.3308C167.959 92.4908 169.57 93.0075 171.347 93.4314H171.365ZM122.585 72.3308C123.2 69.4276 126.79 66.9425 130.719 67.018C128.21 70.1128 125.278 72.8999 126.108 77.1502C123.532 76.2676 122.154 74.305 122.566 72.3308H122.585ZM140.562 96.9907C137.925 96.4101 135.146 95.754 132.361 95.1443C129.286 94.4708 126.661 93.083 125.093 90.4585C122.117 85.494 117.654 81.894 112.932 78.5263C112.575 78.2708 112.231 77.9979 111.887 77.725C111.844 77.6902 111.887 77.5857 111.887 77.6902C114.088 77.4986 116.283 77.2721 118.484 77.1386C119.043 77.1037 119.861 77.1792 120.138 77.516C122.13 79.9431 125.149 80.274 127.934 81.0811C132.059 82.2773 136.08 83.5779 139.357 86.4695C141.325 88.2114 143.618 89.6224 145.604 91.0682L140.562 96.9907ZM146.797 101.02C145.063 100.196 144.571 99.1914 145.223 97.6469C145.769 96.1764 146.5 94.7729 147.399 93.4662C148.721 91.7243 150.406 91.1959 152.902 91.8172C159.376 93.4604 165.949 94.7553 172.509 96.0791C177.212 97.0314 181.682 98.4656 185.654 101.073C186.367 101.543 187.031 102.071 188.113 102.849C186.73 102.768 185.918 102.687 185.101 102.669C182.998 102.623 181.584 103.326 180.865 105.416C179.635 109.039 179.481 109.004 175.368 109.173C173.659 109.248 171.962 109.393 169.834 109.527L174.63 113.62C174.483 113.8 174.347 113.986 174.206 114.172C173.788 114.049 173.377 113.904 172.976 113.736C164.252 109.492 155.558 105.184 146.784 101.02H146.797ZM167.978 134.152C167.719 134.066 167.483 133.926 167.289 133.744C167.094 133.561 166.945 133.339 166.853 133.095C166.181 128.855 164.615 124.786 162.247 121.128C161.706 120.28 161.571 119.2 161.251 118.225L162.051 117.72C164.639 120.536 167.246 123.34 169.804 126.174C172.023 128.624 174.194 131.109 176.382 133.583L177.059 133.142L173.819 127.533C181.387 130.436 186.964 135.522 188.286 140.138C181.695 138.222 174.821 136.213 167.965 134.152H167.978ZM182.635 61.6238C182.451 64.4806 182.85 67.3663 183.016 70.5367L174.686 69.7296L174.606 70.1534L184.283 72.6037C182.242 74.8044 180.526 76.9876 178.424 78.7586C177.618 79.4437 175.848 79.5018 174.655 79.2521C173.284 78.8927 172.021 78.2367 170.966 77.336C167.953 74.9437 164.707 73.9973 160.907 75.3502C160.468 75.4397 160.022 75.4941 159.573 75.5128C159.912 74.5535 160.323 73.6182 160.803 72.7141C162.599 69.9141 163.669 66.7526 163.926 63.4877C164.885 51.7296 173.308 49.0645 183.656 52.2929C185.156 52.7632 186.447 53.8142 188.439 54.9406C184.308 56.067 182.82 58.5812 182.623 61.6238H182.635Z" fill="white"/>
<path d="M166.509 6.37543C119.91 6.37543 82 42.1779 82 86.1848C82 130.192 119.91 166 166.509 166C180.001 166.014 193.3 162.961 205.28 157.099C205.163 156.64 205.04 156.187 204.917 155.728C204.604 154.608 204.302 153.493 204.069 152.366C192.526 158.237 179.618 161.302 166.509 161.285C122.665 161.285 86.9924 127.608 86.9924 86.1848C86.9858 71.121 91.7784 56.4038 100.747 43.9468C109.716 31.4897 122.445 21.8691 137.281 16.3358C152.117 10.8026 168.372 9.61265 183.933 12.9208C199.495 16.2289 213.642 23.882 224.536 34.885L230.273 33.8573C222.352 25.2268 212.559 18.306 201.557 13.5643C190.555 8.82259 178.602 6.37086 166.509 6.37543Z" fill="white"/>
<path d="M244.408 40.2037L241.844 40.6682L237.983 36.3192C228.285 25.3954 218.585 14.4754 208.883 3.55934C207.817 2.43731 206.833 1.24812 205.938 0L244.408 40.2037Z" fill="white"/>
<path d="M255.536 38.1598L253.077 38.6011L250.544 35.6979L227.869 9.74899C227.798 9.67063 227.734 9.58715 227.678 9.49931L227.752 9.46448C237.007 19.0102 246.268 28.5754 255.536 38.1598Z" fill="white"/>
<path d="M264.93 33.9561L262.471 34.4032L250.617 20.8684C245.944 15.5381 241.267 10.2136 236.586 4.89492L236.679 4.7962L264.93 33.9561Z" fill="white"/>
<path d="M274.264 41.0631C273.904 41.8508 273.306 42.5206 272.544 42.988C271.783 43.4555 270.892 43.6998 269.983 43.6902C269.075 43.6806 268.19 43.4176 267.44 42.9342C266.689 42.4508 266.107 41.7686 265.766 40.9735C265.425 40.1784 265.341 39.3058 265.524 38.4656C265.707 37.6253 266.149 36.8549 266.794 36.2513C267.44 35.6477 268.26 35.2378 269.151 35.0732C270.043 34.9086 270.966 34.9967 271.804 35.3263C272.368 35.5469 272.879 35.8711 273.308 36.2801C273.738 36.6891 274.077 37.1746 274.306 37.7085C274.535 38.2423 274.649 38.8139 274.641 39.3898C274.634 39.9657 274.506 40.5345 274.264 41.0631ZM271.731 35.5586C271.481 35.4636 271.224 35.386 270.962 35.3263C270.066 35.1493 269.134 35.2385 268.294 35.5818C268.252 35.5969 268.215 35.621 268.185 35.6523C268.155 35.6836 268.133 35.7211 268.121 35.7618C268.095 35.8546 268.031 35.9339 267.943 35.9825L267.593 36.1508C267.526 36.1817 267.468 36.2265 267.422 36.2818C267.376 36.3372 267.344 36.4016 267.328 36.4702C267.32 36.5198 267.301 36.5672 267.273 36.6096C267.227 36.6739 267.178 36.7359 267.125 36.7954C267.095 36.8234 267.073 36.8587 267.062 36.8976C267.051 36.9365 267.052 36.9774 267.064 37.016C267.078 37.0614 267.094 37.106 267.113 37.1496C267.135 37.2158 267.135 37.2865 267.113 37.3528C267.078 37.5316 266.97 37.6901 266.812 37.7941C266.779 37.8153 266.751 37.8434 266.73 37.8761C266.71 37.9088 266.698 37.9454 266.694 37.9832C266.691 38.021 266.696 38.0591 266.71 38.0947C266.724 38.1303 266.746 38.1625 266.775 38.1889C266.799 38.2122 266.818 38.2399 266.83 38.2702C266.881 38.3899 266.896 38.5205 266.873 38.6476C266.864 38.7726 266.808 38.8902 266.714 38.9786C266.679 39.0138 266.653 39.0565 266.639 39.1029C266.625 39.1494 266.623 39.1984 266.634 39.2457C266.637 39.2747 266.647 39.3025 266.665 39.3268C266.682 39.3511 266.705 39.3711 266.732 39.385C266.761 39.3993 266.786 39.4191 266.806 39.4431C266.908 39.5457 266.967 39.6799 266.972 39.8205C266.981 39.876 266.978 39.9327 266.962 39.9868C266.946 40.041 266.918 40.0912 266.88 40.1341C266.856 40.1635 266.839 40.1971 266.83 40.2329C266.821 40.2687 266.819 40.3059 266.825 40.3422C266.832 40.3786 266.846 40.4133 266.867 40.4444C266.888 40.4755 266.915 40.5023 266.947 40.5231C267.066 40.598 267.151 40.7119 267.187 40.8427C267.222 40.9735 267.204 41.112 267.138 41.2315C267.116 41.2656 267.108 41.3059 267.115 41.3453C267.121 41.3846 267.143 41.4204 267.175 41.4463L267.261 41.5102C267.395 41.5879 267.497 41.7068 267.55 41.8469C267.565 41.8739 267.586 41.8977 267.611 41.9166C267.675 41.9678 267.755 41.9984 267.839 42.0037C267.968 42.0075 268.094 42.0458 268.201 42.1141C268.264 42.1473 268.319 42.193 268.362 42.2482C268.404 42.3033 268.433 42.3665 268.447 42.4334C268.451 42.4576 268.46 42.4809 268.473 42.5017C268.487 42.5224 268.505 42.5402 268.527 42.5539C268.548 42.5676 268.573 42.5769 268.598 42.5811C268.624 42.5854 268.65 42.5845 268.675 42.5786C268.867 42.5392 269.067 42.566 269.24 42.654C269.289 42.6741 269.332 42.7044 269.366 42.7426C269.4 42.7809 269.425 42.8261 269.437 42.8747C269.44 42.8959 269.448 42.9161 269.461 42.9334C269.474 42.9506 269.492 42.9644 269.512 42.9732C269.533 42.982 269.555 42.9856 269.578 42.9836C269.6 42.9816 269.622 42.9741 269.64 42.9618C269.667 42.9448 269.696 42.9311 269.726 42.9211C269.84 42.8979 269.957 42.8979 270.071 42.9211C270.145 42.927 270.217 42.9516 270.279 42.9925C270.341 43.0333 270.39 43.0888 270.421 43.1534C270.426 43.1656 270.433 43.1765 270.444 43.1852C270.454 43.194 270.466 43.2003 270.479 43.2037C270.492 43.2071 270.506 43.2075 270.52 43.2048C270.533 43.2021 270.546 43.1964 270.556 43.1882C270.714 43.0949 270.899 43.0484 271.085 43.0547C271.164 43.0517 271.242 43.0742 271.306 43.1186C271.364 43.1653 271.434 43.1973 271.509 43.2115C271.519 43.2156 271.529 43.2178 271.54 43.2178C271.551 43.2178 271.561 43.2156 271.571 43.2115C272.153 43.0054 272.68 42.6828 273.118 42.2659C273.555 41.8489 273.891 41.3474 274.104 40.796C274.194 40.5787 274.26 40.3529 274.301 40.1224C274.439 39.4247 274.384 38.7051 274.14 38.0335C273.897 37.3619 273.473 36.7613 272.911 36.2902C272.561 35.9889 272.163 35.7419 271.731 35.5586Z" fill="white"/>
<path d="M267.938 40.9933C268.036 41.0329 268.122 41.096 268.187 41.1764C268.251 41.2569 268.293 41.3519 268.307 41.452C268.312 41.4876 268.309 41.5238 268.299 41.5584C268.289 41.593 268.272 41.6254 268.248 41.6536C268.225 41.6818 268.196 41.7052 268.162 41.7224C268.129 41.7397 268.092 41.7504 268.055 41.754C268.011 41.754 267.993 41.754 267.987 41.7075C267.972 41.5849 267.917 41.4698 267.828 41.379C267.74 41.2881 267.623 41.2263 267.495 41.2024C267.446 41.2024 267.434 41.1675 267.452 41.1269C267.474 41.0749 267.513 41.0305 267.562 40.9995C267.611 40.9684 267.669 40.9521 267.729 40.9527C267.801 40.9516 267.872 40.9655 267.938 40.9933Z" fill="white"/>
<path d="M268.804 41.7714C268.713 41.736 268.614 41.7201 268.515 41.7249C268.46 41.7249 268.441 41.6959 268.466 41.6494C268.487 41.6059 268.519 41.5676 268.558 41.5374C268.598 41.5072 268.644 41.4859 268.694 41.4753C268.826 41.4465 268.965 41.4599 269.088 41.5135C269.212 41.5671 269.313 41.6578 269.376 41.7714C269.395 41.8068 269.406 41.8453 269.408 41.8847C269.411 41.9242 269.405 41.9638 269.392 42.0011C269.378 42.0384 269.356 42.0728 269.328 42.1022C269.3 42.1315 269.266 42.1553 269.228 42.172C269.173 42.172 269.155 42.172 269.142 42.1314C269.12 42.0506 269.077 41.9759 269.019 41.9134C268.96 41.8509 268.886 41.8022 268.804 41.7714Z" fill="white"/>
<path d="M267.709 39.7741C267.834 39.8324 267.934 39.9291 267.994 40.0483C268.053 40.1675 268.067 40.3022 268.035 40.4303C268.018 40.4882 267.987 40.5417 267.945 40.5861C267.902 40.6305 267.848 40.6647 267.789 40.6857C267.778 40.69 267.767 40.6923 267.755 40.6923C267.743 40.6923 267.732 40.69 267.721 40.6857C267.721 40.6857 267.721 40.6509 267.721 40.6277C267.758 40.5095 267.754 40.3834 267.71 40.2675C267.665 40.1516 267.583 40.0521 267.475 39.9832L267.377 39.9367C267.362 39.9323 267.349 39.9239 267.339 39.9125C267.329 39.9012 267.323 39.8874 267.322 39.8728C267.322 39.838 267.322 39.8206 267.371 39.8032C267.421 39.774 267.478 39.7561 267.536 39.7511C267.595 39.7461 267.654 39.754 267.709 39.7741Z" fill="white"/>
<path d="M269.16 40.9817C269.13 41.0408 269.086 41.0925 269.031 41.1327H268.982C268.982 41.1327 268.982 41.1036 268.982 41.0862C268.993 41.0072 268.987 40.9269 268.964 40.8502C268.941 40.7735 268.901 40.7022 268.847 40.6407C268.794 40.5791 268.727 40.5286 268.652 40.4924C268.577 40.4562 268.495 40.435 268.41 40.4301C268.41 40.4301 268.355 40.4301 268.355 40.4011C268.355 40.372 268.355 40.3604 268.355 40.3488C268.436 40.2896 268.533 40.2546 268.635 40.2484C268.737 40.2422 268.839 40.2651 268.927 40.314C269.007 40.3553 269.076 40.4143 269.128 40.4861C269.179 40.5578 269.211 40.6402 269.222 40.7262C269.229 40.8152 269.207 40.9041 269.16 40.9817Z" fill="white"/>
<path d="M270.114 42.1547C270.166 42.1741 270.213 42.2032 270.253 42.24C270.293 42.2769 270.325 42.3209 270.347 42.3695C270.369 42.4312 270.368 42.4979 270.344 42.5589C270.321 42.62 270.276 42.6719 270.218 42.7063C270.214 42.7111 270.209 42.715 270.203 42.7177C270.197 42.7204 270.191 42.7218 270.184 42.7218C270.178 42.7218 270.171 42.7204 270.165 42.7177C270.16 42.715 270.154 42.7111 270.15 42.7063C270.107 42.6066 270.03 42.5236 269.93 42.4709C269.831 42.4182 269.716 42.3988 269.603 42.4159H269.456C269.447 42.4229 269.435 42.4262 269.424 42.4251C269.412 42.424 269.401 42.4186 269.394 42.4101C269.387 42.4017 269.383 42.3908 269.384 42.3799C269.386 42.369 269.391 42.359 269.4 42.3521C269.419 42.3036 269.449 42.26 269.488 42.2246C269.528 42.1893 269.576 42.1633 269.628 42.1489C269.705 42.1186 269.788 42.1035 269.871 42.1045C269.955 42.1055 270.037 42.1226 270.114 42.1547Z" fill="white"/>
<path d="M267.833 39.2051C267.806 39.2686 267.765 39.3261 267.713 39.374C267.661 39.4219 267.6 39.4593 267.532 39.4838C267.524 39.4884 267.514 39.4908 267.504 39.4908C267.495 39.4908 267.485 39.4884 267.477 39.4838C267.446 39.4838 267.44 39.4431 267.477 39.4083C267.53 39.3294 267.564 39.24 267.575 39.147C267.586 39.0668 267.578 38.9852 267.55 38.9086C267.522 38.832 267.476 38.7626 267.415 38.7057C267.402 38.6892 267.385 38.6754 267.366 38.6651C267.359 38.6547 267.355 38.6426 267.355 38.6302C267.355 38.6179 267.359 38.6058 267.366 38.5954C267.368 38.5823 267.375 38.5703 267.385 38.5609C267.395 38.5516 267.407 38.5454 267.421 38.5431C267.485 38.5257 267.552 38.5257 267.615 38.5432C267.678 38.5607 267.735 38.5949 267.778 38.6418C267.837 38.7027 267.88 38.7763 267.902 38.8562C267.925 38.9361 267.926 39.0199 267.907 39.1005C267.885 39.1369 267.86 39.1718 267.833 39.2051Z" fill="white"/>
<path d="M270.058 40.8713C270.153 40.9056 270.234 40.9673 270.289 41.0476C270.344 41.128 270.371 41.2228 270.366 41.3184C270.363 41.4135 270.324 41.5044 270.255 41.5739C270.247 41.578 270.239 41.5801 270.23 41.5801C270.222 41.5801 270.213 41.578 270.206 41.5739C270.197 41.5701 270.19 41.5644 270.185 41.5573C270.18 41.5502 270.176 41.5419 270.175 41.5333C270.173 41.4567 270.153 41.3815 270.117 41.3128C270.081 41.2442 270.03 41.1837 269.967 41.1357C269.904 41.0876 269.83 41.0531 269.751 41.0345C269.673 41.016 269.591 41.0138 269.511 41.0281C269.511 41.0281 269.511 41.0281 269.474 41.0281C269.454 41.0348 269.432 41.0348 269.413 41.0281C269.413 41.0281 269.413 40.9875 269.413 40.97C269.47 40.9136 269.542 40.8716 269.622 40.8481C269.765 40.8016 269.921 40.8099 270.058 40.8713Z" fill="white"/>
<path d="M269.062 39.6231C269.021 39.7049 268.96 39.7765 268.884 39.8321C268.884 39.8321 268.835 39.8321 268.804 39.8321C268.773 39.8321 268.804 39.7856 268.804 39.7566C268.859 39.6365 268.87 39.5024 268.834 39.3759C268.798 39.2494 268.719 39.138 268.607 39.0598C268.564 39.0317 268.516 39.0102 268.466 38.996C268.466 38.996 268.411 38.996 268.411 38.9437C268.411 38.8914 268.441 38.8973 268.472 38.8856C268.57 38.8656 268.672 38.8724 268.765 38.9054C268.859 38.9383 268.941 38.9959 269.001 39.0714C269.062 39.1498 269.101 39.2423 269.111 39.3393C269.122 39.4363 269.105 39.5343 269.062 39.6231Z" fill="white"/>
<path d="M271.3 42.2011C271.346 42.2136 271.387 42.2381 271.418 42.2718C271.45 42.3054 271.471 42.3467 271.478 42.3911C271.486 42.4354 271.48 42.4809 271.462 42.5223C271.443 42.5637 271.413 42.5993 271.374 42.625C271.374 42.625 271.325 42.654 271.306 42.625C271.262 42.5689 271.203 42.5252 271.135 42.4986C271.067 42.472 270.992 42.4635 270.919 42.474C270.821 42.4751 270.724 42.4969 270.636 42.5379C270.636 42.5379 270.593 42.5379 270.575 42.5379C270.57 42.5278 270.568 42.5169 270.568 42.5059C270.568 42.4949 270.57 42.4841 270.575 42.474C270.595 42.4019 270.643 42.3397 270.71 42.2998C270.783 42.2426 270.87 42.2024 270.963 42.1822C271.056 42.1621 271.152 42.1626 271.245 42.1837L271.3 42.2011Z" fill="white"/>
<path d="M268.085 37.8289C268.031 37.9676 267.923 38.0818 267.783 38.1482C267.738 38.1678 267.691 38.1815 267.642 38.1889C267.638 38.1927 267.633 38.1958 267.628 38.1979C267.623 38.2 267.617 38.2011 267.611 38.2011C267.606 38.2011 267.6 38.2 267.595 38.1979C267.589 38.1958 267.585 38.1927 267.581 38.1889C267.574 38.1699 267.574 38.1497 267.581 38.1308C267.617 38.0843 267.66 38.0437 267.691 37.9973C267.734 37.942 267.765 37.8791 267.782 37.8122C267.799 37.7454 267.802 37.676 267.79 37.6082C267.781 37.5441 267.753 37.4837 267.71 37.434C267.702 37.4264 267.698 37.4169 267.696 37.4068C267.695 37.3967 267.696 37.3863 267.701 37.3771C267.705 37.3678 267.713 37.36 267.722 37.3546C267.731 37.3493 267.742 37.3466 267.753 37.3469C267.793 37.3412 267.834 37.3432 267.873 37.3528C267.912 37.3624 267.949 37.3793 267.981 37.4026C268.013 37.4259 268.04 37.4551 268.06 37.4885C268.08 37.5218 268.092 37.5586 268.097 37.5966C268.112 37.6739 268.108 37.7534 268.085 37.8289Z" fill="white"/>
<path d="M271.467 41.7192L271.424 41.7889C271.414 41.7924 271.403 41.7924 271.393 41.7889C271.391 41.7793 271.391 41.7694 271.393 41.7598C271.393 41.7598 271.393 41.7192 271.393 41.7018C271.363 41.6095 271.3 41.5298 271.215 41.476C271.13 41.4221 271.028 41.3973 270.926 41.4056C270.84 41.4041 270.755 41.4241 270.68 41.4637C270.671 41.4719 270.659 41.4764 270.646 41.4764C270.634 41.4764 270.621 41.4719 270.612 41.4637C270.612 41.4637 270.612 41.4231 270.612 41.4056C270.693 41.3116 270.803 41.2437 270.926 41.2115C271.05 41.1792 271.181 41.1842 271.301 41.2256C271.347 41.2471 271.388 41.2771 271.421 41.3138C271.454 41.3504 271.479 41.3931 271.495 41.4391C271.51 41.4852 271.516 41.5337 271.511 41.5818C271.506 41.63 271.491 41.6767 271.467 41.7192Z" fill="white"/>
<path d="M270.034 39.4314C270.15 39.4864 270.241 39.5784 270.292 39.6912C270.343 39.8039 270.349 39.93 270.311 40.0469C270.288 40.1188 270.25 40.1859 270.2 40.2443C270.2 40.2443 270.163 40.2849 270.133 40.2443C270.102 40.2036 270.133 40.2036 270.133 40.1804C270.162 40.0775 270.161 39.9689 270.13 39.8665C270.098 39.764 270.038 39.6718 269.954 39.5998C269.863 39.5207 269.746 39.4736 269.622 39.4662C269.579 39.4662 269.555 39.4314 269.573 39.4024C269.58 39.3869 269.594 39.3745 269.61 39.3675C269.755 39.3399 269.906 39.3626 270.034 39.4314Z" fill="white"/>
<path d="M269.007 38.1947C268.946 38.329 268.834 38.4368 268.693 38.4967C268.693 38.4967 268.638 38.4967 268.613 38.4967C268.589 38.4967 268.613 38.4502 268.613 38.427C268.693 38.3529 268.747 38.258 268.769 38.1545C268.791 38.051 268.779 37.9437 268.736 37.8464C268.709 37.7682 268.655 37.7008 268.582 37.6547C268.582 37.6547 268.539 37.6199 268.582 37.5909C268.625 37.5618 268.625 37.5618 268.65 37.5909C268.714 37.5968 268.776 37.6155 268.832 37.6459C268.888 37.6762 268.937 37.7175 268.975 37.7669C269.013 37.8164 269.039 37.8728 269.052 37.9326C269.065 37.9923 269.064 38.054 269.05 38.1134L269.007 38.1947Z" fill="white"/>
<path d="M268.042 36.6675C267.997 36.7603 267.929 36.8414 267.843 36.9041C267.757 36.9667 267.657 37.0091 267.551 37.0275C267.522 37.0335 267.493 37.0335 267.464 37.0275C267.453 37.0252 267.443 37.0203 267.434 37.0132C267.426 37.006 267.419 36.997 267.415 36.9868C267.415 36.9868 267.415 36.9462 267.415 36.9346C267.543 36.8685 267.646 36.7672 267.71 36.6443C267.749 36.5749 267.764 36.4957 267.753 36.4178C267.753 36.3481 267.784 36.3133 267.852 36.3191C267.884 36.3207 267.915 36.329 267.943 36.3434C267.971 36.3579 267.996 36.378 268.015 36.4025C268.034 36.427 268.046 36.4552 268.052 36.4849C268.058 36.5147 268.057 36.5453 268.049 36.5746C268.067 36.6036 268.049 36.6327 268.042 36.6675Z" fill="white"/>
<path d="M272.217 42.7294L272.155 42.8224C272.151 42.8272 272.146 42.8311 272.14 42.8338C272.134 42.8364 272.128 42.8379 272.121 42.8379C272.115 42.8379 272.108 42.8364 272.103 42.8338C272.097 42.8311 272.092 42.8272 272.088 42.8224C272.054 42.8003 272.016 42.7853 271.975 42.7783C271.935 42.7713 271.894 42.7725 271.854 42.7817C271.736 42.7961 271.624 42.838 271.528 42.9036C271.528 42.9036 271.485 42.9327 271.46 42.9036C271.454 42.8847 271.454 42.8645 271.46 42.8456C271.469 42.781 271.502 42.7214 271.553 42.6772C271.673 42.5505 271.84 42.4716 272.02 42.4565H272.118C272.143 42.4597 272.167 42.4684 272.188 42.4819C272.209 42.4955 272.226 42.5134 272.238 42.5344C272.25 42.5553 272.256 42.5787 272.257 42.6025C272.258 42.6263 272.252 42.6499 272.241 42.6714C272.241 42.6714 272.241 42.6714 272.241 42.7004L272.217 42.7294Z" fill="white"/>
<path d="M271.589 41.8294C271.636 41.7403 271.706 41.6641 271.794 41.6082C271.881 41.5523 271.982 41.5185 272.087 41.51C272.152 41.4993 272.219 41.5095 272.277 41.5391C272.337 41.5709 272.381 41.6224 272.403 41.6834C272.425 41.7445 272.421 41.811 272.394 41.87V41.9281C272.394 41.9281 272.351 41.9281 272.339 41.9281C272.326 41.8925 272.305 41.8599 272.278 41.8328C272.25 41.8057 272.216 41.7847 272.179 41.7713C272.086 41.7367 271.983 41.7367 271.89 41.7713C271.817 41.8027 271.745 41.8376 271.675 41.8758C271.675 41.8758 271.632 41.9165 271.613 41.8758C271.595 41.8352 271.613 41.8352 271.613 41.8178L271.589 41.8294Z" fill="white"/>
<path d="M269.001 36.9462C268.955 37.0391 268.883 37.1187 268.793 37.1768C268.704 37.2349 268.599 37.2696 268.491 37.2772C268.491 37.2772 268.442 37.2772 268.436 37.2772C268.429 37.269 268.425 37.2587 268.425 37.2482C268.425 37.2376 268.429 37.2274 268.436 37.2191C268.558 37.1638 268.657 37.072 268.718 36.9579C268.753 36.9024 268.771 36.8393 268.771 36.775C268.771 36.7106 268.753 36.6475 268.718 36.592C268.718 36.592 268.718 36.5456 268.718 36.5398C268.728 36.5356 268.739 36.5334 268.749 36.5334C268.76 36.5334 268.77 36.5356 268.78 36.5398C268.822 36.5492 268.862 36.5666 268.896 36.5909C268.931 36.6152 268.96 36.6459 268.982 36.6812C269.004 36.7165 269.018 36.7556 269.024 36.7962C269.029 36.8368 269.026 36.8779 269.014 36.9172C269.01 36.927 269.006 36.9367 269.001 36.9462Z" fill="white"/>
<path d="M271.165 39.8901C271.286 39.9312 271.388 40.0132 271.449 40.1204C271.51 40.2275 271.527 40.3524 271.497 40.4708V40.5288C271.497 40.5579 271.497 40.5811 271.442 40.5753C271.386 40.5695 271.405 40.5405 271.405 40.5172C271.405 40.4387 271.386 40.3611 271.349 40.2908C271.304 40.1982 271.23 40.1211 271.136 40.0701C271.042 40.0192 270.934 39.9969 270.827 40.0063H270.784C270.784 40.0063 270.722 40.0063 270.704 40.0063C270.685 40.0063 270.704 39.954 270.753 39.9424C270.878 39.8745 271.026 39.8557 271.165 39.8901Z" fill="white"/>
<path d="M270.194 38.7112C270.162 38.7822 270.111 38.8442 270.047 38.8912C270.037 38.8958 270.027 38.8982 270.016 38.8982C270.005 38.8982 269.995 38.8958 269.985 38.8912C269.985 38.8912 269.985 38.8564 269.985 38.8389C270.018 38.7716 270.045 38.7017 270.065 38.6299C270.086 38.5128 270.065 38.3924 270.006 38.2874C269.947 38.1824 269.854 38.0987 269.739 38.0493C269.739 38.0493 269.696 38.0493 269.702 38.0028C269.708 37.9564 269.733 38.0028 269.758 38.0028C269.841 38.0118 269.922 38.0392 269.992 38.0827C270.063 38.1262 270.122 38.1847 270.164 38.2535C270.207 38.3223 270.231 38.3995 270.237 38.479C270.242 38.5585 270.227 38.638 270.194 38.7112Z" fill="white"/>
<path d="M269.063 35.971C269.001 36.0755 268.903 36.1573 268.786 36.2032C268.666 36.26 268.53 36.2784 268.399 36.2555C268.356 36.2555 268.337 36.2265 268.349 36.1974C268.36 36.1834 268.375 36.1732 268.392 36.1684C268.519 36.1374 268.635 36.0776 268.731 35.9942C268.77 35.9661 268.802 35.929 268.822 35.8864C268.842 35.8437 268.851 35.797 268.847 35.7503C268.847 35.7097 268.847 35.6864 268.909 35.6981C268.94 35.7024 268.971 35.7136 268.997 35.7309C269.023 35.7483 269.044 35.7711 269.059 35.7977C269.074 35.8243 269.082 35.8538 269.083 35.8839C269.083 35.914 269.076 35.9438 269.063 35.971Z" fill="white"/>
<path d="M272.186 40.5754C272.267 40.6104 272.332 40.6702 272.373 40.745C272.413 40.8199 272.425 40.9054 272.407 40.9876C272.411 41.0029 272.411 41.0187 272.407 41.0341C272.407 41.0341 272.407 41.0631 272.37 41.0631C272.333 41.0631 272.37 41.0631 272.333 41.0341C272.331 41.0109 272.331 40.9875 272.333 40.9644C272.317 40.9178 272.292 40.8746 272.258 40.8374C272.224 40.8002 272.183 40.7697 272.137 40.7475C272.091 40.7254 272.04 40.7121 271.988 40.7085C271.937 40.7048 271.885 40.7109 271.835 40.7263L271.719 40.7728C271.719 40.7728 271.676 40.7728 271.663 40.7728C271.657 40.7558 271.657 40.7375 271.663 40.7205C271.727 40.6526 271.81 40.6034 271.903 40.5787C271.996 40.554 272.094 40.5549 272.186 40.5812V40.5754Z" fill="white"/>
<path d="M272.5 42.0848C272.581 41.9182 272.729 41.7888 272.911 41.7248C272.957 41.7076 273.007 41.7076 273.053 41.7248C273.072 41.7323 273.09 41.7442 273.104 41.7593C273.118 41.7744 273.128 41.7924 273.133 41.8119C273.148 41.8631 273.148 41.9174 273.133 41.9686C273.129 41.9762 273.125 41.983 273.118 41.9886C273.112 41.9942 273.105 41.9985 273.097 42.0012C273.088 42.004 273.08 42.0051 273.071 42.0045C273.063 42.0038 273.054 42.0015 273.047 41.9977C273.015 41.9819 272.981 41.9737 272.945 41.9737C272.91 41.9737 272.875 41.9819 272.844 41.9977C272.737 42.034 272.641 42.0961 272.567 42.1777H272.524C272.522 42.1622 272.522 42.1466 272.524 42.1312C272.515 42.1161 272.507 42.1006 272.5 42.0848Z" fill="white"/>
<path d="M270.126 37.3526C270.068 37.4675 269.967 37.5584 269.843 37.6081C269.843 37.6081 269.788 37.6081 269.769 37.6081C269.751 37.6081 269.769 37.5617 269.769 37.5443C269.834 37.4971 269.885 37.4349 269.917 37.3637C269.95 37.2926 269.962 37.2148 269.954 37.1378C269.945 37.0378 269.896 36.9445 269.818 36.8765C269.815 36.8612 269.815 36.8454 269.818 36.8301C269.837 36.8271 269.855 36.8271 269.874 36.8301C269.976 36.861 270.062 36.9273 270.114 37.0156C270.167 37.1039 270.182 37.2078 270.157 37.3062C270.157 37.3062 270.132 37.3352 270.126 37.3526Z" fill="white"/>
<path d="M270.053 36.2784C270.013 36.3538 269.948 36.415 269.868 36.4527C269.756 36.5056 269.63 36.5277 269.505 36.5165C269.505 36.5165 269.456 36.5165 269.456 36.4817C269.456 36.4468 269.456 36.441 269.499 36.4352C269.617 36.4165 269.725 36.3614 269.807 36.2784C269.84 36.2491 269.865 36.2127 269.88 36.1722C269.895 36.1318 269.899 36.0886 269.893 36.0462C269.893 36.0462 269.893 35.9939 269.93 35.9823C269.939 35.9753 269.951 35.9714 269.964 35.9714C269.976 35.9714 269.988 35.9753 269.997 35.9823C270.041 36.0181 270.071 36.0672 270.081 36.1211C270.091 36.175 270.081 36.2306 270.053 36.2784Z" fill="white"/>
<path d="M269.991 35.5586C269.965 35.5865 269.936 35.6118 269.904 35.6341C269.763 35.7031 269.601 35.7275 269.443 35.7038H269.394C269.381 35.7023 269.368 35.6962 269.359 35.6865C269.35 35.6769 269.345 35.6644 269.345 35.6515C269.345 35.6167 269.345 35.6051 269.4 35.5993C269.466 35.591 269.532 35.5794 269.597 35.5644C269.646 35.5547 269.692 35.5351 269.733 35.507C269.773 35.479 269.806 35.4431 269.831 35.4018C269.831 35.4018 269.874 35.3728 269.898 35.3728C269.936 35.3871 269.966 35.4142 269.983 35.4486C270 35.4831 270.003 35.5224 269.991 35.5586Z" fill="white"/>
<path d="M273.164 40.5754C273.205 40.5959 273.24 40.6268 273.263 40.6647C273.287 40.7027 273.3 40.7461 273.299 40.7903C273.299 40.7903 273.299 40.8309 273.262 40.8367C273.253 40.8408 273.244 40.8429 273.234 40.8429C273.225 40.8429 273.215 40.8408 273.207 40.8367C273.166 40.7953 273.112 40.7681 273.052 40.7597C272.993 40.7512 272.933 40.762 272.881 40.7903C272.819 40.8276 272.759 40.8683 272.702 40.9122C272.686 40.9171 272.669 40.9171 272.653 40.9122C272.653 40.9122 272.653 40.8774 272.653 40.86C272.721 40.7268 272.84 40.623 272.985 40.5696C273.044 40.5525 273.107 40.5545 273.164 40.5754Z" fill="white"/>
<path d="M270.359 35.9476C270.359 35.9476 270.316 35.9476 270.322 35.9011C270.328 35.8547 270.353 35.9011 270.377 35.9011C270.489 35.9178 270.603 35.9078 270.709 35.8721C270.746 35.8629 270.778 35.8435 270.802 35.8165C270.826 35.7896 270.841 35.7563 270.845 35.7211C270.845 35.6921 270.845 35.6863 270.9 35.7211C270.926 35.734 270.947 35.7532 270.962 35.7767C270.977 35.8002 270.985 35.8272 270.985 35.8547C270.985 35.8822 270.977 35.9091 270.962 35.9327C270.947 35.9562 270.926 35.9754 270.9 35.9882C270.801 36.0337 270.689 36.0479 270.58 36.0289L270.396 35.994L270.359 35.9476Z" fill="white"/>
<path d="M273.367 41.2375C273.418 41.1145 273.508 41.0093 273.625 40.9355C273.692 40.8949 273.748 40.8891 273.785 40.9355C273.798 40.9565 273.805 40.9806 273.805 41.0052C273.805 41.0298 273.798 41.0539 273.785 41.0749C273.785 41.0749 273.742 41.1039 273.729 41.0749C273.699 41.0663 273.668 41.0655 273.637 41.0726C273.607 41.0798 273.579 41.0946 273.557 41.1155C273.503 41.163 273.452 41.2134 273.403 41.2665C273.403 41.2665 273.403 41.2665 273.36 41.2665C273.357 41.2602 273.355 41.2532 273.355 41.2462C273.355 41.2391 273.357 41.2322 273.36 41.2259C273.363 41.2296 273.365 41.2335 273.367 41.2375Z" fill="white"/>
<path d="M271.14 36.6792C271.116 36.734 271.077 36.7819 271.028 36.8185C270.978 36.8551 270.92 36.8791 270.857 36.8883H270.784H270.747C270.742 36.8732 270.742 36.8569 270.747 36.8418L270.808 36.8128C270.877 36.7844 270.934 36.7355 270.971 36.6737C271.007 36.6118 271.021 36.5404 271.011 36.4702C271.006 36.4623 271.004 36.4533 271.004 36.4441C271.004 36.4349 271.006 36.4259 271.011 36.418C271.011 36.418 271.054 36.418 271.067 36.418C271.101 36.452 271.126 36.4939 271.139 36.5396C271.152 36.5853 271.152 36.6334 271.14 36.6792Z" fill="white"/>
<path d="M271.117 35.6458L270.988 35.5703C270.988 35.5703 270.988 35.5355 270.988 35.5238C270.988 35.5122 270.988 35.5238 271.037 35.5238C271.155 35.5734 271.282 35.601 271.412 35.6051H271.529H271.522C271.548 35.6234 271.571 35.6449 271.59 35.669C271.59 35.7038 271.59 35.7329 271.59 35.7387H271.449C271.333 35.7258 271.221 35.6944 271.117 35.6458Z" fill="white"/>
<path d="M271.448 36.3426C271.45 36.3291 271.45 36.3154 271.448 36.3019H271.491C271.544 36.3046 271.598 36.3046 271.651 36.3019C271.708 36.2986 271.764 36.2869 271.817 36.2671C271.837 36.2604 271.855 36.2488 271.869 36.2335C271.883 36.2183 271.893 36.1998 271.897 36.18C271.9 36.171 271.906 36.1631 271.913 36.157C271.921 36.1508 271.93 36.1467 271.94 36.1451C271.94 36.1451 271.94 36.1451 271.977 36.18C271.991 36.2154 271.99 36.2547 271.974 36.2894C271.958 36.3242 271.928 36.3516 271.891 36.3658C271.815 36.3889 271.733 36.3889 271.657 36.3658L271.503 36.3367L271.448 36.3426Z" fill="white"/>
<path d="M273.919 40.3605L274.017 40.2037L274.054 40.1689C274.054 40.1689 274.116 40.1108 274.159 40.134C274.202 40.1572 274.195 40.1979 274.195 40.2385C274.197 40.2433 274.197 40.2483 274.195 40.2531C274.194 40.2578 274.191 40.2621 274.187 40.2656C274.184 40.2691 274.179 40.2716 274.174 40.273C274.169 40.2744 274.164 40.2745 274.159 40.2734C274.14 40.2745 274.121 40.2792 274.104 40.2872C274.088 40.2952 274.072 40.3063 274.06 40.3198C273.996 40.3858 273.946 40.4626 273.913 40.5463C273.913 40.5463 273.913 40.5753 273.876 40.5753C273.839 40.5753 273.876 40.5463 273.876 40.5289C273.886 40.4719 273.901 40.4157 273.919 40.3605Z" fill="white"/>
<path d="M272.136 36.0521L272.007 35.9882C272.007 35.9882 271.964 35.9592 272.007 35.936C272.05 35.9128 272.044 35.936 272.062 35.936L272.259 35.9999C272.312 36.0057 272.366 36.0057 272.419 35.9999C272.427 35.9971 272.436 35.9962 272.444 35.9972C272.453 35.9982 272.461 36.0011 272.468 36.0056C272.475 36.0101 272.481 36.0162 272.485 36.0232C272.49 36.0303 272.492 36.0382 272.493 36.0463C272.493 36.0811 272.493 36.1102 272.456 36.116H272.308C272.21 36.0869 272.136 36.0637 272.136 36.0521Z" fill="white"/>
<path d="M266.087 38.328L262.398 38.9086C262.076 38.9572 261.787 39.1245 261.596 39.3739C261.404 39.6232 261.326 39.9342 261.377 40.2383L261.531 41.1035C261.584 41.4065 261.761 41.6775 262.025 41.8571C262.289 42.0366 262.618 42.1102 262.939 42.0615L266.56 41.4809C265.972 40.5288 265.802 39.397 266.087 38.328Z" fill="white"/>
<path d="M31.3435 200.807C29.902 199.394 28.1827 198.274 26.2871 197.516C24.3915 196.757 22.3581 196.374 20.3071 196.389C11.8988 196.389 5.4229 202.226 5.4229 210.465C5.4229 218.361 12.4574 224.148 20.3584 224.148C23.9948 224.163 27.5156 222.911 30.2775 220.619V213.949H25.4205L23.0377 208.653H35.75V222.872C33.8024 224.967 31.4201 226.64 28.7589 227.782C26.0977 228.924 23.2177 229.509 20.3071 229.498C17.6313 229.532 14.9755 229.047 12.4964 228.071C10.0173 227.095 7.76505 225.648 5.87252 223.815C3.98 221.983 2.4855 219.802 1.47719 217.4C0.468883 214.999 -0.0328177 212.427 0.00166413 209.835C0.00166413 199.045 9.52163 191 20.3584 191C23.0542 190.993 25.7249 191.5 28.2182 192.493C30.7114 193.486 32.9782 194.945 34.8892 196.787L31.3435 200.807Z" fill="white"/>
<path d="M62.5577 229.498C59.932 229.534 57.3256 229.051 54.8923 228.076C52.4589 227.101 50.2481 225.654 48.3902 223.821C46.5324 221.988 45.0652 219.806 44.0753 217.404C43.0854 215.002 42.5928 212.428 42.6266 209.835C42.6266 199.045 51.9632 191 62.5857 191C73.5603 191 82.5 199.487 82.5 210.42C82.5223 221.21 73.2864 229.498 62.5577 229.498ZM62.5577 196.395C54.3169 196.395 47.9602 202.231 47.9602 210.47C47.9602 218.366 54.8648 224.153 62.608 224.153C70.5525 224.153 77.144 218.079 77.144 210.128C77.1608 202.082 70.4575 196.395 62.5577 196.395Z" fill="white"/>
<path d="M90.75 229.5V192.375H96.1943V224.076H116.875V229.5H90.75Z" fill="white"/>
<path d="M129.173 229.5H123.75V192.375H149.875V197.85H129.145V209.097C131.386 207.802 133.728 207.651 136.165 207.651H144.272V213.176H136.193C133.801 213.176 131.414 213.428 129.173 214.622V229.5Z" fill="white"/>
<path d="M184.943 229.5C181.884 229.459 178.874 228.763 176.136 227.464C173.398 226.165 171.002 224.296 169.125 221.997L173.145 218.419C175.158 220.721 178.917 224.155 184.943 224.155C190.611 224.155 196.33 222.096 196.33 217.53C196.33 211.942 190.529 211.942 184.943 211.942C175.773 211.942 170.778 208.707 170.778 202.479C170.778 196.543 176.701 191 184.943 191C190.744 191 195.814 192.568 200.402 196.786L196.922 200.712C192.798 197.521 189.862 196.394 184.967 196.394C180.639 196.394 177.031 199.238 177.031 202.429C177.031 204.638 178.684 206.642 185.228 206.642C198.674 206.642 202.125 210.617 202.125 217.53C202.102 224.89 194.706 229.5 184.943 229.5Z" fill="white"/>
<path d="M255.75 192.375L244.096 229.5H238.318L231.273 207.556L224.415 229.5H218.637L206.25 192.375H211.763L221.454 220.147L228.312 198.248L226.449 192.375H231.962L241.168 220.147L250.176 192.375H255.75Z" fill="white"/>
<path d="M264 229.5V192.375H269.5V229.5H264Z" fill="white"/>
<path d="M276.375 192.375H283.549L307.906 220.741V192.375H313.5V229.5H308.009L286.252 203.969V229.5H280.83V197.598L276.375 192.375Z" fill="white"/>
<path d="M353.093 200.807C351.652 199.394 349.933 198.274 348.037 197.516C346.141 196.757 344.108 196.374 342.057 196.389C333.649 196.389 327.167 202.226 327.167 210.465C327.167 218.361 334.207 224.148 342.108 224.148C345.745 224.163 349.266 222.911 352.027 220.619V213.949H347.171L344.788 208.653H357.5V222.872C355.552 224.967 353.17 226.64 350.509 227.782C347.848 228.924 344.968 229.509 342.057 229.498C339.381 229.532 336.726 229.047 334.246 228.071C331.767 227.095 329.515 225.648 327.623 223.815C325.73 221.983 324.235 219.802 323.227 217.4C322.219 214.999 321.717 212.427 321.752 209.835C321.752 199.045 331.272 191 342.108 191C344.804 190.993 347.475 191.5 349.968 192.493C352.461 193.486 354.728 194.945 356.639 196.787L353.093 200.807Z" fill="white"/>
<path d="M6.11195 240.5H8.71601L16.5 257H13.8564L12.7944 254.633H7.8687C4.92005 254.633 3.34971 255.567 2.96559 256.241L2.55888 257H0L7.00444 242.516L6.11195 240.5ZM11.7607 252.238L8.22457 245.392L4.64327 253.155C5.20814 252.651 6.55256 252.238 8.76686 252.238H11.7607Z" fill="white"/>
<path d="M48.8392 244.703C48.1724 244.098 47.3775 243.618 46.5013 243.294C45.625 242.969 44.6853 242.805 43.7376 242.812C39.8551 242.812 36.8563 245.317 36.8563 248.84C36.8563 252.227 40.1111 254.709 43.762 254.709C44.8357 254.715 45.8962 254.496 46.8591 254.069C47.822 253.642 48.6607 253.018 49.3086 252.249L50.875 254.161C49.9754 255.06 48.8744 255.778 47.6442 256.267C46.4141 256.756 45.0827 257.006 43.7376 257C42.504 257.011 41.2803 256.801 40.1381 256.382C38.996 255.963 37.9584 255.343 37.0864 254.559C36.2143 253.774 35.5254 252.841 35.0599 251.814C34.5944 250.787 34.3617 249.686 34.3756 248.577C34.3756 243.947 38.7762 240.5 43.7864 240.5C45.0305 240.498 46.263 240.716 47.4134 241.142C48.5638 241.567 49.6096 242.193 50.491 242.982L48.8392 244.703Z" fill="white"/>
<path d="M83.3873 244.703C82.7774 244.097 82.0501 243.618 81.2483 243.293C80.4465 242.968 79.5866 242.805 78.7195 242.812C75.167 242.812 72.4288 245.317 72.4288 248.84C72.4288 252.226 75.4013 254.709 78.7418 254.709C79.7244 254.716 80.6952 254.498 81.5765 254.07C82.4577 253.643 83.2249 253.019 83.8167 252.248L85.25 254.161C84.4269 255.06 83.4195 255.778 82.2939 256.267C81.1684 256.756 79.9502 257.006 78.7195 256.999C77.5884 257.015 76.4657 256.807 75.4174 256.39C74.3691 255.972 73.4165 255.353 72.6156 254.568C71.8147 253.783 71.1818 252.849 70.7542 251.82C70.3265 250.791 70.1128 249.688 70.1255 248.577C70.1255 243.947 74.152 240.5 78.7306 240.5C79.8691 240.497 80.9969 240.715 82.0496 241.141C83.1023 241.567 84.0591 242.192 84.8652 242.982L83.3873 244.703Z" fill="white"/>
<path d="M108.243 254.592H118.25V257H105.875V240.5H117.298V242.931H108.232V247.932C109.177 247.437 110.237 247.216 111.298 247.292H114.845V249.752H111.298C110.239 249.701 109.185 249.921 108.232 250.392L108.243 254.592Z" fill="white"/>
<path d="M140.25 257V240.5H142.54V254.592H151.25V257H140.25Z" fill="white"/>
<path d="M172.873 254.592H182.875V257H170.5V240.5H181.918V242.931H172.856V247.932C173.801 247.437 174.86 247.216 175.92 247.292H179.466V249.752H175.92C174.862 249.701 173.809 249.921 172.856 250.392L172.873 254.592Z" fill="white"/>
<path d="M211.894 250.154H210.099C209.081 250.103 208.067 250.323 207.149 250.792V256.977H204.875V240.5H213.037C215.877 240.5 217.934 242.226 217.934 245.361C217.934 247.858 216.601 249.469 214.343 250.062L215.556 252.691C216.536 254.215 216.889 254.549 217.896 254.549H218.124H218.625V257C216.808 257 214.968 257 213.777 254.394L211.894 250.154ZM207.128 248.388C208.037 247.892 209.057 247.669 210.077 247.743H213.042C214.609 247.743 215.698 246.995 215.698 245.229C215.698 243.463 214.528 242.928 213.042 242.928H207.128V248.388Z" fill="white"/>
<path d="M243.991 240.5H246.588L254.375 257H251.727L250.665 254.633H245.747C242.793 254.633 241.229 255.567 240.845 256.241L240.433 257H237.875L244.877 242.516L243.991 240.5ZM249.603 252.238L246.069 245.392L242.494 253.155C243.059 252.651 244.403 252.238 246.611 252.238H249.603Z" fill="white"/>
<path d="M280.307 242.931V257H278.011V242.931H272.25V240.5H286V242.931H280.307Z" fill="white"/>
<path d="M313.492 256.999C312.406 257.014 311.329 256.806 310.323 256.388C309.317 255.97 308.403 255.35 307.634 254.564C306.866 253.779 306.26 252.844 305.85 251.815C305.441 250.786 305.237 249.683 305.251 248.572C305.251 243.945 309.115 240.501 313.514 240.501C314.59 240.487 315.659 240.692 316.658 241.104C317.657 241.516 318.565 242.127 319.332 242.901C320.098 243.676 320.706 244.598 321.121 245.615C321.536 246.631 321.75 247.722 321.75 248.824C321.75 253.451 317.929 256.999 313.492 256.999ZM313.492 242.811C310.083 242.811 307.45 245.314 307.45 248.835C307.45 252.219 310.308 254.699 313.514 254.699C314.297 254.713 315.075 254.568 315.803 254.272C316.53 253.976 317.194 253.535 317.754 252.974C318.314 252.414 318.759 251.746 319.065 251.008C319.371 250.27 319.53 249.477 319.534 248.676C319.534 245.248 316.757 242.811 313.492 242.811Z" fill="white"/>
<path d="M350.78 250.154H348.965C347.951 250.103 346.94 250.323 346.026 250.792V256.977H343.75V240.5H351.926C354.767 240.5 356.815 242.226 356.815 245.361C356.815 247.858 355.479 249.469 353.225 250.062L354.436 252.691C355.414 254.215 355.772 254.549 356.772 254.549H357H357.5V257C355.686 257 353.855 257 352.665 254.394L350.78 250.154ZM346.026 248.388C346.932 247.893 347.948 247.67 348.965 247.743H351.926C353.491 247.743 354.577 246.995 354.577 245.229C354.577 243.463 353.409 242.928 351.926 242.928H346.026V248.388Z" fill="white"/>
</svg>
