<svg width="62" height="29" viewBox="0 0 62 29" fill="none" xmlns="http://www.w3.org/2000/svg">
<path d="M60.6701 12.7361C60.6694 12.7354 60.6688 12.7346 60.6679 12.7339L48.1411 0.675277C47.2026 -0.228078 45.6847 -0.224717 44.7506 0.683161C43.8165 1.59092 43.8201 3.05918 44.7586 3.96265L53.1691 12.0587H2.39739C1.07331 12.0587 0 13.0969 0 14.3776C0 15.6584 1.07331 16.6966 2.39739 16.6966H53.169L44.7587 24.7926C43.8203 25.6961 43.8167 27.1643 44.7507 28.0721C45.6848 28.9801 47.2029 28.9832 48.1412 28.08L60.668 16.0213C60.6688 16.0206 60.6694 16.0198 60.6702 16.0191C61.6091 15.1126 61.6062 13.6396 60.6701 12.7361Z" fill="white"/>
</svg>
